{
.formatVersion = 3;
axes = (
{
name = Weight;
tag = wght;
}
);
classes = (
{

glyphs = (
{
glyphname = .notdef;
layers = (
{
layerId = "321F1C87-2BE4-472A-920D-C7836CF29DEE";
shapes = (
{
closed = 1;
nodes = (
(40,0,l),
(40,700,l),
(547,700,l),
(547,0,l)
);
},
{
closed = 1;
nodes = (
(120,70,l),
(467,70,l),
(467,630,l),
(120,630,l)
);
}
);
width = 587;
}
);
leftKerningGroup = pi;
},
{
glyphname = A;
layers = (
{
anchors = (
{
name = t.uni0308;
position = "{403, 700}";
},
{
name = b.uni0324_3;
position = "{403, 0}";
},
{
name = m.uni0328_4;
position = "{825, 0}";
}
);
layerId = "B8EF125A-8090-42B9-BB2C-F5A019E05E81";
shapes = (
{
closed = 1;
nodes = (
(-19,0,l),
(287,700,l),
(519,700,l),
(825,0,l),
(581,0,l),
(355,588,l),
(447,588,l),
(221,0,l)
);
},
{
closed = 1;
nodes = (
(163,122,l),
(223,292,l),
(545,292,l),
(605,122,l)
);
}
);
width = 806;
},
{
anchors = (
{
name = t.uni0308;
position = "{429, 700}";
},
{
name = b.uni0324_3;
position = "{429, 0}";
},
{
name = m.uni0328_4;
position = "{889, 0}";
}
);
layerId = "FE17A44E-3763-4243-92C2-150F6AC96B85";
shapes = (
{
closed = 1;
nodes = (
(-3,0,l),
(313,700,l),
(426,700,l),
(743,0,l),
(623,0,l),
(346,637,l),
(392,637,l),
(115,0,l)
);
},
{
closed = 1;
nodes = (
(137,168,l),
(168,260,l),
(554,260,l),
(586,168,l)
);
}
);
width = 740;
},
{
anchors = (
{
name = t.uni0308;
position = "{429, 700}";
},
{
name = b.uni0324_3;
position = "{429, 0}";
},
{
name = m.uni0328_4;
position = "{889, 0}";
}
);
layerId = "321F1C87-2BE4-472A-920D-C7836CF29DEE";
shapes = (
{
closed = 1;
nodes = (
(9,0,l),
(334,700,l),
(354,700,l),
(679,0,l),
(656,0,l),
(339,684,l),
(349,684,l),
(32,0,l)
);
},
{
closed = 1;
nodes = (
(116,211,l),
(126,230,l),
(561,230,l),
(571,211,l)
);
}
);
width = 688;
}
);
leftKerningGroup = A2;
rightKerningGroup = A;
unicode = 65;
},
{
glyphname = AE;
layers = (
{
anchors = (
{
name = t.uni0308;
position = "{619, 700}";
},
{
name = b.uni0324_3;
position = "{619, 0}";
}
);
layerId = "B8EF125A-8090-42B9-BB2C-F5A019E05E81";
shapes = (
{
closed = 1;
nodes = (
(-19,0,l),
(350,700,l),
(584,700,l),
(584,522,l),
(385,522,l),
(527,616,l),
(221,0,l)
);
},
{
closed = 1;
nodes = (
(219,122,l),
(219,292,l),
(584,292,l),
(584,122,l)
);
},
{
closed = 1;
nodes = (
(719,440,l),
(1031,440,l),
(1031,270,l),
(719,270,l)
);
},
{
closed = 1;
nodes = (
(735,178,l),
(1085,178,l),
(1085,0,l),
(503,0,l),
(503,700,l),
(1072,700,l),
(1072,522,l),
(735,522,l)
);
}
);
width = 1119;
},
{
anchors = (
{
name = t.uni0308;
position = "{680, 700}";
},
{
name = b.uni0324_3;
position = "{680, 0}";
}
);
layerId = "FE17A44E-3763-4243-92C2-150F6AC96B85";
shapes = (
{
closed = 1;
nodes = (
(-3,0,l),
(409,700,l),
(523,700,l),
(523,601,l),
(423,601,l),
(493,652,l),
(115,0,l)
);
},
{
closed = 1;
nodes = (
(182,168,l),
(187,260,l),
(523,260,l),
(523,168,l)
);
},
{
closed = 1;
nodes = (
(590,404,l),
(944,404,l),
(944,307,l),
(589,307,l)
);
},
{
closed = 1;
nodes = (
(599,99,l),
(1001,99,l),
(1001,0,l),
(485,0,l),
(485,700,l),
(987,700,l),
(987,601,l),
(599,601,l)
);
}
);
width = 1055;
},
{
anchors = (
{
name = t.uni0308;
position = "{680, 700}";
},
{
name = b.uni0324_3;
position = "{680, 0}";
}
);
layerId = "321F1C87-2BE4-472A-920D-C7836CF29DEE";
shapes = (
{
closed = 1;
nodes = (
(9,0,l),
(454,700,l),
(475,700,l),
(475,681,l),
(453,681,l),
(467,685,l),
(32,0,l)
);
},
{
closed = 1;
nodes = (
(153,211,l),
(163,230,l),
(475,230,l),
(475,211,l)
);
},
{
closed = 1;
nodes = (
(485,365,l),
(876,365,l),
(876,346,l),
(485,346,l)
);
},
{
closed = 1;
nodes = (
(490,19,l),
(936,19,l),
(936,0,l),
(470,0,l),
(470,700,l),
(921,700,l),
(921,681,l),
(490,681,l)
);
}
);
width = 1005;
}
);
leftKerningGroup = A2;
rightKerningGroup = E;
unicode = 198;
},
{
glyphname = B;
layers = (
{
anchors = (
{
name = t.uni0308;
position = "{382, 700}";
},
{
name = b.uni0324_3;
position = "{382, 0}";
}
);
layerId = "B8EF125A-8090-42B9-BB2C-F5A019E05E81";
shapes = (
{
closed = 1;
nodes = (
(57,0,l),
(57,700,l),
(431,700,ls),
(576,700,o),
(714,597,o),
(714,517,qs),
(714,464,o),
(655,381,o),
(543,333,o),
(461,333,q),
(481,387,l),
(563,387,o),
(682,341,o),
(747,254,o),
(747,193,qs),
(747,102,o),
(596,0,o),
(451,0,qs)
);
},
{
closed = 1;
nodes = (
(289,165,l),
(431,165,ls),
(470,165,o),
(509,193,o),
(509,220,qs),
(509,247,o),
(470,275,o),
(431,275,qs),
(273,275,l),
(273,431,l),
(399,431,ls),
(439,431,o),
(476,458,o),
(476,483,qs),
(476,509,o),
(439,535,o),
(399,535,qs),
(289,535,l)
);
}
);
width = 773;
},
{
anchors = (
{
name = t.uni0308;
position = "{384, 700}";
},
{
name = b.uni0324_3;
position = "{384, 0}";
}
);
layerId = "FE17A44E-3763-4243-92C2-150F6AC96B85";
shapes = (
{
closed = 1;
nodes = (
(100,0,l),
(100,700,l),
(421,700,ls),
(544,700,o),
(675,602,o),
(675,518,qs),
(675,462,o),
(624,383,o),
(541,341,o),
(494,341,q),
(512,374,l),
(568,374,o),
(658,332,o),
(711,250,o),
(711,190,qs),
(711,100,o),
(575,0,o),
(441,0,qs)
);
},
{
closed = 1;
nodes = (
(214,93,l),
(435,93,ls),
(513,93,o),
(596,144,o),
(596,200,qs),
(596,256,o),
(513,308,o),
(435,308,qs),
(205,308,l),
(205,401,l),
(409,401,ls),
(481,401,o),
(560,452,o),
(560,504,qs),
(560,556,o),
(481,607,o),
(409,607,qs),
(214,607,l)
);
}
);
width = 759;
},
{
anchors = (
{
name = t.uni0308;
position = "{384, 700}";
},
{
name = b.uni0324_3;
position = "{384, 0}";
}
);
layerId = "321F1C87-2BE4-472A-920D-C7836CF29DEE";
shapes = (
{
closed = 1;
nodes = (
(133,0,l),
(133,700,l),
(410,700,ls),
(518,700,o),
(645,611,o),
(645,523,qs),
(645,465,o),
(589,388,o),
(489,350,o),
(424,350,q),
(441,363,l),
(522,363,o),
(629,322,o),
(683,242,o),
(683,183,qs),
(683,95,o),
(558,0,o),
(430,0,qs)
);
},
{
closed = 1;
nodes = (
(153,19,l),
(434,19,ls),
(546,19,o),
(663,98,o),
(663,183,qs),
(663,268,o),
(546,346,o),
(434,346,qs),
(148,346,l),
(148,365,l),
(414,365,ls),
(514,365,o),
(625,445,o),
(625,523,qs),
(625,601,o),
(514,681,o),
(414,681,qs),
(153,681,l)
);
}
);
width = 748;
}
);
leftKerningGroup = B2;
rightKerningGroup = B;
unicode = 66;
},
{
glyphname = C;
layers = (
{
anchors = (
{
name = t.uni0308;
position = "{418, 701}";
},
{
name = b.uni0324_3;
position = "{392, 0}";
}
);
layerId = "B8EF125A-8090-42B9-BB2C-F5A019E05E81";
shapes = (
{
closed = 1;
nodes = (
(335,-16,o),
(192,37,o),
(87,135,o),
(29,269,o),
(29,350,qs),
(29,431,o),
(87,565,o),
(192,663,o),
(335,716,o),
(419,716,qs),
(522,716,o),
(681,644,o),
(733,576,q),
(584,443,l),
(553,482,o),
(478,525,o),
(431,525,qs),
(394,525,o),
(334,501,o),
(291,455,o),
(267,390,o),
(267,350,qs),
(267,310,o),
(291,245,o),
(334,199,o),
(394,175,o),
(431,175,qs),
(478,175,o),
(553,218,o),
(584,257,q),
(733,124,l),
(681,57,o),
(522,-16,o),
(419,-16,qs)
);
}
);
width = 744;
},
{
anchors = (
{
name = t.uni0308;
position = "{422, 701}";
},
{
name = b.uni0324_3;
position = "{385, 0}";
}
);
layerId = "FE17A44E-3763-4243-92C2-150F6AC96B85";
shapes = (
{
closed = 1;
nodes = (
(338,-9,o),
(202,44,o),
(102,141,o),
(46,272,o),
(46,350,qs),
(46,428,o),
(102,559,o),
(203,656,o),
(339,709,o),
(419,709,qs),
(502,709,o),
(642,652,o),
(690,596,q),
(616,524,l),
(577,566,o),
(480,607,o),
(424,607,qs),
(367,607,o),
(271,569,o),
(200,500,o),
(161,406,o),
(161,350,qs),
(161,294,o),
(200,200,o),
(271,131,o),
(367,93,o),
(424,93,qs),
(480,93,o),
(577,134,o),
(616,177,q),
(690,105,l),
(642,49,o),
(502,-9,o),
(418,-9,qs)
);
}
);
width = 725;
},
{
anchors = (
{
name = t.uni0308;
position = "{422, 701}";
},
{
name = b.uni0324_3;
position = "{385, 0}";
}
);
layerId = "321F1C87-2BE4-472A-920D-C7836CF29DEE";
shapes = (
{
closed = 1;
nodes = (
(341,-3,o),
(210,50,o),
(113,146,o),
(59,274,o),
(59,350,qs),
(59,426,o),
(113,554,o),
(210,650,o),
(341,703,o),
(418,703,qs),
(487,703,o),
(611,659,o),
(656,614,q),
(644,600,l),
(596,646,o),
(482,684,o),
(418,684,qs),
(346,684,o),
(222,633,o),
(130,542,o),
(79,421,o),
(79,350,qs),
(79,279,o),
(130,158,o),
(222,67,o),
(346,16,o),
(418,16,qs),
(482,16,o),
(596,55,o),
(644,101,q),
(656,87,l),
(611,42,o),
(487,-3,o),
(418,-3,qs)
);
}
);
width = 711;
}
);
leftKerningGroup = C2;
rightKerningGroup = C;
unicode = 67;
},
{
glyphname = D;
layers = (
{
anchors = (
{
name = t.uni0308;
position = "{359, 700}";
},
{
name = t.uni0307_1;
position = "{206, 355}";
},
{
name = b.uni0324_3;
position = "{361, 0}";
}
);
layerId = "B8EF125A-8090-42B9-BB2C-F5A019E05E81";
shapes = (
{
closed = 1;
nodes = (
(57,0,l),
(57,700,l),
(402,700,ls),
(519,700,o),
(697,615,o),
(797,459,o),
(797,351,qs),
(797,242,o),
(697,85,o),
(519,0,o),
(402,0,qs)
);
},
{
closed = 1;
nodes = (
(293,184,l),
(392,184,ls),
(442,184,o),
(517,222,o),
(559,297,o),
(559,351,qs),
(559,404,o),
(517,478,o),
(442,516,o),
(392,516,qs),
(293,516,l)
);
}
);
width = 826;
},
{
anchors = (
{
name = t.uni0308;
position = "{345, 700}";
},
{
name = t.uni0307_1;
position = "{209, 355}";
},
{
name = b.uni0324_3;
position = "{346, 0}";
}
);
layerId = "FE17A44E-3763-4243-92C2-150F6AC96B85";
shapes = (
{
closed = 1;
nodes = (
(100,0,l),
(100,700,l),
(400,700,ls),
(513,700,o),
(684,612,o),
(780,455,o),
(780,350,qs),
(780,245,o),
(684,88,o),
(513,0,o),
(400,0,qs)
);
},
{
closed = 1;
nodes = (
(214,99,l),
(394,99,ls),
(477,99,o),
(598,162,o),
(665,275,o),
(665,350,qs),
(665,426,o),
(598,538,o),
(477,601,o),
(394,601,qs),
(214,601,l)
);
}
);
width = 826;
},
{
anchors = (
{
name = t.uni0308;
position = "{345, 700}";
},
{
name = t.uni0307_1;
position = "{209, 355}";
},
{
name = b.uni0324_3;
position = "{346, 0}";
}
);
layerId = "321F1C87-2BE4-472A-920D-C7836CF29DEE";
shapes = (
{
closed = 1;
nodes = (
(133,0,l),
(133,700,l),
(398,700,ls),
(509,700,o),
(675,609,o),
(767,451,o),
(767,350,qs),
(767,249,o),
(675,91,o),
(509,0,o),
(398,0,qs)
);
},
{
closed = 1;
nodes = (
(153,19,l),
(396,19,ls),
(503,19,o),
(661,105,o),
(747,254,o),
(747,350,qs),
(747,446,o),
(661,595,o),
(503,681,o),
(396,681,qs),
(153,681,l)
);
}
);
width = 826;
}
);
leftKerningGroup = B2;
rightKerningGroup = D;
unicode = 68;
},
{
glyphname = E;
layers = (
{
anchors = (
{
name = t.uni0308;
position = "{342, 700}";
},
{
name = b.uni0324_3;
position = "{342, 0}";
},
{
name = m.uni0328_4;
position = "{639, 0}";
}
);
layerId = "B8EF125A-8090-42B9-BB2C-F5A019E05E81";
shapes = (
{
closed = 1;
nodes = (
(273,440,l),
(585,440,l),
(585,270,l),
(273,270,l)
);
},
{
closed = 1;
nodes = (
(289,178,l),
(639,178,l),
(639,0,l),
(57,0,l),
(57,700,l),
(626,700,l),
(626,522,l),
(289,522,l)
);
}
);
width = 673;
},
{
anchors = (
{
name = t.uni0308;
position = "{335, 700}";
},
{
name = b.uni0324_3;
position = "{327, 0}";
},
{
name = m.uni0328_4;
position = "{656, 0}";
}
);
layerId = "FE17A44E-3763-4243-92C2-150F6AC96B85";
shapes = (
{
closed = 1;
nodes = (
(205,404,l),
(559,404,l),
(559,307,l),
(205,307,l)
);
},
{
closed = 1;
nodes = (
(214,99,l),
(616,99,l),
(616,0,l),
(100,0,l),
(100,700,l),
(602,700,l),
(602,601,l),
(214,601,l)
);
}
);
width = 670;
},
{
anchors = (
{
name = t.uni0308;
position = "{335, 700}";
},
{
name = b.uni0324_3;
position = "{327, 0}";
},
{
name = m.uni0328_4;
position = "{656, 0}";
}
);
layerId = "321F1C87-2BE4-472A-920D-C7836CF29DEE";
shapes = (
{
closed = 1;
nodes = (
(148,365,l),
(539,365,l),
(539,346,l),
(148,346,l)
);
},
{
closed = 1;
nodes = (
(153,19,l),
(599,19,l),
(599,0,l),
(133,0,l),
(133,700,l),
(584,700,l),
(584,681,l),
(153,681,l)
);
}
);
width = 668;
}
);
leftKerningGroup = B2;
rightKerningGroup = E;
unicode = 69;
},
{
glyphname = F;
layers = (
{
layerId = "B8EF125A-8090-42B9-BB2C-F5A019E05E81";
shapes = (
{
closed = 1;
nodes = (
(277,402,l),
(585,402,l),
(585,224,l),
(277,224,l)
);
},
{
closed = 1;
nodes = (
(293,0,l),
(57,0,l),
(57,700,l),
(626,700,l),
(626,522,l),
(293,522,l)
);
}
);
width = 644;
},
{
layerId = "FE17A44E-3763-4243-92C2-150F6AC96B85";
shapes = (
{
closed = 1;
nodes = (
(204,374,l),
(559,374,l),
(559,275,l),
(204,275,l)
);
},
{
closed = 1;
nodes = (
(214,0,l),
(100,0,l),
(100,700,l),
(602,700,l),
(602,601,l),
(214,601,l)
);
}
);
width = 636;
},
{
layerId = "321F1C87-2BE4-472A-920D-C7836CF29DEE";
shapes = (
{
closed = 1;
nodes = (
(148,345,l),
(539,345,l),
(539,326,l),
(148,326,l)
);
},
{
closed = 1;
nodes = (
(153,0,l),
(133,0,l),
(133,700,l),
(584,700,l),
(584,681,l),
(153,681,l)
);
}
);
width = 629;
}
);
leftKerningGroup = B2;
rightKerningGroup = F;
unicode = 70;
},
{
glyphname = G;
layers = (
{
anchors = (
{
name = t.uni0308;
position = "{424, 701}";
},
{
name = b.uni0324_3;
position = "{410, 0}";
}
);
layerId = "B8EF125A-8090-42B9-BB2C-F5A019E05E81";
shapes = (
{
closed = 1;
nodes = (
(335,-16,o),
(192,37,o),
(87,135,o),
(29,269,o),
(29,350,qs),
(29,431,o),
(87,565,o),
(193,663,o),
(338,716,o),
(425,716,qs),
(529,716,o),
(692,646,o),
(745,581,q),
(594,448,l),
(561,486,o),
(484,525,o),
(437,525,qs),
(398,525,o),
(335,501,o),
(291,455,o),
(267,391,o),
(267,350,qs),
(267,311,o),
(291,246,o),
(335,200,o),
(396,175,o),
(434,175,qs),
(474,175,o),
(550,202,o),
(593,235,q),
(725,73,l),
(661,30,o),
(497,-16,o),
(420,-16,qs)
);
},
{
closed = 1;
nodes = (
(520,103,l),
(520,369,l),
(725,369,l),
(725,73,l)
);
}
);
width = 769;
},
{
anchors = (
{
name = t.uni0308;
position = "{434, 702}";
},
{
name = b.uni0324_3;
position = "{413, 0}";
}
);
layerId = "FE17A44E-3763-4243-92C2-150F6AC96B85";
shapes = (
{
closed = 1;
nodes = (
(340,-9,o),
(203,44,o),
(102,141,o),
(46,272,o),
(46,350,qs),
(46,428,o),
(102,559,o),
(204,656,o),
(341,709,o),
(423,709,qs),
(509,709,o),
(649,653,o),
(698,598,q),
(626,526,l),
(584,568,o),
(486,607,o),
(428,607,qs),
(370,607,o),
(272,569,o),
(200,500,o),
(161,406,o),
(161,350,qs),
(161,295,o),
(200,201,o),
(272,131,o),
(369,93,o),
(427,93,qs),
(481,93,o),
(581,127,o),
(625,167,q),
(690,80,l),
(637,36,o),
(495,-9,o),
(421,-9,qs)
);
},
{
closed = 1;
nodes = (
(580,95,l),
(580,356,l),
(690,356,l),
(690,80,l)
);
}
);
width = 772;
},
{
anchors = (
{
name = t.uni0308;
position = "{434, 702}";
},
{
name = b.uni0324_3;
position = "{413, 0}";
}
);
layerId = "321F1C87-2BE4-472A-920D-C7836CF29DEE";
shapes = (
{
closed = 1;
nodes = (
(343,-3,o),
(211,50,o),
(113,146,o),
(59,274,o),
(59,350,qs),
(59,426,o),
(113,554,o),
(211,650,o),
(343,703,o),
(421,703,qs),
(492,703,o),
(617,659,o),
(662,614,q),
(650,600,l),
(602,646,o),
(487,684,o),
(421,684,qs),
(348,684,o),
(223,633,o),
(130,542,o),
(79,421,o),
(79,350,qs),
(79,279,o),
(130,158,o),
(223,67,o),
(348,16,o),
(421,16,qs),
(487,16,o),
(604,56,o),
(650,102,q),
(662,87,l),
(617,42,o),
(492,-3,o),
(421,-3,qs)
);
},
{
closed = 1;
nodes = (
(643,87,l),
(643,343,l),
(662,343,l),
(662,87,l)
);
}
);
width = 774;
}
);
leftKerningGroup = C2;
rightKerningGroup = G;
unicode = 71;
},
{
glyphname = uni01E4;
layers = (
{
anchors = (
{
name = t.uni0308;
position = "{424, 701}";
},
{
name = b.uni0324_3;
position = "{410, 0}";
}
);
layerId = "B8EF125A-8090-42B9-BB2C-F5A019E05E81";
shapes = (
{
closed = 1;
nodes = (
(388,205,l),
(388,339,l),
(802,339,l),
(802,205,l)
);
},
{
closed = 1;
nodes = (
(335,-16,o),
(192,37,o),
(87,135,o),
(29,269,o),
(29,350,qs),
(29,431,o),
(87,565,o),
(193,663,o),
(338,716,o),
(425,716,qs),
(529,716,o),
(692,646,o),
(745,581,q),
(594,448,l),
(561,486,o),
(484,525,o),
(437,525,qs),
(398,525,o),
(335,501,o),
(291,455,o),
(267,391,o),
(267,350,qs),
(267,311,o),
(291,246,o),
(335,200,o),
(396,175,o),
(434,175,qs),
(474,175,o),
(550,202,o),
(593,235,q),
(725,73,l),
(661,30,o),
(497,-16,o),
(420,-16,qs)
);
},
{
closed = 1;
nodes = (
(520,103,l),
(520,369,l),
(725,369,l),
(725,73,l)
);
}
);
width = 816;
},
{
anchors = (
{
name = t.uni0308;
position = "{434, 702}";
},
{
name = b.uni0324_3;
position = "{413, 0}";
}
);
layerId = "FE17A44E-3763-4243-92C2-150F6AC96B85";
shapes = (
{
closed = 1;
nodes = (
(397,193,l),
(397,283,l),
(785,283,l),
(785,193,l)
);
},
{
closed = 1;
nodes = (
(340,-9,o),
(203,44,o),
(102,141,o),
(46,272,o),
(46,350,qs),
(46,428,o),
(102,559,o),
(204,656,o),
(341,709,o),
(423,709,qs),
(509,709,o),
(649,653,o),
(698,598,q),
(626,526,l),
(584,568,o),
(486,607,o),
(428,607,qs),
(370,607,o),
(272,569,o),
(200,500,o),
(161,406,o),
(161,350,qs),
(161,295,o),
(200,201,o),
(272,131,o),
(369,93,o),
(427,93,qs),
(481,93,o),
(581,127,o),
(625,167,q),
(690,80,l),
(637,36,o),
(495,-9,o),
(421,-9,qs)
);
},
{
closed = 1;
nodes = (
(580,95,l),
(580,356,l),
(690,356,l),
(690,80,l)
);
}
);
width = 808;
},
{
anchors = (
{
name = t.uni0308;
position = "{434, 702}";
},
{
name = b.uni0324_3;
position = "{413, 0}";
}
);
layerId = "321F1C87-2BE4-472A-920D-C7836CF29DEE";
shapes = (
{
closed = 1;
nodes = (
(420,224,l),
(420,243,l),
(780,243,l),
(780,224,l)
);
},
{
closed = 1;
nodes = (
(343,-3,o),
(211,50,o),
(113,146,o),
(59,274,o),
(59,350,qs),
(59,426,o),
(113,554,o),
(211,650,o),
(343,703,o),
(421,703,qs),
(492,703,o),
(617,659,o),
(662,614,q),
(650,600,l),
(602,646,o),
(487,684,o),
(421,684,qs),
(348,684,o),
(223,633,o),
(130,542,o),
(79,421,o),
(79,350,qs),
(79,279,o),
(130,158,o),
(223,67,o),
(348,16,o),
(421,16,qs),
(487,16,o),
(604,56,o),
(650,102,q),
(662,87,l),
(617,42,o),
(492,-3,o),
(421,-3,qs)
);
},
{
closed = 1;
nodes = (
(643,87,l),
(643,343,l),
(662,343,l),
(662,87,l)
);
}
);
width = 804;
}
);
leftKerningGroup = C2;
rightKerningGroup = G;
unicode = 484;
},
{
glyphname = H;
layers = (
{
anchors = (
{
name = t.uni0308;
position = "{402, 700}";
},
{
name = t.uni0307_1;
position = "{402, 576}";
},
{
name = b.uni0324_3;
position = "{402, 0}";
}
);
layerId = "B8EF125A-8090-42B9-BB2C-F5A019E05E81";
shapes = (
{
closed = 1;
nodes = (
(511,700,l),
(747,700,l),
(747,0,l),
(511,0,l)
);
},
{
closed = 1;
nodes = (
(293,0,l),
(57,0,l),
(57,700,l),
(293,700,l)
);
},
{
closed = 1;
nodes = (
(527,258,l),
(277,258,l),
(277,452,l),
(527,452,l)
);
}
);
width = 804;
},
{
anchors = (
{
name = t.uni0308;
position = "{399, 700}";
},
{
name = t.uni0307_1;
position = "{399, 594}";
},
{
name = b.uni0324_3;
position = "{399, 0}";
}
);
layerId = "FE17A44E-3763-4243-92C2-150F6AC96B85";
shapes = (
{
closed = 1;
nodes = (
(597,700,l),
(711,700,l),
(711,0,l),
(597,0,l)
);
},
{
closed = 1;
nodes = (
(214,0,l),
(100,0,l),
(100,700,l),
(214,700,l)
);
},
{
closed = 1;
nodes = (
(606,306,l),
(204,306,l),
(204,405,l),
(606,405,l)
);
}
);
width = 811;
},
{
anchors = (
{
name = t.uni0308;
position = "{399, 700}";
},
{
name = t.uni0307_1;
position = "{399, 594}";
},
{
name = b.uni0324_3;
position = "{399, 0}";
}
);
layerId = "321F1C87-2BE4-472A-920D-C7836CF29DEE";
shapes = (
{
closed = 1;
nodes = (
(663,700,l),
(683,700,l),
(683,0,l),
(663,0,l)
);
},
{
closed = 1;
nodes = (
(153,0,l),
(133,0,l),
(133,700,l),
(153,700,l)
);
},
{
closed = 1;
nodes = (
(668,346,l),
(148,346,l),
(148,365,l),
(668,365,l)
);
}
);
width = 816;
}
);
leftKerningGroup = B2;
rightKerningGroup = H;
unicode = 72;
},
{
glyphname = I;
layers = (
{
anchors = (
{
name = t.uni0308;
position = "{175, 700}";
},
{
name = b.uni0324_3;
position = "{175, 0}";
},
{
name = m.uni0328_4;
position = "{293, 0}";
}
);
layerId = "B8EF125A-8090-42B9-BB2C-F5A019E05E81";
shapes = (
{
closed = 1;
nodes = (
(57,0,l),
(57,700,l),
(293,700,l),
(293,0,l)
);
}
);
width = 350;
},
{
anchors = (
{
name = t.uni0308;
position = "{189, 700}";
},
{
name = b.uni0324_3;
position = "{189, 0}";
},
{
name = m.uni0328_4;
position = "{354, 0}";
}
);
layerId = "FE17A44E-3763-4243-92C2-150F6AC96B85";
shapes = (
{
closed = 1;
nodes = (
(100,0,l),
(100,700,l),
(214,700,l),
(214,0,l)
);
}
);
width = 314;
},
{
anchors = (
{
name = t.uni0308;
position = "{189, 700}";
},
{
name = b.uni0324_3;
position = "{189, 0}";
},
{
name = m.uni0328_4;
position = "{354, 0}";
}
);
layerId = "321F1C87-2BE4-472A-920D-C7836CF29DEE";
shapes = (
{
closed = 1;
nodes = (
(133,0,l),
(133,700,l),
(153,700,l),
(153,0,l)
);
}
);
width = 286;
}
);
leftKerningGroup = B2;
rightKerningGroup = H;
unicode = 73;
},
{
glyphname = IJ;
layers = (
{
anchors = (
{
name = t.uni0308;
position = "{169, 700}";
}
);
layerId = "B8EF125A-8090-42B9-BB2C-F5A019E05E81";
shapes = (
{
closed = 1;
nodes = (
(238,-16,o),
(86,30,o),
(31,69,q),
(117,236,l),
(167,205,o),
(273,172,o),
(317,172,qs),
(382,172,o),
(442,239,o),
(442,312,qs),
(442,700,l),
(678,700,l),
(678,325,ls),
(678,215,o),
(591,63,o),
(433,-16,o),
(328,-16,qs)
);
},
{
closed = 1;
nodes = (
(51,336,l),
(51,700,l),
(287,700,l),
(287,336,l)
);
}
);
width = 729;
},
{
anchors = (
{
name = t.uni0308;
position = "{153, 700}";
}
);
layerId = "FE17A44E-3763-4243-92C2-150F6AC96B85";
shapes = (
{
closed = 1;
nodes = (
(254,-9,o),
(128,31,o),
(81,63,q),
(125,155,l),
(169,125,o),
(274,93,o),
(329,93,qs),
(418,93,o),
(513,196,o),
(513,303,qs),
(513,700,l),
(627,700,l),
(627,309,ls),
(627,205,o),
(552,63,o),
(418,-9,o),
(327,-9,qs)
);
},
{
closed = 1;
nodes = (
(94,312,l),
(94,700,l),
(208,700,l),
(208,312,l)
);
}
);
width = 721;
},
{
anchors = (
{
name = t.uni0308;
position = "{153, 700}";
}
);
layerId = "321F1C87-2BE4-472A-920D-C7836CF29DEE";
shapes = (
{
closed = 1;
nodes = (
(267,-3,o),
(161,34,o),
(120,62,q),
(132,78,l),
(172,49,o),
(272,16,o),
(328,16,qs),
(439,16,o),
(567,154,o),
(567,294,qs),
(567,700,l),
(587,700,l),
(587,293,ls),
(587,194,o),
(522,63,o),
(406,-3,o),
(327,-3,qs)
);
},
{
closed = 1;
nodes = (
(127,290,l),
(127,700,l),
(147,700,l),
(147,290,l)
);
}
);
width = 714;
}
);
leftKerningGroup = B2;
rightKerningGroup = J;
unicode = 306;
},
{
glyphname = J;
layers = (
{
anchors = (
{
name = t.uni0308;
position = "{288, 700}";
}
);
layerId = "B8EF125A-8090-42B9-BB2C-F5A019E05E81";
shapes = (
{
closed = 1;
nodes = (
(152,-16,o),
(20,37,o),
(-24,88,q),
(103,238,l),
(131,204,o),
(185,169,o),
(214,169,qs),
(290,169,o),
(290,256,qs),
(290,522,l),
(52,522,l),
(52,700,l),
(523,700,l),
(523,270,ls),
(523,126,o),
(375,-16,o),
(234,-16,qs)
);
}
);
width = 574;
},
{
anchors = (
{
name = t.uni0308;
position = "{323, 700}";
}
);
layerId = "FE17A44E-3763-4243-92C2-150F6AC96B85";
shapes = (
{
closed = 1;
nodes = (
(134,-9,o),
(24,43,o),
(-11,92,q),
(55,171,l),
(84,131,o),
(155,90,o),
(198,90,qs),
(312,90,o),
(312,225,qs),
(312,601,l),
(61,601,l),
(61,700,l),
(426,700,l),
(426,231,ls),
(426,110,o),
(310,-9,o),
(198,-9,qs)
);
}
);
width = 520;
},
{
anchors = (
{
name = t.uni0308;
position = "{323, 700}";
}
);
layerId = "321F1C87-2BE4-472A-920D-C7836CF29DEE";
shapes = (
{
closed = 1;
nodes = (
(125,-3,o),
(32,50,o),
(4,96,q),
(18,108,l),
(47,64,o),
(130,16,o),
(179,16,qs),
(330,16,o),
(330,196,qs),
(330,681,l),
(68,681,l),
(68,700,l),
(350,700,l),
(350,194,ls),
(350,96,o),
(264,-3,o),
(178,-3,qs)
);
}
);
width = 477;
}
);
leftKerningGroup = J2;
rightKerningGroup = J;
unicode = 74;
},
{
glyphname = K;
layers = (
{
anchors = (
{
name = t.uni0308;
position = "{384, 700}";
},
{
name = b.uni0324_3;
position = "{384, 0}";
}
);
layerId = "B8EF125A-8090-42B9-BB2C-F5A019E05E81";
shapes = (
{
closed = 1;
nodes = (
(268,150,l),
(255,409,l),
(519,700,l),
(776,700,l),
(480,374,l),
(349,240,l)
);
},
{
closed = 1;
nodes = (
(57,0,l),
(57,700,l),
(289,700,l),
(289,0,l)
);
},
{
closed = 1;
nodes = (
(517,0,l),
(311,272,l),
(464,434,l),
(790,0,l)
);
}
);
width = 765;
},
{
anchors = (
{
name = t.uni0308;
position = "{390, 700}";
},
{
name = b.uni0324_3;
position = "{390, 0}";
}
);
layerId = "FE17A44E-3763-4243-92C2-150F6AC96B85";
shapes = (
{
closed = 1;
nodes = (
(201,167,l),
(195,306,l),
(577,700,l),
(707,700,l),
(401,376,l),
(337,305,l)
);
},
{
closed = 1;
nodes = (
(100,0,l),
(100,700,l),
(214,700,l),
(214,0,l)
);
},
{
closed = 1;
nodes = (
(592,0,l),
(314,326,l),
(390,411,l),
(726,0,l)
);
}
);
width = 724;
},
{
anchors = (
{
name = t.uni0308;
position = "{390, 700}";
},
{
name = b.uni0324_3;
position = "{390, 0}";
}
);
layerId = "321F1C87-2BE4-472A-920D-C7836CF29DEE";
shapes = (
{
closed = 1;
nodes = (
(149,182,l),
(149,209,l),
(627,700,l),
(654,700,l),
(340,377,l),
(328,366,l)
);
},
{
closed = 1;
nodes = (
(133,0,l),
(133,700,l),
(153,700,l),
(153,0,l)
);
},
{
closed = 1;
nodes = (
(650,0,l),
(317,377,l),
(332,390,l),
(677,0,l)
);
}
);
width = 693;
}
);
leftKerningGroup = B2;
rightKerningGroup = K;
unicode = 75;
},
{
glyphname = L;
layers = (
{
anchors = (
{
name = t.uni0308;
position = "{175, 700}";
},
{
name = t.periodcentered.loclCAT;
position = "{484, 441}";
},
{
name = t.uni0307_1;
position = "{175, 400}";
},
{
name = t.uni031B_2;
position = "{423, 700}";
},
{
name = b.uni0324_3;
position = "{345, 0}";
}
);
layerId = "B8EF125A-8090-42B9-BB2C-F5A019E05E81";
shapes = (
{
closed = 1;
nodes = (
(57,0,l),
(57,700,l),
(293,700,l),
(293,183,l),
(609,183,l),
(609,0,l)
);
}
);
width = 617;
},
{
anchors = (
{
name = t.uni0308;
position = "{189, 700}";
},
{
name = t.periodcentered.loclCAT;
position = "{506, 480}";
},
{
name = t.uni0307_1;
position = "{189, 419}";
},
{
name = t.uni031B_2;
position = "{413, 700}";
},
{
name = b.uni0324_3;
position = "{338, 0}";
}
);
layerId = "FE17A44E-3763-4243-92C2-150F6AC96B85";
shapes = (
{
closed = 1;
nodes = (
(100,0,l),
(100,700,l),
(214,700,l),
(214,99,l),
(587,99,l),
(587,0,l)
);
}
);
width = 596;
},
{
anchors = (
{
name = t.uni0308;
position = "{189, 700}";
},
{
name = t.periodcentered.loclCAT;
position = "{506, 480}";
},
{
name = t.uni0307_1;
position = "{189, 419}";
},
{
name = t.uni031B_2;
position = "{413, 700}";
},
{
name = b.uni0324_3;
position = "{338, 0}";
}
);
layerId = "321F1C87-2BE4-472A-920D-C7836CF29DEE";
shapes = (
{
closed = 1;
nodes = (
(133,0,l),
(133,700,l),
(153,700,l),
(153,19,l),
(570,19,l),
(570,0,l)
);
}
);
width = 580;
}
);
leftKerningGroup = B2;
rightKerningGroup = L;
unicode = 76;
},
{
glyphname = M;
layers = (
{
anchors = (
{
name = t.uni0308;
position = "{476, 700}";
},
{
name = b.uni0324_3;
position = "{476, 0}";
}
);
layerId = "B8EF125A-8090-42B9-BB2C-F5A019E05E81";
shapes = (
{
closed = 1;
nodes = (
(57,0,l),
(57,700,l),
(251,700,l),
(531,243,l),
(429,243,l),
(701,700,l),
(895,700,l),
(897,0,l),
(682,0,l),
(680,376,l),
(714,376,l),
(528,63,l),
(424,63,l),
(230,376,l),
(272,376,l),
(272,0,l)
);
}
);
width = 954;
},
{
anchors = (
{
name = t.uni0308;
position = "{475, 700}";
},
{
name = b.uni0324_3;
position = "{475, 0}";
}
);
layerId = "FE17A44E-3763-4243-92C2-150F6AC96B85";
shapes = (
{
closed = 1;
nodes = (
(100,0,l),
(100,700,l),
(194,700,l),
(504,181,l),
(454,181,l),
(760,700,l),
(854,700,l),
(855,0,l),
(745,0,l),
(744,526,l),
(769,526,l),
(503,82,l),
(451,82,l),
(182,526,l),
(210,526,l),
(210,0,l)
);
}
);
width = 955;
},
{
anchors = (
{
name = t.uni0308;
position = "{475, 700}";
},
{
name = b.uni0324_3;
position = "{475, 0}";
}
);
layerId = "321F1C87-2BE4-472A-920D-C7836CF29DEE";
shapes = (
{
closed = 1;
nodes = (
(133,0,l),
(133,700,l),
(150,700,l),
(483,118,l),
(474,118,l),
(806,700,l),
(823,700,l),
(823,0,l),
(803,0,l),
(803,671,l),
(811,671,l),
(484,99,l),
(472,99,l),
(144,671,l),
(153,671,l),
(153,0,l)
);
}
);
width = 956;
}
);
leftKerningGroup = B2;
rightKerningGroup = H;
unicode = 77;
},
{
glyphname = N;
layers = (
{
anchors = (
{
name = t.uni0308;
position = "{402, 700}";
},
{
name = b.uni0324_3;
position = "{402, 0}";
}
);
layerId = "B8EF125A-8090-42B9-BB2C-F5A019E05E81";
shapes = (
{
closed = 1;
nodes = (
(57,0,l),
(57,700,l),
(251,700,l),
(607,274,l),
(517,274,l),
(517,700,l),
(747,700,l),
(747,0,l),
(553,0,l),
(197,426,l),
(287,426,l),
(287,0,l)
);
}
);
width = 804;
},
{
anchors = (
{
name = t.uni0308;
position = "{399, 700}";
},
{
name = b.uni0324_3;
position = "{399, 0}";
}
);
layerId = "FE17A44E-3763-4243-92C2-150F6AC96B85";
shapes = (
{
closed = 1;
nodes = (
(100,0,l),
(100,700,l),
(194,700,l),
(645,144,l),
(597,144,l),
(597,700,l),
(711,700,l),
(711,0,l),
(617,0,l),
(166,556,l),
(214,556,l),
(214,0,l)
);
}
);
width = 811;
},
{
anchors = (
{
name = t.uni0308;
position = "{399, 700}";
},
{
name = b.uni0324_3;
position = "{399, 0}";
}
);
layerId = "321F1C87-2BE4-472A-920D-C7836CF29DEE";
shapes = (
{
closed = 1;
nodes = (
(133,0,l),
(133,700,l),
(150,700,l),
(674,23,l),
(663,23,l),
(663,700,l),
(683,700,l),
(683,0,l),
(666,0,l),
(142,677,l),
(153,677,l),
(153,0,l)
);
}
);
width = 816;
}
);
leftKerningGroup = B2;
rightKerningGroup = H;
unicode = 78;
},
{
glyphname = Eng;
layers = (
{
layerId = "B8EF125A-8090-42B9-BB2C-F5A019E05E81";
shapes = (
{
closed = 1;
nodes = (
(57,0,l),
(57,700,l),
(251,700,l),
(607,274,l),
(553,0,l),
(197,426,l),
(287,426,l),
(287,0,l)
);
},
{
closed = 1;
nodes = (
(404,-204,o),
(305,-180,o),
(264,-153,q),
(372,5,l),
(389,-7,o),
(423,-20,o),
(441,-20,qs),
(517,-20,o),
(517,67,qs),
(517,700,l),
(747,700,l),
(747,102,ls),
(747,-57,o),
(602,-204,o),
(461,-204,qs)
);
}
);
width = 804;
},
{
layerId = "FE17A44E-3763-4243-92C2-150F6AC96B85";
shapes = (
{
closed = 1;
nodes = (
(100,0,l),
(100,700,l),
(194,700,l),
(645,144,l),
(617,0,l),
(166,556,l),
(214,556,l),
(214,0,l)
);
},
{
closed = 1;
nodes = (
(433,-200,o),
(339,-162,o),
(305,-125,q),
(360,-42,l),
(384,-70,o),
(447,-102,o),
(486,-102,qs),
(597,-102,o),
(597,34,qs),
(597,700,l),
(711,700,l),
(711,50,ls),
(711,-78,o),
(597,-200,o),
(486,-200,qs)
);
}
);
width = 811;
},
{
layerId = "321F1C87-2BE4-472A-920D-C7836CF29DEE";
shapes = (
{
closed = 1;
nodes = (
(133,0,l),
(133,700,l),
(150,700,l),
(674,23,l),
(666,0,l),
(142,677,l),
(153,677,l),
(153,0,l)
);
},
{
closed = 1;
nodes = (
(458,-197,o),
(365,-144,o),
(337,-98,q),
(351,-86,l),
(380,-130,o),
(463,-178,o),
(512,-178,qs),
(663,-178,o),
(663,2,qs),
(663,700,l),
(683,700,l),
(683,0,ls),
(683,-98,o),
(597,-197,o),
(511,-197,qs)
);
}
);
width = 816;
}
);
leftKerningGroup = B2;
rightKerningGroup = H;
unicode = 330;
},
{
glyphname = O;
layers = (
{
anchors = (
{
name = t.uni0308;
position = "{424, 700}";
},
{
name = t.uni0307_1;
position = "{424, 350}";
},
{
name = t.uni031B_2;
position = "{590, 700}";
},
{
name = b.uni0324_3;
position = "{424, 0}";
},
{
name = m.uni0328_4;
position = "{547, 0}";
}
);
layerId = "B8EF125A-8090-42B9-BB2C-F5A019E05E81";
shapes = (
{
closed = 1;
nodes = (
(339,-16,o),
(194,38,o),
(88,137,o),
(29,271,o),
(29,350,qs),
(29,430,o),
(88,563,o),
(194,662,o),
(339,716,o),
(424,716,qs),
(510,716,o),
(654,662,o),
(760,563,o),
(819,430,o),
(819,350,qs),
(819,271,o),
(760,137,o),
(654,38,o),
(510,-16,o),
(425,-16,qs)
);
},
{
closed = 1;
nodes = (
(457,175,o),
(514,199,o),
(557,244,o),
(581,309,o),
(581,350,qs),
(581,391,o),
(557,456,o),
(514,501,o),
(457,525,o),
(424,525,qs),
(391,525,o),
(334,501,o),
(291,456,o),
(267,391,o),
(267,350,qs),
(267,309,o),
(291,244,o),
(334,199,o),
(391,175,o),
(424,175,qs)
);
}
);
width = 848;
},
{
anchors = (
{
name = t.uni0308;
position = "{427, 700}";
},
{
name = t.uni0307_1;
position = "{427, 350}";
},
{
name = t.uni031B_2;
position = "{556, 700}";
},
{
name = b.uni0324_3;
position = "{427, 0}";
},
{
name = m.uni0328_4;
position = "{581, 0}";
}
);
layerId = "FE17A44E-3763-4243-92C2-150F6AC96B85";
shapes = (
{
closed = 1;
nodes = (
(340,-9,o),
(203,45,o),
(102,142,o),
(46,273,o),
(46,350,qs),
(46,427,o),
(102,558,o),
(203,655,o),
(340,709,o),
(421,709,qs),
(502,709,o),
(638,656,o),
(739,559,o),
(795,428,o),
(795,350,qs),
(795,272,o),
(739,141,o),
(638,44,o),
(502,-9,o),
(421,-9,qs)
);
},
{
closed = 1;
nodes = (
(477,93,o),
(571,131,o),
(641,201,o),
(680,295,o),
(680,350,qs),
(680,406,o),
(641,499,o),
(571,569,o),
(477,607,o),
(421,607,qs),
(365,607,o),
(270,569,o),
(200,499,o),
(161,406,o),
(161,350,qs),
(161,295,o),
(200,201,o),
(270,131,o),
(365,93,o),
(421,93,qs)
);
}
);
width = 841;
},
{
anchors = (
{
name = t.uni0308;
position = "{427, 700}";
},
{
name = t.uni0307_1;
position = "{427, 350}";
},
{
name = t.uni031B_2;
position = "{556, 700}";
},
{
name = b.uni0324_3;
position = "{427, 0}";
},
{
name = m.uni0328_4;
position = "{581, 0}";
}
);
layerId = "321F1C87-2BE4-472A-920D-C7836CF29DEE";
shapes = (
{
closed = 1;
nodes = (
(341,-3,o),
(210,50,o),
(113,146,o),
(59,274,o),
(59,350,qs),
(59,426,o),
(113,554,o),
(210,650,o),
(341,703,o),
(418,703,qs),
(495,703,o),
(626,650,o),
(723,554,o),
(777,426,o),
(777,350,qs),
(777,274,o),
(723,146,o),
(626,50,o),
(495,-3,o),
(418,-3,qs)
);
},
{
closed = 1;
nodes = (
(490,16,o),
(614,66,o),
(706,157,o),
(757,278,o),
(757,350,qs),
(757,422,o),
(706,543,o),
(614,634,o),
(490,684,o),
(418,684,qs),
(346,684,o),
(222,634,o),
(130,543,o),
(79,422,o),
(79,350,qs),
(79,278,o),
(130,157,o),
(222,66,o),
(346,16,o),
(418,16,qs)
);
}
);
width = 836;
}
);
leftKerningGroup = C2;
rightKerningGroup = D;
unicode = 79;
},
{
glyphname = Ohorn;
layers = (
{
anchors = (
{
name = t.uni0308;
position = "{424, 700}";
},
{
name = b.uni0324_3;
position = "{424, 0}";
}
);
layerId = "B8EF125A-8090-42B9-BB2C-F5A019E05E81";
shapes = (
{
closed = 1;
nodes = (
(339,-16,o),
(194,38,o),
(88,137,o),
(29,271,o),
(29,350,qs),
(29,430,o),
(88,563,o),
(196,662,o),
(345,716,o),
(434,716,qs),
(487,716,o),
(577,703,o),
(608,703,qs),
(638,703,o),
(675,733,o),
(675,761,qs),
(675,778,o),
(664,808,o),
(655,818,q),
(783,863,l),
(800,841,o),
(820,786,o),
(820,752,qs),
(820,663,o),
(699,574,o),
(600,574,qs),
(551,574,o),
(465,586,o),
(424,591,q),
(684,625,l),
(725,595,o),
(786,511,o),
(819,409,o),
(819,350,qs),
(819,271,o),
(760,137,o),
(654,38,o),
(510,-16,o),
(424,-16,qs)
);
},
{
closed = 1;
nodes = (
(457,175,o),
(514,199,o),
(557,244,o),
(581,309,o),
(581,350,qs),
(581,391,o),
(557,456,o),
(514,501,o),
(457,525,o),
(424,525,qs),
(391,525,o),
(334,501,o),
(291,456,o),
(267,391,o),
(267,350,qs),
(267,309,o),
(291,244,o),
(334,199,o),
(391,175,o),
(424,175,qs)
);
}
);
width = 848;
},
{
anchors = (
{
name = t.uni0308;
position = "{427, 700}";
},
{
name = b.uni0324_3;
position = "{427, 0}";
}
);
layerId = "FE17A44E-3763-4243-92C2-150F6AC96B85";
shapes = (
{
closed = 1;
nodes = (
(340,-9,o),
(203,45,o),
(102,142,o),
(46,273,o),
(46,350,qs),
(46,428,o),
(102,559,o),
(204,656,o),
(343,709,o),
(425,709,qs),
(484,709,o),
(573,695,o),
(614,695,qs),
(658,695,o),
(706,731,o),
(706,766,qs),
(706,784,o),
(694,815,o),
(686,828,q),
(754,854,l),
(768,835,o),
(783,788,o),
(783,762,qs),
(783,697,o),
(692,624,o),
(609,624,qs),
(578,624,o),
(511,632,o),
(481,636,q),
(626,653,l),
(676,625,o),
(752,534,o),
(795,417,o),
(795,350,qs),
(795,272,o),
(739,141,o),
(638,44,o),
(502,-9,o),
(421,-9,qs)
);
},
{
closed = 1;
nodes = (
(477,93,o),
(571,132,o),
(641,201,o),
(680,295,o),
(680,350,qs),
(680,405,o),
(641,499,o),
(571,568,o),
(477,607,o),
(421,607,qs),
(365,607,o),
(270,569,o),
(200,499,o),
(161,406,o),
(161,350,qs),
(161,295,o),
(200,201,o),
(270,131,o),
(365,93,o),
(421,93,qs)
);
}
);
width = 841;
},
{
anchors = (
{
name = t.uni0308;
position = "{427, 700}";
},
{
name = b.uni0324_3;
position = "{427, 0}";
}
);
layerId = "321F1C87-2BE4-472A-920D-C7836CF29DEE";
shapes = (
{
closed = 1;
nodes = (
(341,-3,o),
(210,50,o),
(113,146,o),
(59,274,o),
(59,350,qs),
(59,426,o),
(113,554,o),
(210,650,o),
(341,703,o),
(418,703,qs),
(483,703,o),
(578,688,o),
(627,688,qs),
(683,688,o),
(737,729,o),
(737,770,qs),
(737,790,o),
(725,823,o),
(717,837,q),
(735,845,l),
(745,830,o),
(757,791,o),
(757,771,qs),
(757,720,o),
(692,669,o),
(627,669,qs),
(611,669,o),
(557,673,o),
(535,677,q),
(548,680,l),
(618,656,o),
(721,558,o),
(777,426,o),
(777,350,qs),
(777,274,o),
(723,146,o),
(626,50,o),
(495,-3,o),
(418,-3,qs)
);
},
{
closed = 1;
nodes = (
(490,16,o),
(614,67,o),
(706,158,o),
(757,279,o),
(757,350,qs),
(757,421,o),
(706,542,o),
(614,633,o),
(490,684,o),
(418,684,qs),
(346,684,o),
(222,633,o),
(130,542,o),
(79,421,o),
(79,350,qs),
(79,279,o),
(130,158,o),
(222,67,o),
(346,16,o),
(418,16,qs)
);
}
);
width = 836;
}
);
leftKerningGroup = C2;
rightKerningGroup = D;
unicode = 416;
},
{
glyphname = uni01EA;
layers = (
{
anchors = (
{
name = t.uni0308;
position = "{424, 700}";
}
);
layerId = "B8EF125A-8090-42B9-BB2C-F5A019E05E81";
shapes = (
{
closed = 1;
nodes = (
(384,-240,o),
(301,-173,o),
(301,-117,qs),
(301,-80,o),
(340,-17,o),
(415,33,o),
(468,49,q),
(480,-13,l),
(461,-14,o),
(435,-16,o),
(424,-16,qs),
(339,-16,o),
(194,38,o),
(88,137,o),
(29,271,o),
(29,350,qs),
(29,430,o),
(88,563,o),
(194,662,o),
(339,716,o),
(424,716,qs),
(510,716,o),
(654,662,o),
(760,563,o),
(819,430,o),
(819,350,qs),
(819,264,o),
(752,126,o),
(637,30,o),
(564,5,qs),
(514,-12,o),
(456,-46,o),
(433,-80,o),
(433,-97,qs),
(433,-114,o),
(458,-138,o),
(486,-138,qs),
(503,-138,o),
(534,-129,o),
(545,-124,q),
(572,-217,l),
(554,-227,o),
(491,-240,o),
(459,-240,qs)
);
},
{
closed = 1;
nodes = (
(457,175,o),
(514,199,o),
(557,244,o),
(581,309,o),
(581,350,qs),
(581,391,o),
(557,456,o),
(514,501,o),
(457,525,o),
(424,525,qs),
(391,525,o),
(334,501,o),
(291,456,o),
(267,391,o),
(267,350,qs),
(267,309,o),
(291,244,o),
(334,199,o),
(391,175,o),
(424,175,qs)
);
}
);
width = 848;
},
{
anchors = (
{
name = t.uni0308;
position = "{427, 700}";
}
);
layerId = "FE17A44E-3763-4243-92C2-150F6AC96B85";
shapes = (
{
closed = 1;
nodes = (
(373,-226,o),
(307,-168,o),
(307,-122,qs),
(307,-94,o),
(334,-37,o),
(398,15,o),
(451,35,q),
(458,-7,l),
(447,-8,o),
(429,-9,o),
(421,-9,qs),
(340,-9,o),
(204,44,o),
(102,141,o),
(46,272,o),
(46,350,qs),
(46,428,o),
(102,559,o),
(204,656,o),
(340,709,o),
(421,709,qs),
(502,709,o),
(638,656,o),
(739,559,o),
(795,428,o),
(795,350,qs),
(795,261,o),
(724,120,o),
(603,26,o),
(528,6,qs),
(483,-6,o),
(418,-43,o),
(384,-88,o),
(384,-113,qs),
(384,-137,o),
(418,-163,o),
(444,-163,qs),
(460,-163,o),
(493,-154,o),
(505,-147,q),
(525,-203,l),
(506,-213,o),
(458,-226,o),
(432,-226,qs)
);
},
{
closed = 1;
nodes = (
(477,93,o),
(571,131,o),
(641,201,o),
(680,295,o),
(680,350,qs),
(680,406,o),
(641,499,o),
(571,569,o),
(477,607,o),
(421,607,qs),
(365,607,o),
(270,569,o),
(200,499,o),
(161,406,o),
(161,350,qs),
(161,295,o),
(200,201,o),
(270,131,o),
(365,93,o),
(421,93,qs)
);
}
);
width = 841;
},
{
anchors = (
{
name = t.uni0308;
position = "{427, 700}";
}
);
layerId = "321F1C87-2BE4-472A-920D-C7836CF29DEE";
shapes = (
{
closed = 1;
nodes = (
(374,-213,o),
(322,-169,o),
(322,-130,qs),
(322,-109,o),
(344,-60,o),
(404,-8,o),
(459,16,q),
(441,-1,l),
(435,-2,o),
(424,-3,o),
(418,-3,qs),
(341,-3,o),
(210,50,o),
(113,146,o),
(59,274,o),
(59,350,qs),
(59,426,o),
(113,554,o),
(210,650,o),
(341,703,o),
(418,703,qs),
(495,703,o),
(626,650,o),
(723,554,o),
(777,426,o),
(777,350,qs),
(777,258,o),
(701,113,o),
(576,21,o),
(500,6,qs),
(459,-2,o),
(387,-42,o),
(342,-97,o),
(342,-130,qs),
(342,-162,o),
(383,-194,o),
(414,-194,qs),
(431,-194,o),
(464,-182,o),
(476,-171,q),
(487,-186,l),
(471,-200,o),
(434,-213,o),
(413,-213,qs)
);
},
{
closed = 1;
nodes = (
(490,16,o),
(614,66,o),
(706,157,o),
(757,278,o),
(757,350,qs),
(757,422,o),
(706,543,o),
(614,634,o),
(490,684,o),
(418,684,qs),
(346,684,o),
(222,634,o),
(130,543,o),
(79,422,o),
(79,350,qs),
(79,278,o),
(130,157,o),
(222,66,o),
(346,16,o),
(418,16,qs)
);
}
);
width = 836;
}
);
leftKerningGroup = C2;
rightKerningGroup = D;
unicode = 490;
},
{
glyphname = OE;
layers = (
{
anchors = (
{
name = t.uni0308;
position = "{649, 700}";
},
{
name = b.uni0324_3;
position = "{649, 0}";
}
);
layerId = "B8EF125A-8090-42B9-BB2C-F5A019E05E81";
shapes = (
{
closed = 1;
nodes = (
(424,0,ls),
(307,0,o),
(129,85,o),
(29,242,o),
(29,351,qs),
(29,459,o),
(129,615,o),
(307,700,o),
(424,700,qs),
(593,700,l),
(593,516,l),
(434,516,ls),
(385,516,o),
(309,478,o),
(267,404,o),
(267,351,qs),
(267,297,o),
(309,222,o),
(385,184,o),
(434,184,qs),
(593,184,l),
(593,0,l)
);
},
{
closed = 1;
nodes = (
(749,440,l),
(1061,440,l),
(1061,270,l),
(749,270,l)
);
},
{
closed = 1;
nodes = (
(765,178,l),
(1115,178,l),
(1115,0,l),
(533,0,l),
(533,700,l),
(1102,700,l),
(1102,522,l),
(765,522,l)
);
}
);
width = 1149;
},
{
anchors = (
{
name = t.uni0308;
position = "{676, 700}";
},
{
name = b.uni0324_3;
position = "{676, 0}";
}
);
layerId = "FE17A44E-3763-4243-92C2-150F6AC96B85";
shapes = (
{
closed = 1;
nodes = (
(426,0,ls),
(313,0,o),
(142,88,o),
(46,245,o),
(46,349,qs),
(46,454,o),
(142,612,o),
(313,700,o),
(426,700,qs),
(587,700,l),
(587,601,l),
(432,601,ls),
(350,601,o),
(228,538,o),
(161,425,o),
(161,350,qs),
(161,274,o),
(228,162,o),
(350,99,o),
(432,99,qs),
(587,99,l),
(587,0,l)
);
},
{
closed = 1;
nodes = (
(663,404,l),
(1017,404,l),
(1017,307,l),
(663,307,l)
);
},
{
closed = 1;
nodes = (
(672,99,l),
(1074,99,l),
(1074,0,l),
(558,0,l),
(558,700,l),
(1060,700,l),
(1060,601,l),
(672,601,l)
);
}
);
width = 1128;
},
{
anchors = (
{
name = t.uni0308;
position = "{676, 700}";
},
{
name = b.uni0324_3;
position = "{676, 0}";
}
);
layerId = "321F1C87-2BE4-472A-920D-C7836CF29DEE";
shapes = (
{
closed = 1;
nodes = (
(428,0,ls),
(318,0,o),
(152,90,o),
(59,248,o),
(59,349,qs),
(59,450,o),
(152,609,o),
(318,700,o),
(428,700,qs),
(583,700,l),
(583,681,l),
(428,681,ls),
(323,681,o),
(166,595,o),
(79,445,o),
(79,349,qs),
(79,253,o),
(166,104,o),
(323,19,o),
(428,19,qs),
(583,19,l),
(583,0,l)
);
},
{
closed = 1;
nodes = (
(592,365,l),
(983,365,l),
(983,346,l),
(592,346,l)
);
},
{
closed = 1;
nodes = (
(597,19,l),
(1043,19,l),
(1043,0,l),
(577,0,l),
(577,700,l),
(1028,700,l),
(1028,681,l),
(597,681,l)
);
}
);
width = 1112;
}
);
leftKerningGroup = C2;
rightKerningGroup = E;
unicode = 338;
},
{
glyphname = P;
layers = (
{
layerId = "B8EF125A-8090-42B9-BB2C-F5A019E05E81";
shapes = (
{
closed = 1;
nodes = (
(57,0,l),
(57,700,l),
(394,700,ls),
(492,700,o),
(635,636,o),
(713,517,o),
(713,436,qs),
(713,355,o),
(635,237,o),
(492,172,o),
(394,172,qs),
(188,172,l),
(293,273,l),
(293,0,l)
);
},
{
closed = 1;
nodes = (
(293,247,l),
(188,354,l),
(379,354,ls),
(428,354,o),
(475,398,o),
(475,436,qs),
(475,474,o),
(428,518,o),
(379,518,qs),
(188,518,l),
(293,625,l)
);
}
);
width = 743;
},
{
layerId = "FE17A44E-3763-4243-92C2-150F6AC96B85";
shapes = (
{
closed = 1;
nodes = (
(100,0,l),
(100,700,l),
(380,700,ls),
(472,700,o),
(604,641,o),
(675,530,o),
(675,453,qs),
(675,377,o),
(604,266,o),
(472,207,o),
(380,207,qs),
(163,207,l),
(214,261,l),
(214,0,l)
);
},
{
closed = 1;
nodes = (
(214,249,l),
(163,306,l),
(376,306,ls),
(467,306,o),
(560,383,o),
(560,453,qs),
(560,524,o),
(467,601,o),
(376,601,qs),
(163,601,l),
(214,658,l)
);
}
);
width = 724;
},
{
layerId = "321F1C87-2BE4-472A-920D-C7836CF29DEE";
shapes = (
{
closed = 1;
nodes = (
(133,0,l),
(133,700,l),
(370,700,ls),
(456,700,o),
(579,645,o),
(645,543,o),
(645,470,qs),
(645,398,o),
(579,295,o),
(456,240,o),
(370,240,qs),
(144,240,l),
(153,249,l),
(153,0,l)
);
},
{
closed = 1;
nodes = (
(153,251,l),
(144,259,l),
(372,259,ls),
(495,259,o),
(625,370,o),
(625,470,qs),
(625,571,o),
(495,681,o),
(372,681,qs),
(144,681,l),
(153,689,l)
);
}
);
width = 710;
}
);
leftKerningGroup = B2;
rightKerningGroup = P;
unicode = 80;
},
{
glyphname = Thorn;
layers = (
{
layerId = "B8EF125A-8090-42B9-BB2C-F5A019E05E81";
shapes = (
{
closed = 1;
nodes = (
(245,105,l),
(245,287,l),
(379,287,ls),
(428,287,o),
(475,331,o),
(475,369,qs),
(475,407,o),
(428,451,o),
(379,451,qs),
(245,451,l),
(245,633,l),
(394,633,ls),
(492,633,o),
(635,569,o),
(713,450,o),
(713,369,qs),
(713,288,o),
(635,169,o),
(492,105,o),
(394,105,qs)
);
},
{
closed = 1;
nodes = (
(57,0,l),
(57,701,l),
(293,701,l),
(293,0,l)
);
}
);
width = 743;
},
{
layerId = "FE17A44E-3763-4243-92C2-150F6AC96B85";
shapes = (
{
closed = 1;
nodes = (
(188,122,l),
(188,221,l),
(376,221,ls),
(467,221,o),
(560,299,o),
(560,369,qs),
(560,440,o),
(467,517,o),
(376,517,qs),
(188,517,l),
(188,616,l),
(380,616,ls),
(472,616,o),
(604,556,o),
(675,446,o),
(675,370,qs),
(675,293,o),
(604,182,o),
(472,122,o),
(380,122,qs)
);
},
{
closed = 1;
nodes = (
(100,0,l),
(100,700,l),
(214,700,l),
(214,0,l)
);
}
);
width = 724;
},
{
layerId = "321F1C87-2BE4-472A-920D-C7836CF29DEE";
shapes = (
{
closed = 1;
nodes = (
(144,139,l),
(144,158,l),
(372,158,ls),
(495,158,o),
(625,269,o),
(625,370,qs),
(625,471,o),
(495,581,o),
(372,581,qs),
(144,581,l),
(144,600,l),
(370,600,ls),
(456,600,o),
(579,545,o),
(645,443,o),
(645,370,qs),
(645,297,o),
(579,194,o),
(456,139,o),
(370,139,qs)
);
},
{
closed = 1;
nodes = (
(133,0,l),
(133,700,l),
(153,700,l),
(153,0,l)
);
}
);
width = 710;
}
);
leftKerningGroup = B2;
unicode = 222;
},
{
glyphname = Q;
layers = (
{
anchors = (
{
name = t.uni0308;
position = "{425, 700}";
}
);
layerId = "B8EF125A-8090-42B9-BB2C-F5A019E05E81";
shapes = (
{
closed = 1;
nodes = (
(339,-16,o),
(194,38,o),
(88,137,o),
(29,271,o),
(29,350,qs),
(29,430,o),
(88,563,o),
(194,662,o),
(339,716,o),
(424,716,qs),
(510,716,o),
(654,662,o),
(760,563,o),
(819,430,o),
(819,350,qs),
(819,271,o),
(760,137,o),
(654,38,o),
(510,-16,o),
(424,-16,qs)
);
},
{
closed = 1;
nodes = (
(604,-177,o),
(520,-158,o),
(441,-114,o),
(355,-37,o),
(302,20,q),
(546,80,l),
(570,43,o),
(604,3,o),
(637,-13,o),
(658,-13,qs),
(710,-13,o),
(755,32,q),
(857,-88,l),
(782,-177,o),
(653,-177,qs)
);
},
{
closed = 1;
nodes = (
(457,175,o),
(514,199,o),
(557,244,o),
(581,309,o),
(581,350,qs),
(581,391,o),
(557,456,o),
(514,501,o),
(457,525,o),
(424,525,qs),
(391,525,o),
(334,501,o),
(291,456,o),
(267,391,o),
(267,350,qs),
(267,309,o),
(291,244,o),
(334,199,o),
(391,175,o),
(424,175,qs)
);
}
);
width = 848;
},
{
anchors = (
{
name = t.uni0308;
position = "{428, 700}";
}
);
layerId = "FE17A44E-3763-4243-92C2-150F6AC96B85";
shapes = (
{
closed = 1;
nodes = (
(340,-9,o),
(203,45,o),
(102,142,o),
(46,273,o),
(46,350,qs),
(46,427,o),
(102,558,o),
(203,655,o),
(340,709,o),
(421,709,qs),
(502,709,o),
(638,656,o),
(739,559,o),
(795,428,o),
(795,350,qs),
(795,272,o),
(739,141,o),
(638,44,o),
(502,-9,o),
(421,-9,qs)
);
},
{
closed = 1;
nodes = (
(614,-150,o),
(548,-133,o),
(482,-95,o),
(412,-34,o),
(371,11,q),
(493,43,l),
(522,6,o),
(575,-40,o),
(626,-60,o),
(652,-60,qs),
(724,-60,o),
(776,-2,q),
(829,-67,l),
(760,-150,o),
(650,-150,qs)
);
},
{
closed = 1;
nodes = (
(477,93,o),
(571,131,o),
(641,201,o),
(680,295,o),
(680,350,qs),
(680,406,o),
(641,499,o),
(571,569,o),
(477,607,o),
(421,607,qs),
(365,607,o),
(270,569,o),
(200,499,o),
(161,406,o),
(161,350,qs),
(161,295,o),
(200,201,o),
(270,131,o),
(365,93,o),
(421,93,qs)
);
}
);
width = 841;
},
{
anchors = (
{
name = t.uni0308;
position = "{428, 700}";
}
);
layerId = "321F1C87-2BE4-472A-920D-C7836CF29DEE";
shapes = (
{
closed = 1;
nodes = (
(341,-3,o),
(210,50,o),
(113,146,o),
(59,274,o),
(59,350,qs),
(59,426,o),
(113,554,o),
(210,650,o),
(341,703,o),
(418,703,qs),
(495,703,o),
(626,650,o),
(723,554,o),
(777,426,o),
(777,350,qs),
(777,274,o),
(723,146,o),
(626,50,o),
(495,-3,o),
(418,-3,qs)
);
},
{
closed = 1;
nodes = (
(621,-124,o),
(569,-109,o),
(514,-78,o),
(457,-30,o),
(425,3,q),
(451,8,l),
(485,-29,o),
(552,-80,o),
(617,-105,o),
(648,-105,qs),
(734,-105,o),
(793,-34,q),
(807,-48,l),
(745,-124,o),
(648,-124,qs)
);
},
{
closed = 1;
nodes = (
(490,16,o),
(614,67,o),
(706,158,o),
(757,279,o),
(757,350,qs),
(757,421,o),
(706,542,o),
(614,633,o),
(490,684,o),
(418,684,qs),
(346,684,o),
(222,633,o),
(130,542,o),
(79,421,o),
(79,350,qs),
(79,279,o),
(130,158,o),
(222,67,o),
(346,16,o),
(418,16,qs)
);
}
);
width = 836;
}
);
leftKerningGroup = C2;
rightKerningGroup = D;
unicode = 81;
},
{
glyphname = R;
layers = (
{
anchors = (
{
name = t.uni0308;
position = "{379, 700}";
},
{
name = b.uni0324_3;
position = "{379, 0}";
}
);
layerId = "B8EF125A-8090-42B9-BB2C-F5A019E05E81";
shapes = (
{
closed = 1;
nodes = (
(57,0,l),
(57,700,l),
(394,700,ls),
(492,700,o),
(635,636,o),
(713,517,o),
(713,436,qs),
(713,355,o),
(635,238,o),
(492,176,o),
(394,176,qs),
(188,176,l),
(293,273,l),
(293,0,l)
);
},
{
closed = 1;
nodes = (
(476,0,l),
(304,255,l),
(554,255,l),
(728,0,l)
);
},
{
closed = 1;
nodes = (
(293,247,l),
(188,354,l),
(379,354,ls),
(428,354,o),
(475,398,o),
(475,436,qs),
(475,474,o),
(428,518,o),
(379,518,qs),
(188,518,l),
(293,625,l)
);
}
);
width = 745;
},
{
anchors = (
{
name = t.uni0308;
position = "{385, 700}";
},
{
name = b.uni0324_3;
position = "{385, 0}";
}
);
layerId = "FE17A44E-3763-4243-92C2-150F6AC96B85";
shapes = (
{
closed = 1;
nodes = (
(100,0,l),
(100,700,l),
(380,700,ls),
(472,700,o),
(604,641,o),
(675,530,o),
(675,453,qs),
(675,377,o),
(604,267,o),
(472,208,o),
(380,208,qs),
(163,208,l),
(214,261,l),
(214,0,l)
);
},
{
closed = 1;
nodes = (
(563,0,l),
(385,254,l),
(508,254,l),
(687,0,l)
);
},
{
closed = 1;
nodes = (
(214,249,l),
(163,305,l),
(376,305,ls),
(467,305,o),
(560,383,o),
(560,453,qs),
(560,524,o),
(467,601,o),
(376,601,qs),
(163,601,l),
(214,658,l)
);
}
);
width = 729;
},
{
anchors = (
{
name = t.uni0308;
position = "{385, 700}";
},
{
name = b.uni0324_3;
position = "{385, 0}";
}
);
layerId = "321F1C87-2BE4-472A-920D-C7836CF29DEE";
shapes = (
{
closed = 1;
nodes = (
(133,0,l),
(133,700,l),
(370,700,ls),
(456,700,o),
(579,645,o),
(645,543,o),
(645,470,qs),
(645,398,o),
(579,295,o),
(456,240,o),
(370,240,qs),
(144,240,l),
(153,249,l),
(153,0,l)
);
},
{
closed = 1;
nodes = (
(630,0,l),
(447,254,l),
(472,254,l),
(655,0,l)
);
},
{
closed = 1;
nodes = (
(153,251,l),
(144,259,l),
(372,259,ls),
(495,259,o),
(625,370,o),
(625,470,qs),
(625,571,o),
(495,681,o),
(372,681,qs),
(144,681,l),
(153,689,l)
);
}
);
width = 716;
}
);
leftKerningGroup = B2;
rightKerningGroup = R;
unicode = 82;
},
{
glyphname = S;
layers = (
{
anchors = (
{
name = t.uni0308;
position = "{329, 700}";
},
{
name = b.uni0324_3;
position = "{329, 0}";
}
);
layerId = "B8EF125A-8090-42B9-BB2C-F5A019E05E81";
shapes = (
{
closed = 1;
nodes = (
(230,-16,o),
(66,24,o),
(13,56,q),
(89,228,l),
(139,199,o),
(262,164,o),
(320,164,qs),
(354,164,o),
(393,173,o),
(411,190,o),
(411,202,qs),
(411,221,o),
(369,243,o),
(300,258,o),
(218,275,o),
(135,303,o),
(66,349,o),
(24,424,o),
(24,480,qs),
(24,545,o),
(97,652,o),
(242,716,o),
(350,716,qs),
(421,716,o),
(559,686,o),
(614,655,q),
(543,484,l),
(491,510,o),
(394,536,o),
(348,536,qs),
(314,536,o),
(274,524,o),
(257,504,o),
(257,492,qs),
(257,474,o),
(299,453,o),
(368,439,o),
(451,423,o),
(533,395,o),
(602,349,o),
(644,275,o),
(644,220,qs),
(644,156,o),
(571,49,o),
(427,-16,o),
(318,-16,qs)
);
}
);
width = 657;
},
{
anchors = (
{
name = t.uni0308;
position = "{334, 700}";
},
{
name = b.uni0324_3;
position = "{334, 0}";
}
);
layerId = "FE17A44E-3763-4243-92C2-150F6AC96B85";
shapes = (
{
closed = 1;
nodes = (
(229,-9,o),
(81,39,o),
(38,77,q),
(79,167,l),
(120,133,o),
(244,88,o),
(310,88,qs),
(368,88,o),
(440,114,o),
(474,159,o),
(474,187,qs),
(474,221,o),
(428,262,o),
(354,287,o),
(264,307,o),
(174,334,o),
(100,377,o),
(54,448,o),
(54,504,qs),
(54,560,o),
(113,653,o),
(235,709,o),
(329,709,qs),
(391,709,o),
(513,677,o),
(558,647,q),
(521,556,l),
(475,585,o),
(375,612,o),
(328,612,qs),
(272,612,o),
(200,584,o),
(167,538,o),
(167,509,qs),
(167,475,o),
(213,434,o),
(287,410,o),
(377,389,o),
(467,363,o),
(541,321,o),
(587,250,o),
(587,195,qs),
(587,140,o),
(527,47,o),
(404,-9,o),
(310,-9,qs)
);
}
);
width = 625;
},
{
anchors = (
{
name = t.uni0308;
position = "{334, 700}";
},
{
name = b.uni0324_3;
position = "{334, 0}";
}
);
layerId = "321F1C87-2BE4-472A-920D-C7836CF29DEE";
shapes = (
{
closed = 1;
nodes = (
(228,-3,o),
(93,53,o),
(58,96,q),
(72,109,l),
(105,70,o),
(230,16,o),
(303,16,qs),
(379,16,o),
(476,58,o),
(523,129,o),
(523,172,qs),
(523,222,o),
(475,283,o),
(395,318,o),
(301,341,o),
(206,365,o),
(126,404,o),
(78,472,o),
(78,527,qs),
(78,573,o),
(127,653,o),
(230,703,o),
(312,703,qs),
(368,703,o),
(477,668,o),
(515,639,q),
(504,623,l),
(462,654,o),
(360,684,o),
(313,684,qs),
(240,684,o),
(144,641,o),
(98,570,o),
(98,526,qs),
(98,475,o),
(146,414,o),
(226,379,o),
(321,356,o),
(415,331,o),
(495,292,o),
(543,226,o),
(543,172,qs),
(543,126,o),
(493,46,o),
(387,-3,o),
(304,-3,qs)
);
}
);
width = 601;
}
);
leftKerningGroup = S2;
rightKerningGroup = S;
unicode = 83;
},
{
glyphname = uniA78B;
layers = (
{
layerId = "B8EF125A-8090-42B9-BB2C-F5A019E05E81";
shapes = (
{
closed = 1;
nodes = (
(55,296,l),
(55,701,l),
(287,701,l),
(257,296,l)
);
}
);
width = 342;
},
{
layerId = "FE17A44E-3763-4243-92C2-150F6AC96B85";
shapes = (
{
closed = 1;
nodes = (
(77,297,l),
(77,700,l),
(190,700,l),
(176,297,l)
);
}
);
width = 267;
},
{
layerId = "321F1C87-2BE4-472A-920D-C7836CF29DEE";
shapes = (
{
closed = 1;
nodes = (
(94,299,l),
(94,700,l),
(114,700,l),
(114,299,l)
);
}
);
width = 208;
}
);
leftKerningGroup = pi;
unicode = 42891;
},
{
glyphname = uni1E9E;
layers = (
{
layerId = "B8EF125A-8090-42B9-BB2C-F5A019E05E81";
shapes = (
{
closed = 1;
nodes = (
(445,-16,o),
(368,-4,o),
(337,7,q),
(369,183,l),
(387,175,o),
(434,164,o),
(454,164,qs),
(495,164,o),
(534,193,o),
(534,221,qs),
(534,249,o),
(496,278,o),
(457,278,qs),
(440,278,o),
(408,273,o),
(395,268,q),
(355,363,l),
(588,635,l),
(603,487,l),
(564,510,o),
(484,536,o),
(434,536,qs),
(361,536,o),
(287,451,o),
(287,374,qs),
(287,0,l),
(51,0,l),
(51,379,ls),
(51,483,o),
(139,634,o),
(309,716,o),
(431,716,qs),
(475,716,o),
(573,701,o),
(665,671,o),
(698,650,q),
(698,515,l),
(521,308,l),
(433,430,l),
(449,434,o),
(485,438,o),
(507,438,qs),
(576,438,o),
(697,384,o),
(772,283,o),
(772,211,qs),
(772,140,o),
(697,38,o),
(571,-16,o),
(494,-16,qs)
);
}
);
width = 798;
},
{
layerId = "FE17A44E-3763-4243-92C2-150F6AC96B85";
shapes = (
{
closed = 1;
nodes = (
(429,-9,o),
(358,3,o),
(327,16,q),
(345,111,l),
(369,100,o),
(427,88,o),
(459,88,qs),
(526,88,o),
(603,148,o),
(603,207,qs),
(603,266,o),
(525,326,o),
(458,326,qs),
(437,326,o),
(394,320,o),
(377,315,q),
(356,369,l),
(588,633,l),
(603,555,l),
(564,584,o),
(471,612,o),
(419,612,qs),
(315,612,o),
(208,501,o),
(208,398,qs),
(208,0,l),
(94,0,l),
(94,401,ls),
(94,496,o),
(169,634,o),
(312,709,o),
(412,709,qs),
(456,709,o),
(543,694,o),
(622,664,o),
(652,641,q),
(652,567,l),
(449,339,l),
(400,406,l),
(417,411,o),
(456,415,o),
(477,415,qs),
(545,415,o),
(655,366,o),
(719,271,o),
(719,202,qs),
(719,134,o),
(655,40,o),
(541,-9,o),
(466,-9,qs)
);
}
);
width = 767;
},
{
layerId = "321F1C87-2BE4-472A-920D-C7836CF29DEE";
shapes = (
{
closed = 1;
nodes = (
(414,-3,o),
(351,11,o),
(319,25,q),
(327,44,l),
(356,30,o),
(421,16,o),
(458,16,qs),
(548,16,o),
(657,106,o),
(657,193,qs),
(657,281,o),
(546,369,o),
(454,369,qs),
(430,369,o),
(383,363,o),
(363,357,q),
(356,373,l),
(606,630,l),
(603,618,l),
(564,653,o),
(460,684,o),
(404,684,qs),
(279,684,o),
(147,549,o),
(147,422,qs),
(147,0,l),
(127,0,l),
(127,424,ls),
(127,511,o),
(192,636,o),
(315,703,o),
(402,703,qs),
(443,703,o),
(520,687,o),
(588,656,o),
(616,631,q),
(616,615,l),
(375,367,l),
(374,377,l),
(392,383,o),
(433,388,o),
(454,388,qs),
(521,388,o),
(621,344,o),
(677,257,o),
(677,193,qs),
(677,129,o),
(622,42,o),
(521,-3,o),
(452,-3,qs)
);
}
);
width = 742;
}
);
rightKerningGroup = B;
unicode = 7838;
},
{
glyphname = uni018F;
layers = (
{
layerId = "B8EF125A-8090-42B9-BB2C-F5A019E05E81";
shapes = (
{
closed = 1;
nodes = (
(325,-16,o),
(185,37,o),
(84,136,o),
(29,275,o),
(29,360,qs),
(29,398,l),
(576,398,l),
(576,268,l),
(191,268,l),
(267,310,l),
(267,274,o),
(285,218,o),
(321,178,o),
(374,157,o),
(409,157,qs),
(444,157,o),
(497,178,o),
(533,218,o),
(551,274,o),
(551,310,qs),
(551,360,ls),
(551,396,o),
(527,457,o),
(484,501,o),
(424,525,o),
(387,525,qs),
(360,525,o),
(293,506,o),
(230,469,o),
(208,443,q),
(69,586,l),
(102,622,o),
(204,681,o),
(326,716,o),
(389,716,qs),
(477,716,o),
(624,663,o),
(731,565,o),
(789,431,o),
(789,350,qs),
(789,269,o),
(732,134,o),
(630,37,o),
(491,-16,o),
(409,-16,qs)
);
}
);
width = 818;
},
{
layerId = "FE17A44E-3763-4243-92C2-150F6AC96B85";
shapes = (
{
closed = 1;
nodes = (
(331,-9,o),
(198,45,o),
(100,143,o),
(46,276,o),
(46,355,qs),
(46,386,l),
(669,386,l),
(669,289,l),
(123,289,l),
(160,350,l),
(160,291,o),
(196,195,o),
(262,127,o),
(353,90,o),
(409,90,qs),
(465,90,o),
(556,126,o),
(621,194,o),
(656,287,o),
(656,344,qs),
(656,355,ls),
(656,409,o),
(617,501,o),
(548,569,o),
(456,607,o),
(403,607,qs),
(362,607,o),
(283,589,o),
(213,553,o),
(185,525,q),
(116,604,l),
(149,637,o),
(238,684,o),
(345,709,o),
(404,709,qs),
(484,709,o),
(618,656,o),
(717,559,o),
(771,428,o),
(771,351,qs),
(771,273,o),
(717,142,o),
(619,45,o),
(487,-9,o),
(409,-9,qs)
);
}
);
width = 817;
},
{
anchors = (
{
name = t.uni0308;
position = "{409, 700}";
},
{
name = b.uni0324_3;
position = "{409, 0}";
}
);
layerId = "321F1C87-2BE4-472A-920D-C7836CF29DEE";
shapes = (
{
closed = 1;
nodes = (
(333,-3,o),
(205,50,o),
(111,146,o),
(59,274,o),
(59,350,qs),
(59,360,l),
(742,360,l),
(742,341,l),
(71,341,l),
(79,350,l),
(79,279,o),
(128,158,o),
(217,67,o),
(337,16,o),
(408,16,qs),
(475,16,o),
(594,67,o),
(685,158,o),
(737,279,o),
(737,349,qs),
(737,351,ls),
(737,422,o),
(686,543,o),
(593,633,o),
(470,684,o),
(398,684,qs),
(355,684,o),
(274,668,o),
(201,632,o),
(167,603,q),
(156,618,l),
(188,647,o),
(264,684,o),
(351,703,o),
(398,703,qs),
(475,703,o),
(606,650,o),
(703,555,o),
(757,426,o),
(757,351,qs),
(757,278,o),
(703,150,o),
(607,52,o),
(481,-3,o),
(408,-3,qs)
);
}
);
width = 816;
}
);
leftKerningGroup = C2;
rightKerningGroup = D;
unicode = 399;
},
{
glyphname = T;
layers = (
{
anchors = (
{
name = t.uni0308;
position = "{327, 700}";
},
{
name = t.uni0307_1;
position = "{327, 315}";
},
{
name = b.uni0324_3;
position = "{327, 0}";
}
);
layerId = "B8EF125A-8090-42B9-BB2C-F5A019E05E81";
shapes = (
{
closed = 1;
nodes = (
(209,0,l),
(209,517,l),
(4,517,l),
(4,700,l),
(650,700,l),
(650,517,l),
(445,517,l),
(445,0,l)
);
}
);
width = 654;
},
{
anchors = (
{
name = t.uni0308;
position = "{350, 700}";
},
{
name = t.uni0307_1;
position = "{350, 295}";
},
{
name = b.uni0324_3;
position = "{350, 0}";
}
);
layerId = "FE17A44E-3763-4243-92C2-150F6AC96B85";
shapes = (
{
closed = 1;
nodes = (
(240,0,l),
(240,601,l),
(4,601,l),
(4,700,l),
(590,700,l),
(590,601,l),
(354,601,l),
(354,0,l)
);
}
);
width = 594;
},
{
anchors = (
{
name = t.uni0308;
position = "{350, 700}";
},
{
name = t.uni0307_1;
position = "{350, 295}";
},
{
name = b.uni0324_3;
position = "{350, 0}";
}
);
layerId = "321F1C87-2BE4-472A-920D-C7836CF29DEE";
shapes = (
{
closed = 1;
nodes = (
(264,0,l),
(264,681,l),
(4,681,l),
(4,700,l),
(544,700,l),
(544,681,l),
(284,681,l),
(284,0,l)
);
}
);
width = 548;
}
);
leftKerningGroup = T2;
rightKerningGroup = T;
unicode = 84;
},
{
glyphname = U;
layers = (
{
anchors = (
{
name = t.uni0308;
position = "{394, 700}";
},
{
name = t.uni031B_2;
position = "{640, 700}";
},
{
name = b.uni0324_3;
position = "{394, 0}";
},
{
name = m.uni0328_4;
position = "{620, 0}";
}
);
layerId = "B8EF125A-8090-42B9-BB2C-F5A019E05E81";
shapes = (
{
closed = 1;
nodes = (
(231,-16,o),
(51,158,o),
(51,315,qs),
(51,700,l),
(287,700,l),
(287,322,ls),
(287,242,o),
(345,175,o),
(394,175,qs),
(444,175,o),
(501,242,o),
(501,322,qs),
(501,700,l),
(733,700,l),
(733,315,ls),
(733,158,o),
(553,-16,o),
(392,-16,qs)
);
}
);
width = 784;
},
{
anchors = (
{
name = t.uni0308;
position = "{393, 700}";
},
{
name = t.uni031B_2;
position = "{626, 700}";
},
{
name = b.uni0324_3;
position = "{393, 0}";
},
{
name = m.uni0328_4;
position = "{636, 0}";
}
);
layerId = "FE17A44E-3763-4243-92C2-150F6AC96B85";
shapes = (
{
closed = 1;
nodes = (
(254,-9,o),
(94,151,o),
(94,304,qs),
(94,700,l),
(208,700,l),
(208,308,ls),
(208,196,o),
(306,93,o),
(396,93,qs),
(486,93,o),
(584,196,o),
(584,308,qs),
(584,700,l),
(696,700,l),
(696,304,ls),
(696,151,o),
(536,-9,o),
(395,-9,qs)
);
}
);
width = 790;
},
{
anchors = (
{
name = t.uni0308;
position = "{393, 700}";
},
{
name = t.uni031B_2;
position = "{626, 700}";
},
{
name = b.uni0324_3;
position = "{393, 0}";
},
{
name = m.uni0328_4;
position = "{636, 0}";
}
);
layerId = "321F1C87-2BE4-472A-920D-C7836CF29DEE";
shapes = (
{
closed = 1;
nodes = (
(272,-3,o),
(127,145,o),
(127,293,qs),
(127,700,l),
(147,700,l),
(147,294,ls),
(147,154,o),
(278,16,o),
(397,16,qs),
(516,16,o),
(647,154,o),
(647,294,qs),
(647,700,l),
(667,700,l),
(667,293,ls),
(667,145,o),
(522,-3,o),
(397,-3,qs)
);
}
);
width = 794;
}
);
leftKerningGroup = U;
rightKerningGroup = J;
unicode = 85;
},
{
glyphname = Uogonek;
layers = (
{
layerId = "B8EF125A-8090-42B9-BB2C-F5A019E05E81";
shapes = (
{
closed = 1;
nodes = (
(501,700,l),
(733,700,l),
(733,315,ls),
(733,191,o),
(626,41,o),
(540,7,qs),
(487,-14,o),
(426,-50,o),
(402,-81,o),
(402,-97,qs),
(402,-114,o),
(427,-138,o),
(455,-138,qs),
(472,-138,o),
(503,-129,o),
(514,-124,q),
(541,-217,l),
(523,-227,o),
(460,-240,o),
(428,-240,qs),
(353,-240,o),
(270,-173,o),
(270,-117,qs),
(270,-80,o),
(309,-17,o),
(384,33,o),
(437,49,q),
(442,-14,l),
(429,-15,o),
(405,-16,o),
(392,-16,qs),
(231,-16,o),
(51,158,o),
(51,315,qs),
(51,700,l),
(287,700,l),
(287,322,ls),
(287,242,o),
(345,175,o),
(394,175,qs),
(444,175,o),
(501,242,o),
(501,322,qs)
);
}
);
width = 784;
},
{
layerId = "FE17A44E-3763-4243-92C2-150F6AC96B85";
shapes = (
{
closed = 1;
nodes = (
(584,700,l),
(696,700,l),
(696,304,ls),
(696,181,o),
(597,38,o),
(514,8,qs),
(456,-13,o),
(395,-55,o),
(372,-95,o),
(372,-113,qs),
(372,-137,o),
(406,-163,o),
(432,-163,qs),
(448,-163,o),
(481,-154,o),
(493,-147,q),
(513,-203,l),
(494,-213,o),
(446,-226,o),
(420,-226,qs),
(361,-226,o),
(295,-168,o),
(295,-122,qs),
(295,-94,o),
(323,-38,o),
(386,14,o),
(439,35,q),
(438,-7,l),
(428,-8,o),
(406,-9,o),
(395,-9,qs),
(254,-9,o),
(94,151,o),
(94,304,qs),
(94,700,l),
(208,700,l),
(208,308,ls),
(208,196,o),
(306,93,o),
(396,93,qs),
(486,93,o),
(584,196,o),
(584,308,qs)
);
}
);
width = 790;
},
{
layerId = "321F1C87-2BE4-472A-920D-C7836CF29DEE";
shapes = (
{
closed = 1;
nodes = (
(647,700,l),
(667,700,l),
(667,293,ls),
(667,172,o),
(574,35,o),
(490,8,qs),
(423,-14,o),
(356,-64,o),
(334,-111,o),
(334,-130,qs),
(334,-162,o),
(375,-194,o),
(406,-194,qs),
(423,-194,o),
(456,-182,o),
(468,-171,q),
(479,-186,l),
(463,-200,o),
(426,-213,o),
(405,-213,qs),
(366,-213,o),
(314,-169,o),
(314,-130,qs),
(314,-109,o),
(335,-60,o),
(394,-8,o),
(451,14,q),
(435,-1,l),
(426,-2,o),
(406,-3,o),
(397,-3,qs),
(272,-3,o),
(127,145,o),
(127,293,qs),
(127,700,l),
(147,700,l),
(147,294,ls),
(147,154,o),
(278,16,o),
(397,16,qs),
(516,16,o),
(647,154,o),
(647,294,qs)
);
}
);
width = 794;
}
);
leftKerningGroup = U;
rightKerningGroup = J;
unicode = 370;
},
{
glyphname = V;
layers = (
{
layerId = "B8EF125A-8090-42B9-BB2C-F5A019E05E81";
shapes = (
{
closed = 1;
nodes = (
(277,0,l),
(-19,700,l),
(235,700,l),
(476,109,l),
(325,109,l),
(573,700,l),
(805,700,l),
(509,0,l)
);
}
);
width = 786;
},
{
layerId = "FE17A44E-3763-4243-92C2-150F6AC96B85";
shapes = (
{
closed = 1;
nodes = (
(304,0,l),
(-3,700,l),
(121,700,l),
(399,61,l),
(328,61,l),
(609,700,l),
(723,700,l),
(417,0,l)
);
}
);
width = 720;
},
{
layerId = "321F1C87-2BE4-472A-920D-C7836CF29DEE";
shapes = (
{
closed = 1;
nodes = (
(325,0,l),
(10,700,l),
(33,700,l),
(340,16,l),
(330,16,l),
(637,700,l),
(660,700,l),
(345,0,l)
);
}
);
width = 670;
}
);
leftKerningGroup = V2;
rightKerningGroup = V;
unicode = 86;
},
{
glyphname = W;
layers = (
{
anchors = (
{
name = t.uni0308;
position = "{603, 700}";
},
{
name = b.uni0324_3;
position = "{603, 0}";
}
);
layerId = "B8EF125A-8090-42B9-BB2C-F5A019E05E81";
shapes = (
{
closed = 1;
nodes = (
(234,0,l),
(10,700,l),
(253,700,l),
(434,109,l),
(312,109,l),
(504,700,l),
(721,700,l),
(900,109,l),
(783,109,l),
(972,700,l),
(1196,700,l),
(972,0,l),
(719,0,l),
(573,484,l),
(641,484,l),
(487,0,l)
);
}
);
width = 1206;
},
{
anchors = (
{
name = t.uni0308;
position = "{631, 700}";
},
{
name = b.uni0324_3;
position = "{631, 0}";
}
);
layerId = "FE17A44E-3763-4243-92C2-150F6AC96B85";
shapes = (
{
closed = 1;
nodes = (
(263,0,l),
(30,700,l),
(148,700,l),
(359,61,l),
(300,61,l),
(519,700,l),
(625,700,l),
(838,61,l),
(781,61,l),
(996,700,l),
(1105,700,l),
(872,0,l),
(751,0,l),
(553,584,l),
(585,584,l),
(385,0,l)
);
}
);
width = 1135;
},
{
anchors = (
{
name = t.uni0308;
position = "{631, 700}";
},
{
name = b.uni0324_3;
position = "{631, 0}";
}
);
layerId = "321F1C87-2BE4-472A-920D-C7836CF29DEE";
shapes = (
{
closed = 1;
nodes = (
(285,0,l),
(45,700,l),
(67,700,l),
(301,16,l),
(290,16,l),
(530,700,l),
(550,700,l),
(790,16,l),
(780,16,l),
(1014,700,l),
(1035,700,l),
(795,0,l),
(775,0,l),
(538,678,l),
(542,678,l),
(305,0,l)
);
}
);
width = 1080;
}
);
leftKerningGroup = V2;
rightKerningGroup = V;
unicode = 87;
},
{
glyphname = X;
layers = (
{
layerId = "B8EF125A-8090-42B9-BB2C-F5A019E05E81";
shapes = (
{
closed = 1;
nodes = (
(-8,0,l),
(304,436,l),
(303,271,l),
(1,700,l),
(266,700,l),
(442,440,l),
(329,439,l),
(501,700,l),
(755,700,l),
(453,280,l),
(453,444,l),
(770,0,l),
(500,0,l),
(324,272,l),
(433,273,l),
(261,0,l)
);
}
);
width = 762;
},
{
layerId = "FE17A44E-3763-4243-92C2-150F6AC96B85";
shapes = (
{
closed = 1;
nodes = (
(11,0,l),
(304,402,l),
(304,314,l),
(26,700,l),
(156,700,l),
(370,406,l),
(317,405,l),
(530,700,l),
(654,700,l),
(378,320,l),
(378,404,l),
(672,0,l),
(540,0,l),
(314,313,l),
(365,313,l),
(142,0,l)
);
}
);
width = 683;
},
{
layerId = "321F1C87-2BE4-472A-920D-C7836CF29DEE";
shapes = (
{
closed = 1;
nodes = (
(25,0,l),
(304,370,l),
(304,354,l),
(45,700,l),
(70,700,l),
(314,373,l),
(308,373,l),
(552,700,l),
(576,700,l),
(320,358,l),
(320,366,l),
(596,0,l),
(571,0,l),
(307,351,l),
(313,351,l),
(49,0,l)
);
}
);
width = 621;
}
);
leftKerningGroup = X2;
rightKerningGroup = X;
unicode = 88;
},
{
glyphname = Y;
layers = (
{
anchors = (
{
name = t.uni0308;
position = "{355, 700}";
},
{
name = t.uni0307_1;
position = "{349, 266}";
},
{
name = b.uni0324_3;
position = "{355, 0}";
}
);
layerId = "B8EF125A-8090-42B9-BB2C-F5A019E05E81";
shapes = (
{
closed = 1;
nodes = (
(237,0,l),
(237,307,l),
(291,166,l),
(-27,700,l),
(222,700,l),
(437,335,l),
(292,335,l),
(509,700,l),
(737,700,l),
(421,166,l),
(473,307,l),
(473,0,l)
);
}
);
width = 710;
},
{
anchors = (
{
name = t.uni0308;
position = "{377, 700}";
},
{
name = t.uni0307_1;
position = "{368, 277}";
},
{
name = b.uni0324_3;
position = "{377, 0}";
}
);
layerId = "FE17A44E-3763-4243-92C2-150F6AC96B85";
shapes = (
{
closed = 1;
nodes = (
(270,0,l),
(270,272,l),
(296,202,l),
(-6,700,l),
(116,700,l),
(365,289,l),
(297,289,l),
(547,700,l),
(660,700,l),
(358,202,l),
(384,272,l),
(384,0,l)
);
}
);
width = 654;
},
{
anchors = (
{
name = t.uni0308;
position = "{377, 700}";
},
{
name = t.uni0307_1;
position = "{368, 277}";
},
{
name = b.uni0324_3;
position = "{377, 0}";
}
);
layerId = "321F1C87-2BE4-472A-920D-C7836CF29DEE";
shapes = (
{
closed = 1;
nodes = (
(295,0,l),
(295,245,l),
(300,230,l),
(10,700,l),
(33,700,l),
(309,253,l),
(301,253,l),
(577,700,l),
(600,700,l),
(310,230,l),
(315,245,l),
(315,0,l)
);
}
);
width = 610;
}
);
leftKerningGroup = Y2;
rightKerningGroup = Y;
unicode = 89;
},
{
glyphname = Z;
layers = (
{
anchors = (
{
name = t.uni0308;
position = "{354, 700}";
},
{
name = b.uni0324_3;
position = "{354, 0}";
}
);
layerId = "B8EF125A-8090-42B9-BB2C-F5A019E05E81";
shapes = (
{
closed = 1;
nodes = (
(32,0,l),
(32,145,l),
(422,599,l),
(451,517,l),
(42,517,l),
(42,700,l),
(659,700,l),
(659,555,l),
(269,101,l),
(240,183,l),
(675,183,l),
(675,0,l)
);
}
);
width = 687;
},
{
anchors = (
{
name = t.uni0308;
position = "{367, 700}";
},
{
name = b.uni0324_3;
position = "{362, 0}";
}
);
layerId = "FE17A44E-3763-4243-92C2-150F6AC96B85";
shapes = (
{
closed = 1;
nodes = (
(42,0,l),
(42,78,l),
(504,645,l),
(517,601,l),
(49,601,l),
(49,700,l),
(620,700,l),
(620,622,l),
(159,55,l),
(145,99,l),
(633,99,l),
(633,0,l)
);
}
);
width = 660;
},
{
anchors = (
{
name = t.uni0308;
position = "{367, 700}";
},
{
name = b.uni0324_3;
position = "{362, 0}";
}
);
layerId = "321F1C87-2BE4-472A-920D-C7836CF29DEE";
shapes = (
{
closed = 1;
nodes = (
(50,0,l),
(50,15,l),
(567,688,l),
(568,681,l),
(55,681,l),
(55,700,l),
(590,700,l),
(590,685,l),
(73,12,l),
(72,19,l),
(600,19,l),
(600,0,l)
);
}
);
width = 639;
}
);
leftKerningGroup = Z2;
rightKerningGroup = Z;
unicode = 90;
},
{
glyphname = Iacute_J.loclNLD;
layers = (
{
layerId = "B8EF125A-8090-42B9-BB2C-F5A019E05E81";
shapes = (
{
closed = 1;
nodes = (
(238,-10,o),
(86,36,o),
(31,75,q),
(117,242,l),
(167,211,o),
(273,178,o),
(317,178,qs),
(382,178,o),
(442,245,o),
(442,318,qs),
(442,700,l),
(678,700,l),
(678,331,ls),
(678,221,o),
(591,69,o),
(433,-10,o),
(328,-10,qs)
);
},
{
closed = 1;
nodes = (
(51,336,l),
(51,700,l),
(287,700,l),
(287,336,l)
);
},
{
closed = 1;
nodes = (
(64,757,l),
(196,917,l),
(411,917,l),
(214,757,l)
);
},
{
closed = 1;
nodes = (
(454,757,l),
(586,917,l),
(801,917,l),
(604,757,l)
);
}
);
width = 729;
},
{
layerId = "FE17A44E-3763-4243-92C2-150F6AC96B85";
shapes = (
{
closed = 1;
nodes = (
(254,-6,o),
(128,35,o),
(81,68,q),
(125,158,l),
(169,127,o),
(272,95,o),
(323,95,qs),
(415,95,o),
(512,198,o),
(512,306,qs),
(512,700,l),
(627,700,l),
(627,311,ls),
(627,207,o),
(552,66,o),
(418,-6,o),
(327,-6,qs)
);
},
{
closed = 1;
nodes = (
(94,312,l),
(94,700,l),
(208,700,l),
(208,312,l)
);
},
{
closed = 1;
nodes = (
(97,757,l),
(233,891,l),
(350,891,l),
(179,757,l)
);
},
{
closed = 1;
nodes = (
(516,757,l),
(652,891,l),
(769,891,l),
(598,757,l)
);
}
);
width = 721;
},
{
layerId = "321F1C87-2BE4-472A-920D-C7836CF29DEE";
shapes = (
{
closed = 1;
nodes = (
(267,-3,o),
(161,34,o),
(120,62,q),
(132,78,l),
(172,49,o),
(272,16,o),
(328,16,qs),
(439,16,o),
(567,154,o),
(567,294,qs),
(567,700,l),
(587,700,l),
(587,293,ls),
(587,194,o),
(522,63,o),
(406,-3,o),
(327,-3,qs)
);
},
{
closed = 1;
nodes = (
(127,290,l),
(127,700,l),
(147,700,l),
(147,290,l)
);
},
{
closed = 1;
nodes = (
(122,757,l),
(262,867,l),
(302,867,l),
(152,757,l)
);
},
{
closed = 1;
nodes = (
(564,757,l),
(704,867,l),
(744,867,l),
(594,757,l)
);
}
);
width = 714;
}
);
leftKerningGroup = B2;
rightKerningGroup = J;
},
{
glyphname = A.ss01;
layers = (
{
anchors = (
{
name = t.uni0308;
position = "{396, 700}";
},
{
name = b.uni0324_3;
position = "{396, 0}";
},
{
name = m.uni0328_4;
position = "{741, 0}";
}
);
layerId = "B8EF125A-8090-42B9-BB2C-F5A019E05E81";
shapes = (
{
closed = 1;
nodes = (
(51,0,l),
(51,373,ls),
(51,483,o),
(139,636,o),
(294,716,o),
(396,716,qs),
(498,716,o),
(654,636,o),
(741,483,o),
(741,373,qs),
(741,0,l),
(505,0,l),
(505,393,ls),
(505,461,o),
(442,525,o),
(394,525,qs),
(346,525,o),
(283,461,o),
(283,393,qs),
(283,0,l)
);
},
{
closed = 1;
nodes = (
(199,141,l),
(199,319,l),
(589,319,l),
(589,141,l)
);
}
);
width = 792;
},
{
anchors = (
{
name = t.uni0308;
position = "{393, 700}";
},
{
name = b.uni0324_3;
position = "{393, 0}";
},
{
name = m.uni0328_4;
position = "{769, 0}";
}
);
layerId = "FE17A44E-3763-4243-92C2-150F6AC96B85";
shapes = (
{
closed = 1;
nodes = (
(94,0,l),
(94,390,ls),
(94,495,o),
(170,637,o),
(308,709,o),
(399,709,qs),
(491,709,o),
(629,637,o),
(705,495,o),
(705,390,qs),
(705,0,l),
(591,0,l),
(591,401,ls),
(591,505,o),
(487,607,o),
(399,607,qs),
(311,607,o),
(206,505,o),
(206,401,qs),
(206,0,l)
);
},
{
closed = 1;
nodes = (
(166,186,l),
(166,285,l),
(632,285,l),
(632,186,l)
);
}
);
width = 799;
},
{
anchors = (
{
name = t.uni0308;
position = "{393, 700}";
},
{
name = b.uni0324_3;
position = "{393, 0}";
},
{
name = m.uni0328_4;
position = "{769, 0}";
}
);
layerId = "321F1C87-2BE4-472A-920D-C7836CF29DEE";
shapes = (
{
closed = 1;
nodes = (
(127,0,l),
(127,407,ls),
(127,506,o),
(195,638,o),
(319,703,o),
(402,703,qs),
(486,703,o),
(609,638,o),
(677,506,o),
(677,407,qs),
(677,0,l),
(657,0,l),
(657,409,ls),
(657,547,o),
(521,684,o),
(402,684,qs),
(283,684,o),
(147,547,o),
(147,409,qs),
(147,0,l)
);
},
{
closed = 1;
nodes = (
(141,231,l),
(141,250,l),
(666,250,l),
(666,231,l)
);
}
);
width = 804;
}
);
leftKerningGroup = A.ss012;
rightKerningGroup = A.ss01;
},
{
glyphname = AE.ss01;
layers = (
{
anchors = (
{
name = t.uni0308;
position = "{547, 700}";
},
{
name = b.uni0324_3;
position = "{547, 0}";
}
);
layerId = "B8EF125A-8090-42B9-BB2C-F5A019E05E81";
shapes = (
{
closed = 1;
nodes = (
(483,0,l),
(483,700,l),
(1052,700,l),
(1052,522,l),
(715,522,l),
(715,440,l),
(1011,440,l),
(1011,270,l),
(715,270,l),
(715,178,l),
(1065,178,l),
(1065,0,l)
);
},
{
closed = 1;
nodes = (
(194,148,l),
(194,326,l),
(599,326,l),
(599,148,l)
);
},
{
closed = 1;
nodes = (
(46,0,l),
(46,376,ls),
(46,534,o),
(221,700,o),
(386,700,qs),
(599,700,l),
(599,509,l),
(408,509,ls),
(341,509,o),
(282,444,o),
(282,370,qs),
(282,0,l)
);
}
);
width = 1099;
},
{
anchors = (
{
name = t.uni0308;
position = "{557, 700}";
},
{
name = b.uni0324_3;
position = "{557, 0}";
}
);
layerId = "FE17A44E-3763-4243-92C2-150F6AC96B85";
shapes = (
{
closed = 1;
nodes = (
(521,0,l),
(521,700,l),
(1024,700,l),
(1024,603,l),
(634,603,l),
(634,402,l),
(981,402,l),
(981,309,l),
(634,309,l),
(634,97,l),
(1038,97,l),
(1038,0,l)
);
},
{
closed = 1;
nodes = (
(158,196,l),
(158,292,l),
(578,292,l),
(578,196,l)
);
},
{
closed = 1;
nodes = (
(85,0,l),
(85,391,ls),
(85,540,o),
(240,700,o),
(383,700,qs),
(578,700,l),
(578,597,l),
(392,597,ls),
(297,597,o),
(200,492,o),
(200,388,qs),
(200,0,l)
);
}
);
width = 1077;
},
{
anchors = (
{
name = t.uni0308;
position = "{557, 700}";
},
{
name = b.uni0324_3;
position = "{557, 0}";
}
);
layerId = "321F1C87-2BE4-472A-920D-C7836CF29DEE";
shapes = (
{
closed = 1;
nodes = (
(551,0,l),
(551,700,l),
(1002,700,l),
(1002,681,l),
(571,681,l),
(571,365,l),
(957,365,l),
(957,346,l),
(571,346,l),
(571,19,l),
(1017,19,l),
(1017,0,l)
);
},
{
closed = 1;
nodes = (
(129,241,l),
(129,260,l),
(561,260,l),
(561,241,l)
);
},
{
closed = 1;
nodes = (
(115,0,l),
(115,405,ls),
(115,545,o),
(254,700,o),
(380,700,qs),
(561,700,l),
(561,681,l),
(380,681,ls),
(262,681,o),
(135,537,o),
(135,405,qs),
(135,0,l)
);
}
);
width = 1059;
}
);
leftKerningGroup = A2;
rightKerningGroup = E;
},
{
glyphname = E.ss01;
layers = (
{
anchors = (
{
name = t.uni0308;
position = "{375, 700}";
},
{
name = b.uni0324_3;
position = "{375, 0}";
},
{
name = m.uni0328_4;
position = "{645, 0}";
}
);
layerId = "B8EF125A-8090-42B9-BB2C-F5A019E05E81";
shapes = (
{
closed = 1;
nodes = (
(272,-16,o),
(109,40,o),
(26,139,o),
(26,202,qs),
(26,254,o),
(81,336,o),
(186,385,o),
(260,385,q),
(265,333,l),
(194,333,o),
(101,378,o),
(55,454,o),
(55,498,qs),
(55,555,o),
(130,654,o),
(286,716,o),
(407,716,qs),
(480,716,o),
(617,691,o),
(669,670,q),
(605,498,l),
(555,518,o),
(462,536,o),
(416,536,qs),
(352,536,o),
(293,507,o),
(293,483,qs),
(293,464,o),
(321,440,o),
(358,440,qs),
(563,440,l),
(563,266,l),
(342,266,ls),
(315,266,o),
(281,254,o),
(264,233,o),
(264,218,qs),
(264,194,o),
(327,164,o),
(402,164,qs),
(454,164,o),
(574,192,o),
(620,217,q),
(689,46,l),
(634,18,o),
(476,-16,o),
(393,-16,qs)
);
}
);
width = 695;
},
{
anchors = (
{
name = t.uni0308;
position = "{392, 700}";
},
{
name = b.uni0324_3;
position = "{392, 0}";
},
{
name = m.uni0328_4;
position = "{681, 0}";
}
);
layerId = "FE17A44E-3763-4243-92C2-150F6AC96B85";
shapes = (
{
closed = 1;
nodes = (
(253,-9,o),
(117,43,o),
(48,135,o),
(48,193,qs),
(48,248,o),
(103,328,o),
(193,371,o),
(244,371,q),
(249,339,l),
(199,339,o),
(121,384,o),
(78,462,o),
(78,510,qs),
(78,564,o),
(141,654,o),
(271,709,o),
(369,709,qs),
(435,709,o),
(559,681,o),
(605,656,q),
(572,564,l),
(525,589,o),
(426,611,o),
(373,611,qs),
(282,611,o),
(193,549,o),
(193,502,qs),
(193,454,o),
(262,403,o),
(328,403,qs),
(510,403,l),
(510,305,l),
(322,305,ls),
(274,305,o),
(202,283,o),
(163,237,o),
(163,201,qs),
(163,151,o),
(258,89,o),
(359,89,qs),
(427,89,o),
(553,126,o),
(595,159,q),
(633,70,l),
(587,33,o),
(440,-9,o),
(354,-9,qs)
);
}
);
width = 649;
},
{
anchors = (
{
name = t.uni0308;
position = "{392, 700}";
},
{
name = b.uni0324_3;
position = "{392, 0}";
},
{
name = m.uni0328_4;
position = "{681, 0}";
}
);
layerId = "321F1C87-2BE4-472A-920D-C7836CF29DEE";
shapes = (
{
closed = 1;
nodes = (
(238,-3,o),
(123,46,o),
(65,130,o),
(65,184,qs),
(65,243,o),
(126,322,o),
(231,362,o),
(296,362,q),
(300,349,l),
(235,349,o),
(143,391,o),
(95,469,o),
(95,521,qs),
(95,571,o),
(150,654,o),
(259,703,o),
(339,703,qs),
(401,703,o),
(516,672,o),
(556,643,q),
(546,627,l),
(502,655,o),
(398,684,o),
(340,684,qs),
(228,684,o),
(115,590,o),
(115,520,qs),
(115,446,o),
(217,365,o),
(305,365,qs),
(469,365,l),
(469,346,l),
(306,346,ls),
(242,346,o),
(142,311,o),
(85,240,o),
(85,185,qs),
(85,110,o),
(204,16,o),
(325,16,qs),
(406,16,o),
(537,63,o),
(575,105,q),
(590,92,l),
(550,47,o),
(411,-3,o),
(324,-3,qs)
);
}
);
width = 614;
}
);
leftKerningGroup = E.ss012;
rightKerningGroup = E.ss01;
},
{
glyphname = Eogonek.ss01;
layers = (
{
anchors = (
{
name = t.uni0308;
position = "{375, 700}";
},
{
name = b.uni0324_3;
position = "{375, 0}";
}
);
layerId = "B8EF125A-8090-42B9-BB2C-F5A019E05E81";
shapes = (
{
closed = 1;
nodes = (
(482,-240,o),
(399,-173,o),
(399,-117,qs),
(399,-70,o),
(459,5,o),
(514,30,q),
(514,-6,l),
(484,-10,o),
(423,-16,o),
(393,-16,qs),
(272,-16,o),
(109,40,o),
(26,139,o),
(26,202,qs),
(26,254,o),
(81,336,o),
(186,385,o),
(260,385,q),
(265,333,l),
(194,333,o),
(101,378,o),
(55,454,o),
(55,498,qs),
(55,555,o),
(130,654,o),
(286,716,o),
(407,716,qs),
(480,716,o),
(617,691,o),
(669,670,q),
(605,498,l),
(555,518,o),
(462,536,o),
(416,536,qs),
(352,536,o),
(293,507,o),
(293,483,qs),
(293,464,o),
(321,440,o),
(358,440,qs),
(563,440,l),
(563,266,l),
(342,266,ls),
(315,266,o),
(281,254,o),
(264,233,o),
(264,218,qs),
(264,194,o),
(327,164,o),
(402,164,qs),
(454,164,o),
(574,192,o),
(620,217,q),
(689,46,l),
(633,22,o),
(563,-29,o),
(531,-75,o),
(531,-94,qs),
(531,-113,o),
(556,-138,o),
(584,-138,qs),
(601,-138,o),
(632,-129,o),
(643,-124,q),
(670,-217,l),
(652,-227,o),
(589,-240,o),
(557,-240,qs)
);
}
);
width = 695;
},
{
anchors = (
{
name = t.uni0308;
position = "{392, 700}";
},
{
name = b.uni0324_3;
position = "{392, 0}";
}
);
layerId = "FE17A44E-3763-4243-92C2-150F6AC96B85";
shapes = (
{
closed = 1;
nodes = (
(469,-226,o),
(403,-168,o),
(403,-122,qs),
(403,-81,o),
(444,-1,o),
(493,34,q),
(511,14,l),
(475,3,o),
(397,-9,o),
(354,-9,qs),
(253,-9,o),
(117,43,o),
(48,135,o),
(48,193,qs),
(48,248,o),
(103,328,o),
(193,371,o),
(244,371,q),
(249,339,l),
(199,339,o),
(121,384,o),
(78,462,o),
(78,510,qs),
(78,564,o),
(141,654,o),
(271,709,o),
(369,709,qs),
(435,709,o),
(559,681,o),
(605,656,q),
(572,564,l),
(525,589,o),
(426,611,o),
(373,611,qs),
(282,611,o),
(193,549,o),
(193,502,qs),
(193,454,o),
(262,403,o),
(328,403,qs),
(510,403,l),
(510,305,l),
(322,305,ls),
(274,305,o),
(202,283,o),
(163,237,o),
(163,201,qs),
(163,151,o),
(258,89,o),
(359,89,qs),
(427,89,o),
(553,128,o),
(595,159,q),
(633,69,l),
(571,29,o),
(505,-36,o),
(480,-89,o),
(480,-111,qs),
(480,-136,o),
(514,-163,o),
(540,-163,qs),
(556,-163,o),
(589,-154,o),
(601,-147,q),
(621,-203,l),
(602,-213,o),
(554,-226,o),
(528,-226,qs)
);
}
);
width = 649;
},
{
anchors = (
{
name = t.uni0308;
position = "{392, 700}";
},
{
name = b.uni0324_3;
position = "{392, 0}";
}
);
layerId = "321F1C87-2BE4-472A-920D-C7836CF29DEE";
shapes = (
{
closed = 1;
nodes = (
(468,-213,o),
(417,-167,o),
(417,-128,qs),
(417,-96,o),
(451,-14,o),
(506,38,q),
(508,33,l),
(468,15,o),
(377,-3,o),
(324,-3,qs),
(238,-3,o),
(123,46,o),
(65,130,o),
(65,184,qs),
(65,243,o),
(126,322,o),
(231,362,o),
(296,362,q),
(300,349,l),
(235,349,o),
(143,391,o),
(95,469,o),
(95,521,qs),
(95,571,o),
(150,654,o),
(259,703,o),
(339,703,qs),
(401,703,o),
(516,672,o),
(556,643,q),
(546,627,l),
(502,655,o),
(398,684,o),
(340,684,qs),
(228,684,o),
(115,590,o),
(115,520,qs),
(115,446,o),
(217,365,o),
(305,365,qs),
(469,365,l),
(469,346,l),
(306,346,ls),
(242,346,o),
(142,311,o),
(85,240,o),
(85,185,qs),
(85,110,o),
(204,16,o),
(325,16,qs),
(406,16,o),
(537,67,o),
(575,105,q),
(589,90,l),
(524,36,o),
(458,-45,o),
(437,-105,o),
(437,-128,qs),
(437,-160,o),
(477,-194,o),
(508,-194,qs),
(525,-194,o),
(558,-182,o),
(570,-171,q),
(581,-186,l),
(565,-200,o),
(528,-213,o),
(507,-213,qs)
);
}
);
width = 614;
}
);
leftKerningGroup = E.ss012;
rightKerningGroup = E.ss01;
},
{
glyphname = F.ss01;
layers = (
{
layerId = "B8EF125A-8090-42B9-BB2C-F5A019E05E81";
shapes = (
{
closed = 1;
nodes = (
(51,0,l),
(51,400,ls),
(51,552,o),
(238,716,o),
(408,716,qs),
(470,716,o),
(578,693,o),
(616,673,q),
(548,495,l),
(519,511,o),
(455,525,o),
(428,525,qs),
(361,525,o),
(287,467,o),
(287,405,qs),
(287,0,l)
);
},
{
closed = 1;
nodes = (
(196,224,l),
(196,402,l),
(535,402,l),
(535,224,l)
);
}
);
width = 625;
},
{
layerId = "FE17A44E-3763-4243-92C2-150F6AC96B85";
shapes = (
{
closed = 1;
nodes = (
(94,0,l),
(94,444,ls),
(94,568,o),
(253,709,o),
(392,709,qs),
(451,709,o),
(555,683,o),
(594,657,q),
(557,562,l),
(523,586,o),
(440,607,o),
(396,607,qs),
(302,607,o),
(208,523,o),
(208,443,qs),
(208,0,l)
);
},
{
closed = 1;
nodes = (
(166,275,l),
(166,374,l),
(521,374,l),
(521,275,l)
);
}
);
width = 608;
},
{
layerId = "321F1C87-2BE4-472A-920D-C7836CF29DEE";
shapes = (
{
closed = 1;
nodes = (
(127,0,l),
(127,482,ls),
(127,580,o),
(247,703,o),
(372,703,qs),
(432,703,o),
(537,674,o),
(577,642,q),
(564,626,l),
(525,657,o),
(428,684,o),
(372,684,qs),
(256,684,o),
(147,575,o),
(147,479,qs),
(147,0,l)
);
},
{
closed = 1;
nodes = (
(143,326,l),
(143,345,l),
(510,345,l),
(510,326,l)
);
}
);
width = 595;
}
);
leftKerningGroup = A.ss012;
rightKerningGroup = lira2;
},
{
glyphname = G.ss01;
layers = (
{
anchors = (
{
name = t.uni0308;
position = "{424, 701}";
},
{
name = b.uni0324_3;
position = "{410, 3}";
}
);
layerId = "B8EF125A-8090-42B9-BB2C-F5A019E05E81";
shapes = (
{
closed = 1;
nodes = (
(310,-16,o),
(182,30,o),
(84,121,o),
(29,254,o),
(29,341,qs),
(29,425,o),
(87,563,o),
(193,662,o),
(338,716,o),
(425,716,qs),
(529,716,o),
(692,646,o),
(745,581,q),
(594,448,l),
(561,486,o),
(484,525,o),
(437,525,qs),
(398,525,o),
(335,501,o),
(291,454,o),
(267,386,o),
(267,343,qs),
(267,298,o),
(290,232,o),
(331,191,o),
(385,171,o),
(416,171,qs),
(463,171,o),
(543,211,o),
(563,251,q),
(663,189,l),
(627,77,o),
(483,-16,o),
(383,-16,qs)
);
},
{
closed = 1;
nodes = (
(571,0,l),
(571,90,l),
(520,115,l),
(520,369,l),
(725,369,l),
(725,0,l)
);
}
);
width = 769;
},
{
anchors = (
{
name = t.uni0308;
position = "{434, 701}";
},
{
name = b.uni0324_3;
position = "{413, 4}";
}
);
layerId = "FE17A44E-3763-4243-92C2-150F6AC96B85";
shapes = (
{
closed = 1;
nodes = (
(331,-9,o),
(203,37,o),
(103,128,o),
(46,260,o),
(46,346,qs),
(46,426,o),
(102,558,o),
(204,656,o),
(341,709,o),
(423,709,qs),
(509,709,o),
(649,653,o),
(698,598,q),
(626,526,l),
(584,568,o),
(486,607,o),
(428,607,qs),
(370,607,o),
(272,569,o),
(200,500,o),
(161,404,o),
(161,347,qs),
(161,284,o),
(202,189,o),
(273,124,o),
(362,91,o),
(411,91,qs),
(468,91,o),
(575,136,o),
(612,184,q),
(661,114,l),
(626,53,o),
(489,-9,o),
(402,-9,qs)
);
},
{
closed = 1;
nodes = (
(590,0,l),
(590,93,l),
(580,107,l),
(580,356,l),
(690,356,l),
(690,0,l)
);
}
);
width = 772;
},
{
anchors = (
{
name = t.uni0308;
position = "{434, 701}";
},
{
name = b.uni0324_3;
position = "{413, 4}";
}
);
layerId = "321F1C87-2BE4-472A-920D-C7836CF29DEE";
shapes = (
{
closed = 1;
nodes = (
(342,-3,o),
(218,43,o),
(118,133,o),
(59,265,o),
(59,350,qs),
(59,426,o),
(113,554,o),
(211,650,o),
(343,703,o),
(421,703,qs),
(492,703,o),
(617,659,o),
(662,614,q),
(650,600,l),
(602,646,o),
(487,684,o),
(421,684,qs),
(348,684,o),
(223,633,o),
(130,542,o),
(79,421,o),
(79,350,qs),
(79,271,o),
(134,147,o),
(227,61,o),
(345,16,o),
(408,16,qs),
(473,16,o),
(601,66,o),
(650,120,q),
(657,99,l),
(607,47,o),
(476,-3,o),
(408,-3,qs)
);
},
{
closed = 1;
nodes = (
(643,0,l),
(643,96,l),
(643,100,l),
(643,343,l),
(662,343,l),
(662,0,l)
);
}
);
width = 774;
}
);
leftKerningGroup = C2;
rightKerningGroup = G;
},
{
glyphname = uni01E4.ss01;
layers = (
{
anchors = (
{
name = t.uni0308;
position = "{424, 701}";
},
{
name = b.uni0324_3;
position = "{410, 3}";
}
);
layerId = "B8EF125A-8090-42B9-BB2C-F5A019E05E81";
shapes = (
{
closed = 1;
nodes = (
(393,205,l),
(393,339,l),
(807,339,l),
(807,205,l)
);
},
{
closed = 1;
nodes = (
(310,-16,o),
(182,30,o),
(84,121,o),
(29,254,o),
(29,341,qs),
(29,425,o),
(87,563,o),
(193,662,o),
(338,716,o),
(425,716,qs),
(529,716,o),
(692,646,o),
(745,581,q),
(594,448,l),
(561,486,o),
(484,525,o),
(437,525,qs),
(398,525,o),
(335,501,o),
(291,454,o),
(267,386,o),
(267,343,qs),
(267,298,o),
(290,232,o),
(331,191,o),
(385,171,o),
(416,171,qs),
(463,171,o),
(543,211,o),
(563,251,q),
(663,189,l),
(627,77,o),
(483,-16,o),
(383,-16,qs)
);
},
{
closed = 1;
nodes = (
(571,0,l),
(571,90,l),
(520,115,l),
(520,369,l),
(725,369,l),
(725,0,l)
);
}
);
width = 821;
},
{
anchors = (
{
name = t.uni0308;
position = "{434, 701}";
},
{
name = b.uni0324_3;
position = "{413, 4}";
}
);
layerId = "FE17A44E-3763-4243-92C2-150F6AC96B85";
shapes = (
{
closed = 1;
nodes = (
(398,193,l),
(398,283,l),
(786,283,l),
(786,193,l)
);
},
{
closed = 1;
nodes = (
(331,-9,o),
(203,37,o),
(103,128,o),
(46,260,o),
(46,346,qs),
(46,426,o),
(102,558,o),
(204,656,o),
(341,709,o),
(423,709,qs),
(509,709,o),
(649,653,o),
(698,598,q),
(626,526,l),
(584,568,o),
(486,607,o),
(428,607,qs),
(370,607,o),
(272,569,o),
(200,500,o),
(161,404,o),
(161,347,qs),
(161,284,o),
(202,189,o),
(273,124,o),
(362,91,o),
(411,91,qs),
(468,91,o),
(575,136,o),
(612,184,q),
(661,114,l),
(626,53,o),
(489,-9,o),
(402,-9,qs)
);
},
{
closed = 1;
nodes = (
(590,0,l),
(590,93,l),
(580,107,l),
(580,356,l),
(690,356,l),
(690,0,l)
);
}
);
width = 812;
},
{
anchors = (
{
name = t.uni0308;
position = "{434, 701}";
},
{
name = b.uni0324_3;
position = "{413, 4}";
}
);
layerId = "321F1C87-2BE4-472A-920D-C7836CF29DEE";
shapes = (
{
closed = 1;
nodes = (
(421,224,l),
(421,243,l),
(781,243,l),
(781,224,l)
);
},
{
closed = 1;
nodes = (
(342,-3,o),
(218,43,o),
(118,133,o),
(59,265,o),
(59,350,qs),
(59,426,o),
(113,554,o),
(211,650,o),
(343,703,o),
(421,703,qs),
(492,703,o),
(617,659,o),
(662,614,q),
(650,600,l),
(602,646,o),
(487,684,o),
(421,684,qs),
(348,684,o),
(223,633,o),
(130,542,o),
(79,421,o),
(79,350,qs),
(79,271,o),
(134,147,o),
(227,61,o),
(345,16,o),
(408,16,qs),
(473,16,o),
(601,66,o),
(650,120,q),
(657,99,l),
(607,47,o),
(476,-3,o),
(408,-3,qs)
);
},
{
closed = 1;
nodes = (
(643,0,l),
(643,96,l),
(643,100,l),
(643,343,l),
(662,343,l),
(662,0,l)
);
}
);
width = 810;
}
);
leftKerningGroup = C2;
rightKerningGroup = G;
},
{
glyphname = I.ss01;
layers = (
{
anchors = (
{
name = t.uni0308;
position = "{258, 700}";
},
{
name = b.uni0324_3;
position = "{258, 0}";
},
{
name = m.uni0328_4;
position = "{376, 0}";
}
);
layerId = "B8EF125A-8090-42B9-BB2C-F5A019E05E81";
shapes = (
{
closed = 1;
nodes = (
(140,20,l),
(140,681,l),
(376,681,l),
(376,20,l)
);
},
{
closed = 1;
nodes = (
(35,0,l),
(35,178,l),
(481,178,l),
(481,0,l)
);
},
{
closed = 1;
nodes = (
(35,522,l),
(35,700,l),
(481,700,l),
(481,522,l)
);
}
);
width = 516;
},
{
anchors = (
{
name = t.uni0308;
position = "{279, 700}";
},
{
name = b.uni0324_3;
position = "{279, 0}";
},
{
name = m.uni0328_4;
position = "{444, 0}";
}
);
layerId = "FE17A44E-3763-4243-92C2-150F6AC96B85";
shapes = (
{
closed = 1;
nodes = (
(174,15,l),
(174,686,l),
(288,686,l),
(288,15,l)
);
},
{
closed = 1;
nodes = (
(42,0,l),
(42,99,l),
(420,99,l),
(420,0,l)
);
},
{
closed = 1;
nodes = (
(42,601,l),
(42,700,l),
(420,700,l),
(420,601,l)
);
}
);
width = 462;
},
{
anchors = (
{
name = t.uni0308;
position = "{279, 700}";
},
{
name = b.uni0324_3;
position = "{279, 0}";
},
{
name = m.uni0328_4;
position = "{444, 0}";
}
);
layerId = "321F1C87-2BE4-472A-920D-C7836CF29DEE";
shapes = (
{
closed = 1;
nodes = (
(201,10,l),
(201,690,l),
(221,690,l),
(221,10,l)
);
},
{
closed = 1;
nodes = (
(47,0,l),
(47,19,l),
(375,19,l),
(375,0,l)
);
},
{
closed = 1;
nodes = (
(47,681,l),
(47,700,l),
(375,700,l),
(375,681,l)
);
}
);
width = 422;
}
);
leftKerningGroup = I.ss012;
rightKerningGroup = I.ss01;
},
{
glyphname = IJ.ss01;
layers = (
{
anchors = (
{
name = t.uni0308;
position = "{169, 700}";
}
);
layerId = "B8EF125A-8090-42B9-BB2C-F5A019E05E81";
shapes = (
{
closed = 1;
nodes = (
(238,-110,o),
(86,-64,o),
(31,-25,q),
(117,142,l),
(167,108,o),
(273,75,o),
(317,75,qs),
(382,75,o),
(442,142,o),
(442,215,qs),
(442,700,l),
(678,700,l),
(678,231,ls),
(678,121,o),
(591,-31,o),
(433,-110,o),
(328,-110,qs)
);
},
{
closed = 1;
nodes = (
(51,236,l),
(51,700,l),
(287,700,l),
(287,236,l)
);
}
);
width = 729;
},
{
anchors = (
{
name = t.uni0308;
position = "{170, 700}";
}
);
layerId = "FE17A44E-3763-4243-92C2-150F6AC96B85";
shapes = (
{
closed = 1;
nodes = (
(254,-109,o),
(128,-69,o),
(81,-37,q),
(125,55,l),
(169,25,o),
(274,-7,o),
(329,-7,qs),
(418,-7,o),
(513,96,o),
(513,203,qs),
(513,700,l),
(627,700,l),
(627,209,ls),
(627,105,o),
(552,-37,o),
(418,-109,o),
(327,-109,qs)
);
},
{
closed = 1;
nodes = (
(94,212,l),
(94,700,l),
(208,700,l),
(208,212,l)
);
}
);
width = 721;
},
{
anchors = (
{
name = t.uni0308;
position = "{170, 700}";
}
);
layerId = "321F1C87-2BE4-472A-920D-C7836CF29DEE";
shapes = (
{
closed = 1;
nodes = (
(267,-103,o),
(161,-66,o),
(120,-38,q),
(132,-22,l),
(172,-51,o),
(272,-84,o),
(328,-84,qs),
(439,-84,o),
(567,54,o),
(567,194,qs),
(567,700,l),
(587,700,l),
(587,193,ls),
(587,94,o),
(522,-37,o),
(406,-103,o),
(327,-103,qs)
);
},
{
closed = 1;
nodes = (
(127,190,l),
(127,700,l),
(147,700,l),
(147,190,l)
);
}
);
width = 714;
}
);
leftKerningGroup = B2;
rightKerningGroup = J.ss01;
},
{
glyphname = Iacute_J.loclNLD.ss01;
layers = (
{
layerId = "B8EF125A-8090-42B9-BB2C-F5A019E05E81";
shapes = (
{
closed = 1;
nodes = (
(238,-110,o),
(86,-64,o),
(31,-25,q),
(117,142,l),
(167,111,o),
(273,78,o),
(317,78,qs),
(382,78,o),
(442,145,o),
(442,218,qs),
(442,700,l),
(678,700,l),
(678,231,ls),
(678,121,o),
(591,-31,o),
(433,-110,o),
(328,-110,qs)
);
},
{
closed = 1;
nodes = (
(51,236,l),
(51,700,l),
(287,700,l),
(287,236,l)
);
},
{
closed = 1;
nodes = (
(64,757,l),
(196,917,l),
(411,917,l),
(214,757,l)
);
},
{
closed = 1;
nodes = (
(454,757,l),
(586,917,l),
(801,917,l),
(604,757,l)
);
}
);
width = 729;
},
{
layerId = "FE17A44E-3763-4243-92C2-150F6AC96B85";
shapes = (
{
closed = 1;
nodes = (
(254,-106,o),
(128,-65,o),
(81,-32,q),
(125,58,l),
(169,27,o),
(272,-5,o),
(323,-5,qs),
(415,-5,o),
(512,98,o),
(512,206,qs),
(512,700,l),
(627,700,l),
(627,211,ls),
(627,107,o),
(552,-34,o),
(418,-106,o),
(327,-106,qs)
);
},
{
closed = 1;
nodes = (
(94,212,l),
(94,700,l),
(208,700,l),
(208,212,l)
);
},
{
closed = 1;
nodes = (
(97,757,l),
(233,891,l),
(350,891,l),
(179,757,l)
);
},
{
closed = 1;
nodes = (
(516,757,l),
(652,891,l),
(769,891,l),
(598,757,l)
);
}
);
width = 721;
},
{
layerId = "321F1C87-2BE4-472A-920D-C7836CF29DEE";
shapes = (
{
closed = 1;
nodes = (
(267,-103,o),
(161,-66,o),
(120,-38,q),
(132,-22,l),
(172,-51,o),
(272,-84,o),
(328,-84,qs),
(439,-84,o),
(567,54,o),
(567,194,qs),
(567,700,l),
(587,700,l),
(587,193,ls),
(587,94,o),
(522,-37,o),
(406,-103,o),
(327,-103,qs)
);
},
{
closed = 1;
nodes = (
(127,190,l),
(127,700,l),
(147,700,l),
(147,190,l)
);
},
{
closed = 1;
nodes = (
(122,757,l),
(262,867,l),
(302,867,l),
(152,757,l)
);
},
{
closed = 1;
nodes = (
(564,757,l),
(704,867,l),
(744,867,l),
(594,757,l)
);
}
);
width = 714;
}
);
leftKerningGroup = I.ss012;
},
{
glyphname = J.ss01;
layers = (
{
anchors = (
{
name = t.uni0308;
position = "{288, 700}";
}
);
layerId = "B8EF125A-8090-42B9-BB2C-F5A019E05E81";
shapes = (
{
closed = 1;
nodes = (
(152,-116,o),
(20,-63,o),
(-24,-12,q),
(103,138,l),
(131,104,o),
(185,69,o),
(214,69,qs),
(290,69,o),
(290,156,qs),
(290,522,l),
(52,522,l),
(52,700,l),
(523,700,l),
(523,170,ls),
(523,26,o),
(375,-116,o),
(234,-116,qs)
);
}
);
width = 574;
},
{
anchors = (
{
name = t.uni0308;
position = "{320, 700}";
}
);
layerId = "FE17A44E-3763-4243-92C2-150F6AC96B85";
shapes = (
{
closed = 1;
nodes = (
(131,-109,o),
(24,-57,o),
(-11,-8,q),
(52,71,l),
(81,31,o),
(151,-10,o),
(193,-10,qs),
(309,-10,o),
(309,125,qs),
(309,601,l),
(58,601,l),
(58,700,l),
(423,700,l),
(423,131,ls),
(423,10,o),
(307,-109,o),
(195,-109,qs)
);
}
);
width = 517;
},
{
anchors = (
{
name = t.uni0308;
position = "{320, 700}";
}
);
layerId = "321F1C87-2BE4-472A-920D-C7836CF29DEE";
shapes = (
{
closed = 1;
nodes = (
(125,-103,o),
(32,-50,o),
(4,-4,q),
(18,8,l),
(47,-36,o),
(130,-84,o),
(179,-84,qs),
(330,-84,o),
(330,96,qs),
(330,681,l),
(68,681,l),
(68,700,l),
(350,700,l),
(350,94,ls),
(350,-4,o),
(264,-103,o),
(178,-103,qs)
);
}
);
width = 477;
}
);
leftKerningGroup = J.ss012;
rightKerningGroup = J.ss01;
},
{
glyphname = M.ss01;
layers = (
{
anchors = (
{
name = t.uni0308;
position = "{598, 700}";
},
{
name = b.uni0324_3;
position = "{601, 0}";
}
);
layerId = "B8EF125A-8090-42B9-BB2C-F5A019E05E81";
shapes = (
{
closed = 1;
nodes = (
(1020,716,o),
(1161,568,o),
(1161,425,qs),
(1161,0,l),
(925,0,l),
(925,418,ls),
(925,471,o),
(870,525,o),
(824,525,qs),
(778,525,o),
(719,468,o),
(719,410,qs),
(719,0,l),
(483,0,l),
(483,418,ls),
(483,471,o),
(433,525,o),
(390,525,qs),
(361,525,o),
(317,500,o),
(293,449,o),
(293,410,qs),
(293,0,l),
(57,0,l),
(57,700,l),
(285,700,l),
(285,524,l),
(251,565,l),
(277,638,o),
(392,716,o),
(478,716,qs),
(567,716,o),
(685,633,o),
(711,551,q),
(639,559,l),
(672,638,o),
(808,716,o),
(896,716,qs)
);
}
);
width = 1212;
},
{
anchors = (
{
name = t.uni0308;
position = "{601, 700}";
},
{
name = b.uni0324_3;
position = "{604, 0}";
}
);
layerId = "FE17A44E-3763-4243-92C2-150F6AC96B85";
shapes = (
{
closed = 1;
nodes = (
(994,709,o),
(1133,570,o),
(1133,434,qs),
(1133,0,l),
(1019,0,l),
(1019,430,ls),
(1019,522,o),
(924,607,o),
(854,607,qs),
(775,607,o),
(673,518,o),
(673,418,qs),
(673,0,l),
(559,0,l),
(559,430,ls),
(559,522,o),
(470,607,o),
(399,607,qs),
(347,607,o),
(263,568,o),
(214,485,o),
(214,418,qs),
(214,0,l),
(100,0,l),
(100,700,l),
(210,700,l),
(210,563,l),
(196,579,l),
(223,639,o),
(344,709,o),
(427,709,qs),
(516,709,o),
(636,632,o),
(656,567,q),
(625,569,l),
(654,635,o),
(787,709,o),
(873,709,qs)
);
}
);
width = 1227;
},
{
anchors = (
{
name = t.uni0308;
position = "{601, 700}";
},
{
name = b.uni0324_3;
position = "{604, 0}";
}
);
layerId = "321F1C87-2BE4-472A-920D-C7836CF29DEE";
shapes = (
{
closed = 1;
nodes = (
(964,703,o),
(1097,572,o),
(1097,442,qs),
(1097,0,l),
(1077,0,l),
(1077,441,ls),
(1077,563,o),
(958,684,o),
(850,684,qs),
(744,684,o),
(624,558,o),
(624,421,qs),
(624,0,l),
(604,0,l),
(604,441,ls),
(604,563,o),
(486,684,o),
(378,684,qs),
(307,684,o),
(206,628,o),
(153,512,o),
(153,421,qs),
(153,0,l),
(133,0,l),
(133,700,l),
(153,700,l),
(153,543,l),
(151,545,l),
(177,627,o),
(294,703,o),
(379,703,qs),
(473,703,o),
(598,612,o),
(618,520,q),
(614,520,l),
(637,615,o),
(761,703,o),
(851,703,qs)
);
}
);
width = 1224;
}
);
leftKerningGroup = B2;
rightKerningGroup = M.ss01;
},
{
glyphname = N.ss01;
layers = (
{
anchors = (
{
name = t.uni0308;
position = "{400, 700}";
},
{
name = b.uni0324_3;
position = "{400, 0}";
}
);
layerId = "B8EF125A-8090-42B9-BB2C-F5A019E05E81";
shapes = (
{
closed = 1;
nodes = (
(606,716,o),
(743,555,o),
(743,405,qs),
(743,0,l),
(507,0,l),
(507,398,ls),
(507,464,o),
(450,525,o),
(403,525,qs),
(357,525,o),
(293,460,o),
(293,390,qs),
(293,0,l),
(57,0,l),
(57,700,l),
(286,700,l),
(286,519,l),
(250,563,l),
(281,635,o),
(398,716,o),
(482,716,qs)
);
}
);
width = 794;
},
{
anchors = (
{
name = t.uni0308;
position = "{399, 700}";
},
{
name = b.uni0324_3;
position = "{400, 0}";
}
);
layerId = "FE17A44E-3763-4243-92C2-150F6AC96B85";
shapes = (
{
closed = 1;
nodes = (
(561,709,o),
(704,557,o),
(704,414,qs),
(704,0,l),
(590,0,l),
(590,410,ls),
(590,509,o),
(493,607,o),
(412,607,qs),
(324,607,o),
(214,504,o),
(214,396,qs),
(214,0,l),
(100,0,l),
(100,700,l),
(210,700,l),
(210,530,l),
(177,548,l),
(211,633,o),
(344,709,o),
(436,709,qs)
);
}
);
width = 798;
},
{
anchors = (
{
name = t.uni0308;
position = "{399, 700}";
},
{
name = b.uni0324_3;
position = "{400, 0}";
}
);
layerId = "321F1C87-2BE4-472A-920D-C7836CF29DEE";
shapes = (
{
closed = 1;
nodes = (
(529,703,o),
(673,559,o),
(673,422,qs),
(673,0,l),
(653,0,l),
(653,421,ls),
(653,551,o),
(522,684,o),
(403,684,qs),
(284,684,o),
(153,545,o),
(153,401,qs),
(153,0,l),
(133,0,l),
(133,700,l),
(153,700,l),
(153,524,l),
(151,527,l),
(177,616,o),
(309,703,o),
(404,703,qs)
);
}
);
width = 800;
}
);
leftKerningGroup = B2;
rightKerningGroup = M.ss01;
},
{
glyphname = Eng.ss01;
layers = (
{
layerId = "B8EF125A-8090-42B9-BB2C-F5A019E05E81";
shapes = (
{
closed = 1;
nodes = (
(606,716,o),
(743,555,o),
(743,405,qs),
(743,82,ls),
(743,-62,o),
(592,-204,o),
(451,-204,qs),
(394,-204,o),
(295,-180,o),
(254,-153,q),
(362,10,l),
(379,-2,o),
(413,-13,o),
(431,-13,qs),
(507,-13,o),
(507,72,qs),
(507,398,ls),
(507,464,o),
(450,525,o),
(403,525,qs),
(357,525,o),
(293,460,o),
(293,390,qs),
(293,0,l),
(57,0,l),
(57,700,l),
(286,700,l),
(286,519,l),
(250,563,l),
(281,635,o),
(398,716,o),
(482,716,qs)
);
}
);
width = 794;
},
{
layerId = "FE17A44E-3763-4243-92C2-150F6AC96B85";
shapes = (
{
closed = 1;
nodes = (
(561,709,o),
(704,557,o),
(704,414,qs),
(704,40,ls),
(704,-81,o),
(589,-200,o),
(479,-200,qs),
(424,-200,o),
(329,-162,o),
(295,-125,q),
(350,-39,l),
(374,-68,o),
(438,-101,o),
(477,-101,qs),
(590,-101,o),
(590,36,qs),
(590,410,ls),
(590,509,o),
(493,607,o),
(412,607,qs),
(324,607,o),
(214,504,o),
(214,396,qs),
(214,0,l),
(100,0,l),
(100,700,l),
(210,700,l),
(210,530,l),
(177,548,l),
(211,633,o),
(344,709,o),
(436,709,qs)
);
}
);
width = 798;
},
{
layerId = "321F1C87-2BE4-472A-920D-C7836CF29DEE";
shapes = (
{
closed = 1;
nodes = (
(529,703,o),
(673,559,o),
(673,422,qs),
(673,0,ls),
(673,-98,o),
(587,-197,o),
(501,-197,qs),
(448,-197,o),
(355,-144,o),
(327,-98,q),
(341,-86,l),
(370,-130,o),
(453,-178,o),
(502,-178,qs),
(653,-178,o),
(653,2,qs),
(653,421,ls),
(653,551,o),
(522,684,o),
(403,684,qs),
(284,684,o),
(153,545,o),
(153,401,qs),
(153,0,l),
(133,0,l),
(133,700,l),
(153,700,l),
(153,524,l),
(151,527,l),
(177,616,o),
(309,703,o),
(404,703,qs)
);
}
);
width = 800;
}
);
leftKerningGroup = B2;
rightKerningGroup = M.ss01;
},
{
glyphname = Q.ss01;
layers = (
{
layerId = "B8EF125A-8090-42B9-BB2C-F5A019E05E81";
shapes = (
{
closed = 1;
nodes = (
(306,-135,l),
(306,25,l),
(315,92,l),
(315,315,l),
(532,315,l),
(532,92,l),
(542,25,l),
(542,-135,l)
);
},
{
closed = 1;
nodes = (
(339,-16,o),
(194,38,o),
(88,137,o),
(29,271,o),
(29,350,qs),
(29,430,o),
(88,563,o),
(194,662,o),
(339,716,o),
(424,716,qs),
(510,716,o),
(654,662,o),
(760,563,o),
(819,430,o),
(819,351,qs),
(819,271,o),
(760,138,o),
(654,39,o),
(510,-16,o),
(425,-16,qs)
);
},
{
closed = 1;
nodes = (
(462,175,o),
(520,198,o),
(560,242,o),
(581,308,o),
(581,350,qs),
(581,391,o),
(557,456,o),
(514,501,o),
(457,525,o),
(424,525,qs),
(391,525,o),
(334,501,o),
(291,456,o),
(267,391,o),
(267,350,qs),
(267,308,o),
(288,242,o),
(328,198,o),
(386,175,o),
(424,175,qs)
);
}
);
width = 848;
},
{
layerId = "FE17A44E-3763-4243-92C2-150F6AC96B85";
shapes = (
{
closed = 1;
nodes = (
(363,-135,l),
(363,13,l),
(367,50,l),
(367,258,l),
(473,258,l),
(473,50,l),
(478,13,l),
(478,-135,l)
);
},
{
closed = 1;
nodes = (
(340,-9,o),
(203,45,o),
(102,142,o),
(46,273,o),
(46,350,qs),
(46,427,o),
(102,558,o),
(203,655,o),
(340,709,o),
(421,709,qs),
(502,709,o),
(638,656,o),
(739,559,o),
(795,428,o),
(795,350,qs),
(795,272,o),
(739,141,o),
(638,44,o),
(502,-9,o),
(421,-9,qs)
);
},
{
closed = 1;
nodes = (
(477,93,o),
(571,131,o),
(641,201,o),
(680,295,o),
(680,350,qs),
(680,406,o),
(641,499,o),
(571,569,o),
(477,607,o),
(421,607,qs),
(365,607,o),
(270,569,o),
(200,499,o),
(161,406,o),
(161,350,qs),
(161,295,o),
(200,201,o),
(270,131,o),
(365,93,o),
(421,93,qs)
);
}
);
width = 841;
},
{
layerId = "321F1C87-2BE4-472A-920D-C7836CF29DEE";
shapes = (
{
closed = 1;
nodes = (
(408,-135,l),
(408,1,l),
(408,10,l),
(408,205,l),
(428,205,l),
(428,10,l),
(428,1,l),
(428,-135,l)
);
},
{
closed = 1;
nodes = (
(341,-3,o),
(210,50,o),
(113,146,o),
(59,274,o),
(59,350,qs),
(59,426,o),
(113,554,o),
(210,650,o),
(341,703,o),
(418,703,qs),
(495,703,o),
(626,650,o),
(723,554,o),
(777,426,o),
(777,350,qs),
(777,274,o),
(723,146,o),
(626,50,o),
(495,-3,o),
(418,-3,qs)
);
},
{
closed = 1;
nodes = (
(490,16,o),
(614,67,o),
(706,158,o),
(757,279,o),
(757,350,qs),
(757,421,o),
(706,542,o),
(614,633,o),
(490,684,o),
(418,684,qs),
(346,684,o),
(222,633,o),
(130,542,o),
(79,421,o),
(79,350,qs),
(79,279,o),
(130,158,o),
(222,67,o),
(346,16,o),
(418,16,qs)
);
}
);
width = 836;
}
);
leftKerningGroup = C2;
rightKerningGroup = D;
},
{
glyphname = uni018F.ss01;
layers = (
{
anchors = (
{
name = t.uni0308;
position = "{409, 700}";
},
{
name = b.uni0324_3;
position = "{409, 0}";
}
);
layerId = "B8EF125A-8090-42B9-BB2C-F5A019E05E81";
shapes = (
{
closed = 1;
nodes = (
(314,-16,o),
(162,51,o),
(60,175,o),
(40,259,q),
(562,469,l),
(611,341,l),
(201,173,l),
(277,312,l),
(270,239,o),
(331,157,o),
(409,157,qs),
(444,157,o),
(497,178,o),
(533,218,o),
(551,276,o),
(551,312,qs),
(551,360,ls),
(551,396,o),
(527,457,o),
(484,501,o),
(424,525,o),
(387,525,qs),
(360,525,o),
(293,506,o),
(230,469,o),
(208,443,q),
(69,586,l),
(102,622,o),
(204,681,o),
(326,716,o),
(389,716,qs),
(477,716,o),
(624,663,o),
(731,565,o),
(789,431,o),
(789,350,qs),
(789,269,o),
(732,134,o),
(630,37,o),
(491,-16,o),
(409,-16,qs)
);
}
);
width = 818;
},
{
anchors = (
{
name = t.uni0308;
position = "{409, 700}";
},
{
name = b.uni0324_3;
position = "{409, 0}";
}
);
layerId = "FE17A44E-3763-4243-92C2-150F6AC96B85";
shapes = (
{
closed = 1;
nodes = (
(327,-9,o),
(190,50,o),
(91,159,o),
(65,235,q),
(654,473,l),
(679,380,l),
(150,165,l),
(183,250,l),
(204,177,o),
(321,90,o),
(409,90,qs),
(465,90,o),
(556,126,o),
(621,194,o),
(656,287,o),
(656,344,qs),
(656,355,ls),
(656,409,o),
(617,501,o),
(548,569,o),
(456,607,o),
(403,607,qs),
(362,607,o),
(283,589,o),
(213,553,o),
(185,525,q),
(116,604,l),
(149,637,o),
(238,684,o),
(345,709,o),
(404,709,qs),
(484,709,o),
(618,656,o),
(717,559,o),
(771,428,o),
(771,351,qs),
(771,273,o),
(717,142,o),
(619,45,o),
(487,-9,o),
(409,-9,qs)
);
}
);
width = 817;
},
{
anchors = (
{
name = t.uni0308;
position = "{409, 700}";
},
{
name = b.uni0324_3;
position = "{409, 0}";
}
);
layerId = "321F1C87-2BE4-472A-920D-C7836CF29DEE";
shapes = (
{
closed = 1;
nodes = (
(336,-3,o),
(212,47,o),
(118,136,o),
(91,196,q),
(725,461,l),
(732,444,l),
(110,184,l),
(116,191,l),
(157,111,o),
(311,16,o),
(408,16,qs),
(475,16,o),
(594,67,o),
(685,158,o),
(737,279,o),
(737,349,qs),
(737,351,ls),
(737,422,o),
(686,543,o),
(593,633,o),
(470,684,o),
(398,684,qs),
(355,684,o),
(274,668,o),
(201,632,o),
(167,603,q),
(156,618,l),
(188,647,o),
(264,684,o),
(351,703,o),
(398,703,qs),
(475,703,o),
(606,650,o),
(703,555,o),
(757,426,o),
(757,351,qs),
(757,278,o),
(703,150,o),
(607,52,o),
(481,-3,o),
(408,-3,qs)
);
}
);
width = 816;
}
);
leftKerningGroup = C2;
rightKerningGroup = D;
},
{
glyphname = T.ss01;
layers = (
{
anchors = (
{
name = t.uni0308;
position = "{347, 701}";
},
{
name = t.uni0307_1;
position = "{341, 300}";
},
{
name = b.uni0324_3;
position = "{342, 0}";
}
);
layerId = "B8EF125A-8090-42B9-BB2C-F5A019E05E81";
shapes = (
{
closed = 1;
nodes = (
(-18,623,l),
(58,669,o),
(244,716,o),
(342,716,qs),
(440,716,o),
(626,669,o),
(702,623,q),
(624,455,l),
(561,490,o),
(425,528,o),
(342,528,qs),
(259,528,o),
(123,490,o),
(60,455,q)
);
},
{
closed = 1;
nodes = (
(224,0,l),
(224,606,l),
(460,606,l),
(460,0,l)
);
}
);
width = 684;
},
{
anchors = (
{
name = t.uni0308;
position = "{379, 702}";
},
{
name = t.uni0307_1;
position = "{370, 276}";
},
{
name = b.uni0324_3;
position = "{372, 0}";
}
);
layerId = "FE17A44E-3763-4243-92C2-150F6AC96B85";
shapes = (
{
closed = 1;
nodes = (
(-6,627,l),
(65,669,o),
(222,709,o),
(303,709,qs),
(384,709,o),
(543,669,o),
(613,627,q),
(573,537,l),
(511,573,o),
(376,608,o),
(303,608,qs),
(231,608,o),
(97,573,o),
(34,537,q)
);
},
{
closed = 1;
nodes = (
(247,0,l),
(247,649,l),
(361,649,l),
(361,0,l)
);
}
);
width = 607;
},
{
anchors = (
{
name = t.uni0308;
position = "{379, 702}";
},
{
name = t.uni0307_1;
position = "{370, 276}";
},
{
name = b.uni0324_3;
position = "{372, 0}";
}
);
layerId = "321F1C87-2BE4-472A-920D-C7836CF29DEE";
shapes = (
{
closed = 1;
nodes = (
(4,631,l),
(69,669,o),
(206,703,o),
(273,703,qs),
(341,703,o),
(479,669,o),
(544,631,q),
(534,615,l),
(473,652,o),
(337,684,o),
(273,684,qs),
(209,684,o),
(76,652,o),
(14,615,q)
);
},
{
closed = 1;
nodes = (
(264,0,l),
(264,690,l),
(284,690,l),
(284,0,l)
);
}
);
width = 548;
}
);
leftKerningGroup = T.ss012;
rightKerningGroup = T.ss01;
},
{
glyphname = U.ss01;
layers = (
{
anchors = (
{
name = t.uni0308;
position = "{390, 700}";
},
{
name = t.uni031B_2;
position = "{628, 700}";
},
{
name = b.uni0324_3;
position = "{390, 0}";
},
{
name = m.uni0328_4;
position = "{733, 0}";
}
);
layerId = "B8EF125A-8090-42B9-BB2C-F5A019E05E81";
shapes = (
{
closed = 1;
nodes = (
(188,-16,o),
(51,145,o),
(51,295,qs),
(51,700,l),
(287,700,l),
(287,302,ls),
(287,236,o),
(343,175,o),
(389,175,qs),
(433,175,o),
(497,240,o),
(497,310,qs),
(497,700,l),
(733,700,l),
(733,0,l),
(504,0,l),
(504,181,l),
(540,137,l),
(509,65,o),
(393,-16,o),
(310,-16,qs)
);
}
);
width = 790;
},
{
anchors = (
{
name = t.uni0308;
position = "{389, 700}";
},
{
name = t.uni031B_2;
position = "{611, 700}";
},
{
name = b.uni0324_3;
position = "{389, 0}";
},
{
name = m.uni0328_4;
position = "{764, 0}";
}
);
layerId = "FE17A44E-3763-4243-92C2-150F6AC96B85";
shapes = (
{
closed = 1;
nodes = (
(237,-9,o),
(94,143,o),
(94,286,qs),
(94,700,l),
(208,700,l),
(208,290,ls),
(208,191,o),
(305,93,o),
(384,93,qs),
(470,93,o),
(580,196,o),
(580,304,qs),
(580,700,l),
(694,700,l),
(694,0,l),
(584,0,l),
(584,170,l),
(617,152,l),
(583,67,o),
(451,-9,o),
(360,-9,qs)
);
}
);
width = 794;
},
{
anchors = (
{
name = t.uni0308;
position = "{389, 700}";
},
{
name = t.uni031B_2;
position = "{611, 700}";
},
{
name = b.uni0324_3;
position = "{389, 0}";
},
{
name = m.uni0328_4;
position = "{764, 0}";
}
);
layerId = "321F1C87-2BE4-472A-920D-C7836CF29DEE";
shapes = (
{
closed = 1;
nodes = (
(271,-3,o),
(127,141,o),
(127,278,qs),
(127,700,l),
(147,700,l),
(147,279,ls),
(147,149,o),
(277,16,o),
(395,16,qs),
(513,16,o),
(643,155,o),
(643,299,qs),
(643,700,l),
(663,700,l),
(663,0,l),
(643,0,l),
(643,176,l),
(645,173,l),
(619,85,o),
(488,-3,o),
(394,-3,qs)
);
}
);
width = 796;
}
);
leftKerningGroup = U;
rightKerningGroup = H;
},
{
glyphname = W.ss01;
layers = (
{
anchors = (
{
name = t.uni0308;
position = "{611, 700}";
},
{
name = b.uni0324_3;
position = "{612, 0}";
}
);
layerId = "B8EF125A-8090-42B9-BB2C-F5A019E05E81";
shapes = (
{
closed = 1;
nodes = (
(233,-16,o),
(51,145,o),
(51,295,qs),
(51,700,l),
(287,700,l),
(287,302,ls),
(287,239,o),
(337,175,o),
(390,175,qs),
(444,175,o),
(493,239,o),
(493,302,qs),
(493,700,l),
(729,700,l),
(729,302,ls),
(729,239,o),
(779,175,o),
(833,175,qs),
(886,175,o),
(936,239,o),
(936,302,qs),
(936,700,l),
(1172,700,l),
(1172,295,ls),
(1172,145,o),
(990,-16,o),
(828,-16,qs),
(738,-16,o),
(608,42,o),
(568,94,q),
(654,94,l),
(615,42,o),
(485,-16,o),
(394,-16,qs)
);
}
);
width = 1223;
},
{
anchors = (
{
name = t.uni0308;
position = "{598, 700}";
},
{
name = b.uni0324_3;
position = "{600, 0}";
}
);
layerId = "FE17A44E-3763-4243-92C2-150F6AC96B85";
shapes = (
{
closed = 1;
nodes = (
(238,-9,o),
(94,137,o),
(94,281,qs),
(94,700,l),
(208,700,l),
(208,285,ls),
(208,182,o),
(294,93,o),
(370,93,qs),
(446,93,o),
(536,182,o),
(536,285,qs),
(536,700,l),
(650,700,l),
(650,285,ls),
(650,182,o),
(740,93,o),
(816,93,qs),
(891,93,o),
(978,182,o),
(978,285,qs),
(978,700,l),
(1092,700,l),
(1092,281,ls),
(1092,137,o),
(948,-9,o),
(816,-9,qs),
(725,-9,o),
(599,60,o),
(573,114,q),
(612,114,l),
(585,60,o),
(462,-9,o),
(370,-9,qs)
);
}
);
width = 1186;
},
{
anchors = (
{
name = t.uni0308;
position = "{598, 700}";
},
{
name = b.uni0324_3;
position = "{600, 0}";
}
);
layerId = "321F1C87-2BE4-472A-920D-C7836CF29DEE";
shapes = (
{
closed = 1;
nodes = (
(260,-3,o),
(127,130,o),
(127,267,qs),
(127,700,l),
(147,700,l),
(147,268,ls),
(147,138,o),
(266,16,o),
(372,16,qs),
(476,16,o),
(595,138,o),
(595,268,qs),
(595,700,l),
(615,700,l),
(615,268,ls),
(615,138,o),
(733,16,o),
(838,16,qs),
(943,16,o),
(1063,138,o),
(1063,268,qs),
(1063,700,l),
(1083,700,l),
(1083,267,ls),
(1083,130,o),
(950,-3,o),
(838,-3,qs),
(744,-3,o),
(621,92,o),
(604,190,q),
(606,190,l),
(589,92,o),
(466,-3,o),
(372,-3,qs)
);
}
);
width = 1210;
}
);
leftKerningGroup = U;
rightKerningGroup = J;
},
{
glyphname = Y.ss01;
layers = (
{
anchors = (
{
name = t.uni0308;
position = "{389, 700}";
},
{
name = b.uni0324_3;
position = "{681, 0}";
}
);
layerId = "B8EF125A-8090-42B9-BB2C-F5A019E05E81";
shapes = (
{
closed = 1;
nodes = (
(275,-110,o),
(120,-64,o),
(65,-25,q),
(151,142,l),
(201,111,o),
(309,78,o),
(361,78,qs),
(434,78,o),
(496,145,o),
(496,218,qs),
(496,344,l),
(535,298,l),
(504,233,o),
(393,162,o),
(317,162,qs),
(185,162,o),
(46,311,o),
(46,453,qs),
(46,700,l),
(282,700,l),
(282,470,ls),
(282,411,o),
(333,353,o),
(386,353,qs),
(432,353,o),
(496,408,o),
(496,478,qs),
(496,700,l),
(732,700,l),
(732,231,ls),
(732,121,o),
(644,-31,o),
(482,-110,o),
(372,-110,qs)
);
}
);
width = 783;
},
{
anchors = (
{
name = t.uni0308;
position = "{388, 700}";
},
{
name = b.uni0324_3;
position = "{694, 0}";
}
);
layerId = "FE17A44E-3763-4243-92C2-150F6AC96B85";
shapes = (
{
closed = 1;
nodes = (
(293,-106,o),
(151,-53,o),
(103,-7,q),
(151,83,l),
(197,40,o),
(312,-4,o),
(381,-4,qs),
(478,-4,o),
(579,99,o),
(579,206,qs),
(579,343,l),
(616,331,l),
(582,247,o),
(454,172,o),
(369,172,qs),
(237,172,o),
(89,324,o),
(89,467,qs),
(89,700,l),
(203,700,l),
(203,471,ls),
(203,372,o),
(300,274,o),
(381,274,qs),
(469,274,o),
(579,377,o),
(579,485,qs),
(579,700,l),
(693,700,l),
(693,211,ls),
(693,107,o),
(617,-34,o),
(477,-106,o),
(381,-106,qs)
);
}
);
width = 787;
},
{
anchors = (
{
name = t.uni0308;
position = "{388, 700}";
},
{
name = b.uni0324_3;
position = "{694, 0}";
}
);
layerId = "321F1C87-2BE4-472A-920D-C7836CF29DEE";
shapes = (
{
closed = 1;
nodes = (
(308,-103,o),
(179,-42,o),
(136,13,q),
(151,27,l),
(195,-29,o),
(314,-84,o),
(393,-84,qs),
(512,-84,o),
(642,54,o),
(642,194,qs),
(642,360,l),
(644,358,l),
(618,269,o),
(486,181,o),
(391,181,qs),
(267,181,o),
(122,325,o),
(122,462,qs),
(122,700,l),
(142,700,l),
(142,463,ls),
(142,333,o),
(273,200,o),
(392,200,qs),
(511,200,o),
(642,339,o),
(642,483,qs),
(642,700,l),
(662,700,l),
(662,193,ls),
(662,94,o),
(597,-37,o),
(476,-103,o),
(392,-103,qs)
);
}
);
width = 789;
}
);
leftKerningGroup = Y.ss01;
rightKerningGroup = J;
},
{
glyphname = Z.ss01;
layers = (
{
anchors = (
{
name = t.uni0308;
position = "{359, 700}";
},
{
name = b.uni0324_3;
position = "{359, 0}";
}
);
layerId = "B8EF125A-8090-42B9-BB2C-F5A019E05E81";
shapes = (
{
closed = 1;
nodes = (
(37,0,l),
(37,130,l),
(425,580,l),
(457,523,l),
(48,523,l),
(48,701,l),
(665,701,l),
(665,571,l),
(277,121,l),
(245,178,l),
(680,178,l),
(680,0,l)
);
},
{
closed = 1;
nodes = (
(87,277,l),
(87,437,l),
(388,437,l),
(448,433,l),
(616,433,l),
(616,273,l),
(338,273,l),
(278,277,l)
);
}
);
width = 697;
},
{
anchors = (
{
name = t.uni0308;
position = "{374, 700}";
},
{
name = b.uni0324_3;
position = "{369, 0}";
}
);
layerId = "FE17A44E-3763-4243-92C2-150F6AC96B85";
shapes = (
{
closed = 1;
nodes = (
(47,0,l),
(47,71,l),
(507,645,l),
(520,601,l),
(52,601,l),
(52,700,l),
(623,700,l),
(623,630,l),
(164,55,l),
(150,99,l),
(638,99,l),
(638,0,l)
);
},
{
closed = 1;
nodes = (
(106,309,l),
(106,404,l),
(355,404,l),
(385,402,l),
(563,402,l),
(563,307,l),
(330,307,l),
(299,309,l)
);
}
);
width = 670;
},
{
anchors = (
{
name = t.uni0308;
position = "{374, 700}";
},
{
name = b.uni0324_3;
position = "{369, 0}";
}
);
layerId = "321F1C87-2BE4-472A-920D-C7836CF29DEE";
shapes = (
{
closed = 1;
nodes = (
(55,0,l),
(55,15,l),
(567,688,l),
(568,681,l),
(55,681,l),
(55,700,l),
(590,700,l),
(590,685,l),
(78,12,l),
(77,19,l),
(605,19,l),
(605,0,l)
);
},
{
closed = 1;
nodes = (
(121,346,l),
(121,365,l),
(330,365,l),
(337,365,l),
(521,365,l),
(521,346,l),
(323,346,l),
(316,346,l)
);
}
);
width = 649;
}
);
leftKerningGroup = Z2;
rightKerningGroup = Z;
},
{
glyphname = ae;
layers = (
{
anchors = (
{
name = t.uni0308;
position = "{478, 547}";
},
{
name = b.uni0324_3;
position = "{475, 0}";
}
);
layerId = "B8EF125A-8090-42B9-BB2C-F5A019E05E81";
shapes = (
{
closed = 1;
nodes = (
(154,-10,o),
(23,88,o),
(23,168,qs),
(23,218,o),
(77,289,o),
(188,328,o),
(273,328,qs),
(381,328,l),
(381,219,l),
(309,219,ls),
(272,219,o),
(240,194,o),
(240,173,qs),
(240,152,o),
(268,126,o),
(296,126,qs),
(329,126,o),
(365,166,o),
(365,200,qs),
(365,307,ls),
(365,345,o),
(316,389,o),
(262,389,qs),
(223,389,o),
(148,366,o),
(121,346,q),
(49,495,l),
(97,525,o),
(229,557,o),
(294,557,qs),
(374,557,o),
(498,506,o),
(532,451,q),
(444,451,l),
(485,501,o),
(612,557,o),
(685,557,qs),
(743,557,o),
(849,520,o),
(933,449,o),
(982,344,o),
(982,276,qs),
(982,260,o),
(980,231,o),
(978,219,q),
(576,219,l),
(576,328,l),
(810,328,l),
(768,301,l),
(768,333,o),
(746,378,o),
(707,403,o),
(681,403,qs),
(655,403,o),
(614,378,o),
(591,333,o),
(591,301,qs),
(591,267,ls),
(591,232,o),
(618,182,o),
(670,157,o),
(707,157,qs),
(740,157,o),
(794,177,o),
(822,197,q),
(940,78,l),
(899,35,o),
(779,-10,o),
(704,-10,qs),
(643,-10,o),
(531,23,o),
(441,95,o),
(412,155,q),
(515,155,l),
(492,90,o),
(419,18,o),
(325,-10,o),
(270,-10,qs)
);
}
);
width = 1003;
},
{
anchors = (
{
name = t.uni0308;
position = "{488, 562}";
},
{
name = b.uni0324_3;
position = "{481, 0}";
}
);
layerId = "FE17A44E-3763-4243-92C2-150F6AC96B85";
shapes = (
{
closed = 1;
nodes = (
(159,-6,o),
(47,84,o),
(47,156,qs),
(47,197,o),
(89,266,o),
(185,309,o),
(265,309,qs),
(426,309,l),
(426,230,l),
(270,230,ls),
(203,230,o),
(156,187,o),
(156,158,qs),
(156,120,o),
(215,78,o),
(267,78,qs),
(335,78,o),
(410,146,o),
(410,201,qs),
(410,322,ls),
(410,379,o),
(341,443,o),
(273,443,qs),
(227,443,o),
(138,414,o),
(107,389,q),
(62,471,l),
(104,504,o),
(221,538,o),
(284,538,qs),
(376,538,o),
(487,467,o),
(504,399,q),
(450,404,l),
(482,466,o),
(604,538,o),
(683,538,qs),
(741,538,o),
(839,498,o),
(911,426,o),
(951,327,o),
(951,268,qs),
(951,257,o),
(950,238,o),
(948,230,q),
(498,230,l),
(498,309,l),
(890,309,l),
(844,281,l),
(845,336,o),
(798,408,o),
(723,445,o),
(682,445,qs),
(642,445,o),
(567,408,o),
(519,334,o),
(519,278,qs),
(519,260,ls),
(519,210,o),
(565,133,o),
(648,90,o),
(704,90,qs),
(750,90,o),
(823,120,o),
(853,151,q),
(914,80,l),
(877,37,o),
(768,-6,o),
(700,-6,qs),
(638,-6,o),
(530,31,o),
(449,110,o),
(426,172,q),
(497,171,l),
(484,103,o),
(409,25,o),
(309,-6,o),
(258,-6,qs)
);
}
);
width = 991;
},
{
anchors = (
{
name = t.uni0308;
position = "{488, 562}";
},
{
name = b.uni0324_3;
position = "{481, 0}";
}
);
layerId = "321F1C87-2BE4-472A-920D-C7836CF29DEE";
shapes = (
{
closed = 1;
nodes = (
(161,-3,o),
(65,77,o),
(65,142,qs),
(65,179,o),
(100,241,o),
(180,280,o),
(249,280,qs),
(451,280,l),
(451,261,l),
(248,261,ls),
(160,261,o),
(85,194,o),
(85,143,qs),
(85,85,o),
(171,16,o),
(248,16,qs),
(335,16,o),
(445,112,o),
(445,202,qs),
(445,338,ls),
(445,419,o),
(361,501,o),
(281,501,qs),
(223,501,o),
(127,461,o),
(93,429,q),
(79,443,l),
(116,478,o),
(222,520,o),
(280,520,qs),
(367,520,o),
(460,436,o),
(465,350,q),
(462,359,l),
(488,432,o),
(606,520,o),
(685,520,qs),
(736,520,o),
(823,483,o),
(889,414,o),
(925,322,o),
(925,266,q),
(925,265,o),
(925,263,o),
(925,261,q),
(461,261,l),
(461,280,l),
(914,280,l),
(906,263,l),
(906,331,o),
(848,439,o),
(749,501,o),
(685,501,qs),
(621,501,o),
(522,439,o),
(465,331,o),
(465,263,qs),
(465,259,ls),
(465,188,o),
(527,78,o),
(635,16,o),
(704,16,qs),
(756,16,o),
(849,56,o),
(880,96,q),
(894,82,l),
(860,40,o),
(760,-3,o),
(704,-3,qs),
(648,-3,o),
(546,40,o),
(471,125,o),
(453,189,q),
(466,187,l),
(461,120,o),
(399,37,o),
(304,-3,o),
(248,-3,qs)
);
}
);
width = 979;
}
);
leftKerningGroup = a2;
rightKerningGroup = e;
unicode = 230;
},
{
glyphname = b;
layers = (
{
layerId = "B8EF125A-8090-42B9-BB2C-F5A019E05E81";
shapes = (
{
closed = 1;
nodes = (
(340,-10,o),
(248,50,o),
(207,176,o),
(207,274,qs),
(207,371,o),
(251,496,o),
(344,557,o),
(415,557,qs),
(487,557,o),
(607,489,o),
(679,362,o),
(679,274,qs),
(679,186,o),
(607,59,o),
(487,-10,o),
(415,-10,qs)
);
},
{
closed = 1;
nodes = (
(50,0,l),
(50,742,l),
(276,742,l),
(276,474,l),
(266,274,l),
(265,74,l),
(265,0,l)
);
},
{
closed = 1;
nodes = (
(386,166,o),
(426,190,o),
(450,239,o),
(450,274,qs),
(450,310,o),
(426,357,o),
(386,381,o),
(361,381,qs),
(336,381,o),
(296,357,o),
(272,310,o),
(272,274,qs),
(272,239,o),
(296,190,o),
(336,166,o),
(361,166,qs)
);
}
);
width = 700;
},
{
layerId = "FE17A44E-3763-4243-92C2-150F6AC96B85";
shapes = (
{
closed = 1;
nodes = (
(306,-6,o),
(197,53,o),
(134,174,o),
(134,266,qs),
(134,359,o),
(199,479,o),
(308,538,o),
(373,538,qs),
(452,538,o),
(574,470,o),
(644,348,o),
(644,266,qs),
(644,184,o),
(574,62,o),
(452,-6,o),
(373,-6,qs)
);
},
{
closed = 1;
nodes = (
(87,0,l),
(87,742,l),
(197,742,l),
(197,400,l),
(187,267,l),
(192,134,l),
(192,0,l)
);
},
{
closed = 1;
nodes = (
(412,90,o),
(488,133,o),
(533,213,o),
(533,266,qs),
(533,320,o),
(488,399,o),
(412,442,o),
(364,442,qs),
(316,442,o),
(240,399,o),
(195,320,o),
(195,266,qs),
(195,213,o),
(240,133,o),
(316,90,o),
(364,90,qs)
);
}
);
width = 684;
},
{
layerId = "321F1C87-2BE4-472A-920D-C7836CF29DEE";
shapes = (
{
closed = 1;
nodes = (
(295,-3,o),
(183,64,o),
(118,183,o),
(118,259,qs),
(118,336,o),
(183,453,o),
(295,520,o),
(366,520,qs),
(437,520,o),
(551,453,o),
(617,336,o),
(617,259,qs),
(617,183,o),
(551,64,o),
(437,-3,o),
(366,-3,qs)
);
},
{
closed = 1;
nodes = (
(115,0,l),
(115,742,l),
(135,742,l),
(135,330,l),
(125,260,l),
(135,190,l),
(135,0,l)
);
},
{
closed = 1;
nodes = (
(432,16,o),
(537,78,o),
(597,188,o),
(597,259,qs),
(597,331,o),
(537,440,o),
(432,501,o),
(366,501,qs),
(300,501,o),
(195,440,o),
(135,331,o),
(135,259,qs),
(135,188,o),
(195,78,o),
(300,16,o),
(366,16,qs)
);
}
);
width = 671;
}
);
leftKerningGroup = b2;
rightKerningGroup = b;
unicode = 98;
},
{
glyphname = c;
layers = (
{
anchors = (
{
name = t.uni0308;
position = "{324, 547}";
},
{
name = b.uni0324_3;
position = "{316, 0}";
}
);
layerId = "B8EF125A-8090-42B9-BB2C-F5A019E05E81";
shapes = (
{
closed = 1;
nodes = (
(250,-10,o),
(104,62,o),
(21,191,o),
(21,274,qs),
(21,357,o),
(104,485,o),
(250,557,o),
(344,557,qs),
(444,557,o),
(586,471,o),
(613,395,q),
(438,309,l),
(421,347,o),
(372,381,o),
(343,381,qs),
(318,381,o),
(275,357,o),
(250,310,o),
(250,274,qs),
(250,238,o),
(275,190,o),
(318,166,o),
(343,166,qs),
(372,166,o),
(421,200,o),
(438,238,q),
(613,152,l),
(586,76,o),
(444,-10,o),
(344,-10,qs)
);
}
);
width = 615;
},
{
anchors = (
{
name = t.uni0308;
position = "{338, 562}";
},
{
name = b.uni0324_3;
position = "{327, 0}";
}
);
layerId = "FE17A44E-3763-4243-92C2-150F6AC96B85";
shapes = (
{
closed = 1;
nodes = (
(242,-6,o),
(113,64,o),
(40,187,o),
(40,266,qs),
(40,346,o),
(113,468,o),
(242,538,o),
(324,538,qs),
(399,538,o),
(515,478,o),
(546,419,q),
(462,367,l),
(437,405,o),
(365,442,o),
(323,442,qs),
(274,442,o),
(196,399,o),
(151,320,o),
(151,266,qs),
(151,212,o),
(196,133,o),
(274,90,o),
(323,90,qs),
(365,90,o),
(437,126,o),
(462,165,q),
(546,113,l),
(515,55,o),
(399,-6,o),
(324,-6,qs)
);
}
);
width = 576;
},
{
anchors = (
{
name = t.uni0308;
position = "{338, 562}";
},
{
name = b.uni0324_3;
position = "{327, 0}";
}
);
layerId = "321F1C87-2BE4-472A-920D-C7836CF29DEE";
shapes = (
{
closed = 1;
nodes = (
(235,-3,o),
(120,64,o),
(54,182,o),
(54,259,qs),
(54,336,o),
(120,454,o),
(235,520,o),
(308,520,qs),
(364,520,o),
(461,478,o),
(494,436,q),
(480,421,l),
(450,462,o),
(360,501,o),
(308,501,qs),
(241,501,o),
(135,440,o),
(74,331,o),
(74,259,qs),
(74,187,o),
(135,78,o),
(241,16,o),
(308,16,qs),
(360,16,o),
(450,56,o),
(480,96,q),
(494,81,l),
(461,39,o),
(364,-3,o),
(308,-3,qs)
);
}
);
width = 545;
}
);
leftKerningGroup = c2;
rightKerningGroup = c;
unicode = 99;
},
{
glyphname = d;
layers = (
{
anchors = (
{
name = t.uni0307_1;
position = "{492, 640}";
},
{
name = t.uni031B_2;
position = "{728, 742}";
},
{
name = b.uni0324_3;
position = "{382, 0}";
}
);
layerId = "B8EF125A-8090-42B9-BB2C-F5A019E05E81";
shapes = (
{
closed = 1;
nodes = (
(219,-10,o),
(98,59,o),
(26,186,o),
(26,274,qs),
(26,362,o),
(98,489,o),
(219,557,o),
(290,557,qs),
(362,557,o),
(454,496,o),
(498,371,o),
(498,274,qs),
(498,176,o),
(457,50,o),
(366,-10,o),
(290,-10,qs)
);
},
{
closed = 1;
nodes = (
(369,166,o),
(409,190,o),
(433,239,o),
(433,274,qs),
(433,310,o),
(409,357,o),
(369,381,o),
(344,381,qs),
(319,381,o),
(279,357,o),
(255,310,o),
(255,274,qs),
(255,239,o),
(279,190,o),
(319,166,o),
(344,166,qs)
);
},
{
closed = 1;
nodes = (
(440,0,l),
(440,74,l),
(439,274,l),
(429,474,l),
(429,742,l),
(655,742,l),
(655,0,l)
);
}
);
width = 705;
},
{
anchors = (
{
name = t.uni0307_1;
position = "{494, 645}";
},
{
name = t.uni031B_2;
position = "{757, 742}";
},
{
name = b.uni0324_3;
position = "{404, 0}";
}
);
layerId = "FE17A44E-3763-4243-92C2-150F6AC96B85";
shapes = (
{
closed = 1;
nodes = (
(233,-6,o),
(110,62,o),
(40,184,o),
(40,266,qs),
(40,348,o),
(110,470,o),
(233,538,o),
(311,538,qs),
(377,538,o),
(485,479,o),
(550,359,o),
(550,266,qs),
(550,174,o),
(487,53,o),
(379,-6,o),
(311,-6,qs)
);
},
{
closed = 1;
nodes = (
(368,90,o),
(444,133,o),
(489,213,o),
(489,266,qs),
(489,320,o),
(444,399,o),
(368,442,o),
(320,442,qs),
(272,442,o),
(196,399,o),
(151,320,o),
(151,266,qs),
(151,213,o),
(196,133,o),
(272,90,o),
(320,90,qs)
);
},
{
closed = 1;
nodes = (
(492,0,l),
(492,134,l),
(497,267,l),
(487,400,l),
(487,742,l),
(597,742,l),
(597,0,l)
);
}
);
width = 684;
},
{
anchors = (
{
name = t.uni0307_1;
position = "{494, 645}";
},
{
name = t.uni031B_2;
position = "{757, 742}";
},
{
name = b.uni0324_3;
position = "{404, 0}";
}
);
layerId = "321F1C87-2BE4-472A-920D-C7836CF29DEE";
shapes = (
{
closed = 1;
nodes = (
(234,-3,o),
(120,64,o),
(54,183,o),
(54,259,qs),
(54,336,o),
(120,453,o),
(234,520,o),
(305,520,qs),
(376,520,o),
(488,453,o),
(553,336,o),
(553,259,qs),
(553,183,o),
(488,64,o),
(376,-3,o),
(305,-3,qs)
);
},
{
closed = 1;
nodes = (
(371,16,o),
(476,78,o),
(536,188,o),
(536,259,qs),
(536,331,o),
(476,440,o),
(371,501,o),
(305,501,qs),
(239,501,o),
(135,440,o),
(74,331,o),
(74,259,qs),
(74,188,o),
(135,78,o),
(239,16,o),
(305,16,qs)
);
},
{
closed = 1;
nodes = (
(536,0,l),
(536,190,l),
(546,260,l),
(536,330,l),
(536,742,l),
(556,742,l),
(556,0,l)
);
}
);
width = 671;
}
);
leftKerningGroup = c2;
rightKerningGroup = d;
unicode = 100;
},
{
glyphname = eth;
layers = (
{
layerId = "B8EF125A-8090-42B9-BB2C-F5A019E05E81";
shapes = (
{
closed = 1;
nodes = (
(229,-16,o),
(98,45,o),
(21,155,o),
(21,229,qs),
(21,297,o),
(88,397,o),
(201,453,o),
(268,453,qs),
(319,453,o),
(395,428,o),
(451,380,o),
(470,345,q),
(416,308,l),
(416,323,o),
(416,357,o),
(416,387,qs),
(416,457,o),
(373,550,o),
(286,596,o),
(218,596,qs),
(191,596,o),
(127,588,o),
(97,578,q),
(76,741,l),
(115,749,o),
(189,758,o),
(232,758,qs),
(364,758,o),
(553,663,o),
(655,477,o),
(655,338,qs),
(655,226,o),
(569,68,o),
(414,-16,o),
(310,-16,qs)
);
},
{
closed = 1;
nodes = (
(350,147,o),
(384,164,o),
(405,196,o),
(405,218,qs),
(405,240,o),
(384,272,o),
(350,290,o),
(328,290,qs),
(296,290,o),
(251,251,o),
(251,218,qs),
(251,196,o),
(272,164,o),
(307,147,o),
(328,147,qs)
);
},
{
closed = 1;
nodes = (
(144,450,l),
(109,541,l),
(596,718,l),
(631,627,l)
);
}
);
width = 676;
},
{
layerId = "FE17A44E-3763-4243-92C2-150F6AC96B85";
shapes = (
{
closed = 1;
nodes = (
(224,-9,o),
(108,46,o),
(40,147,o),
(40,216,qs),
(40,285,o),
(108,386,o),
(225,441,o),
(297,441,qs),
(354,441,o),
(446,402,o),
(511,328,o),
(525,275,q),
(482,258,l),
(489,285,o),
(493,341,o),
(493,369,qs),
(493,459,o),
(434,578,o),
(325,638,o),
(250,638,qs),
(207,638,o),
(134,625,o),
(106,615,q),
(88,708,l),
(121,718,o),
(203,730,o),
(250,730,qs),
(357,730,o),
(516,643,o),
(604,471,o),
(604,344,qs),
(604,235,o),
(531,77,o),
(394,-9,o),
(296,-9,qs)
);
},
{
closed = 1;
nodes = (
(355,84,o),
(428,121,o),
(466,181,o),
(466,216,qs),
(466,254,o),
(425,314,o),
(355,348,o),
(309,348,qs),
(236,348,o),
(151,276,o),
(151,216,qs),
(151,176,o),
(190,117,o),
(259,84,o),
(304,84,qs)
);
},
{
closed = 1;
nodes = (
(155,472,l),
(126,543,l),
(545,710,l),
(574,638,l)
);
}
);
width = 644;
},
{
layerId = "321F1C87-2BE4-472A-920D-C7836CF29DEE";
shapes = (
{
closed = 1;
nodes = (
(218,-3,o),
(113,51,o),
(54,149,o),
(54,214,qs),
(54,279,o),
(113,376,o),
(221,430,o),
(294,430,qs),
(359,430,o),
(466,378,o),
(531,280,o),
(533,209,q),
(525,210,l),
(537,248,o),
(544,327,o),
(544,352,qs),
(544,460,o),
(473,608,o),
(344,684,o),
(257,684,qs),
(215,684,o),
(138,672,o),
(107,663,q),
(102,682,l),
(130,690,o),
(212,703,o),
(257,703,qs),
(349,703,o),
(487,623,o),
(564,466,o),
(564,350,qs),
(564,244,o),
(502,85,o),
(378,-3,o),
(286,-3,qs)
);
},
{
closed = 1;
nodes = (
(360,16,o),
(461,75,o),
(513,166,o),
(513,214,qs),
(513,269,o),
(457,358,o),
(359,411,o),
(294,411,qs),
(191,411,o),
(74,302,o),
(74,214,qs),
(74,156,o),
(127,66,o),
(223,16,o),
(286,16,qs)
);
},
{
closed = 1;
nodes = (
(148,521,l),
(140,540,l),
(505,703,l),
(513,684,l)
);
}
);
width = 618;
}
);
leftKerningGroup = c2;
unicode = 240;
},
{
glyphname = e;
layers = (
{
anchors = (
{
name = t.uni0308;
position = "{327, 547}";
},
{
name = b.uni0324_3;
position = "{327, 0}";
},
{
name = m.uni0328_4;
position = "{553, 0}";
}
);
layerId = "B8EF125A-8090-42B9-BB2C-F5A019E05E81";
shapes = (
{
closed = 1;
nodes = (
(252,-10,o),
(103,64,o),
(21,193,o),
(21,274,qs),
(21,357,o),
(102,485,o),
(243,557,o),
(331,557,qs),
(412,557,o),
(549,493,o),
(632,367,o),
(632,274,qs),
(632,262,o),
(630,233,o),
(629,221,q),
(208,221,l),
(208,330,l),
(509,330,l),
(424,301,l),
(424,333,o),
(401,378,o),
(361,403,o),
(333,403,qs),
(305,403,o),
(264,378,o),
(242,333,o),
(242,301,qs),
(242,267,ls),
(242,232,o),
(270,182,o),
(322,157,o),
(359,157,qs),
(397,157,o),
(446,177,o),
(473,197,q),
(591,78,l),
(551,35,o),
(434,-10,o),
(352,-10,qs)
);
}
);
width = 653;
},
{
anchors = (
{
name = t.uni0308;
position = "{342, 562}";
},
{
name = b.uni0324_3;
position = "{342, 0}";
},
{
name = m.uni0328_4;
position = "{584, 0}";
}
);
layerId = "FE17A44E-3763-4243-92C2-150F6AC96B85";
shapes = (
{
closed = 1;
nodes = (
(243,-6,o),
(112,64,o),
(40,187,o),
(40,266,qs),
(40,345,o),
(110,468,o),
(233,538,o),
(311,538,qs),
(389,538,o),
(509,469,o),
(577,345,o),
(577,262,qs),
(577,255,o),
(576,236,o),
(575,228,q),
(127,228,l),
(127,307,l),
(517,307,l),
(473,281,l),
(474,329,o),
(432,403,o),
(359,445,o),
(311,445,qs),
(263,445,o),
(189,403,o),
(148,328,o),
(148,278,qs),
(148,260,ls),
(148,210,o),
(194,133,o),
(278,90,o),
(333,90,qs),
(379,90,o),
(454,120,o),
(482,151,q),
(542,80,l),
(506,38,o),
(398,-6,o),
(330,-6,qs)
);
}
);
width = 617;
},
{
anchors = (
{
name = t.uni0308;
position = "{342, 562}";
},
{
name = b.uni0324_3;
position = "{342, 0}";
},
{
name = m.uni0328_4;
position = "{584, 0}";
}
);
layerId = "321F1C87-2BE4-472A-920D-C7836CF29DEE";
shapes = (
{
closed = 1;
nodes = (
(237,-3,o),
(121,64,o),
(54,183,o),
(54,259,qs),
(54,336,o),
(116,453,o),
(225,520,o),
(293,520,qs),
(361,520,o),
(470,455,o),
(533,339,o),
(533,264,q),
(533,263,o),
(533,261,o),
(533,259,q),
(65,259,l),
(65,278,l),
(522,278,l),
(514,263,l),
(514,331,o),
(456,439,o),
(357,501,o),
(293,501,qs),
(230,501,o),
(130,439,o),
(73,331,o),
(73,263,qs),
(73,259,ls),
(73,188,o),
(135,78,o),
(243,16,o),
(312,16,qs),
(364,16,o),
(457,56,o),
(488,96,q),
(502,82,l),
(468,40,o),
(368,-3,o),
(312,-3,qs)
);
}
);
width = 587;
}
);
leftKerningGroup = c2;
rightKerningGroup = e;
unicode = 101;
},
{
glyphname = eogonek;
layers = (
{
anchors = (
{
name = t.uni0308;
position = "{338, 547}";
},
{
name = b.uni0324_3;
position = "{338, 0}";
}
);
layerId = "B8EF125A-8090-42B9-BB2C-F5A019E05E81";
shapes = (
{
closed = 1;
nodes = (
(389,-240,o),
(306,-172,o),
(306,-114,qs),
(306,-70,o),
(368,8,o),
(417,24,q),
(439,-2,l),
(419,-6,o),
(376,-10,o),
(352,-10,qs),
(252,-10,o),
(103,64,o),
(21,193,o),
(21,274,qs),
(21,357,o),
(102,485,o),
(243,557,o),
(331,557,qs),
(412,557,o),
(549,493,o),
(632,367,o),
(632,274,qs),
(632,262,o),
(630,233,o),
(629,221,q),
(208,221,l),
(208,330,l),
(509,330,l),
(424,301,l),
(424,333,o),
(401,378,o),
(361,403,o),
(333,403,qs),
(305,403,o),
(264,378,o),
(242,333,o),
(242,301,qs),
(242,267,ls),
(242,232,o),
(270,182,o),
(322,157,o),
(359,157,qs),
(397,157,o),
(446,177,o),
(473,197,q),
(592,78,l),
(582,68,o),
(561,49,o),
(549,41,qs),
(502,12,o),
(454,-34,o),
(438,-71,o),
(438,-89,qs),
(438,-110,o),
(467,-138,o),
(493,-138,qs),
(508,-138,o),
(539,-129,o),
(550,-124,q),
(577,-217,l),
(559,-227,o),
(496,-240,o),
(464,-240,qs)
);
}
);
width = 653;
},
{
anchors = (
{
name = t.uni0308;
position = "{355, 562}";
},
{
name = b.uni0324_3;
position = "{355, 0}";
}
);
layerId = "FE17A44E-3763-4243-92C2-150F6AC96B85";
shapes = (
{
closed = 1;
nodes = (
(381,-226,o),
(314,-166,o),
(314,-117,qs),
(314,-82,o),
(352,-5,o),
(393,25,q),
(433,9,l),
(410,2,o),
(358,-6,o),
(330,-6,qs),
(243,-6,o),
(112,64,o),
(40,187,o),
(40,266,qs),
(40,345,o),
(110,468,o),
(233,538,o),
(311,538,qs),
(389,538,o),
(509,469,o),
(577,345,o),
(577,262,qs),
(577,255,o),
(576,236,o),
(575,228,q),
(127,228,l),
(127,307,l),
(517,307,l),
(473,281,l),
(474,329,o),
(432,403,o),
(359,445,o),
(311,445,qs),
(263,445,o),
(189,403,o),
(148,328,o),
(148,278,qs),
(148,260,ls),
(148,210,o),
(194,133,o),
(278,90,o),
(333,90,qs),
(379,90,o),
(454,120,o),
(482,151,q),
(542,80,l),
(534,70,o),
(514,53,o),
(503,44,qs),
(460,9,o),
(411,-46,o),
(391,-90,o),
(391,-110,qs),
(391,-137,o),
(425,-163,o),
(451,-163,qs),
(467,-163,o),
(500,-154,o),
(512,-147,q),
(532,-203,l),
(513,-213,o),
(465,-226,o),
(439,-226,qs)
);
}
);
width = 617;
},
{
anchors = (
{
name = t.uni0308;
position = "{355, 562}";
},
{
name = b.uni0324_3;
position = "{355, 0}";
}
);
layerId = "321F1C87-2BE4-472A-920D-C7836CF29DEE";
shapes = (
{
closed = 1;
nodes = (
(380,-213,o),
(328,-169,o),
(328,-129,qs),
(328,-100,o),
(363,-24,o),
(421,25,q),
(421,20,l),
(396,9,o),
(341,-3,o),
(312,-3,qs),
(237,-3,o),
(121,64,o),
(54,183,o),
(54,259,qs),
(54,336,o),
(116,453,o),
(225,520,o),
(293,520,qs),
(361,520,o),
(470,455,o),
(533,339,o),
(533,264,q),
(533,263,o),
(533,261,o),
(533,259,q),
(65,259,l),
(65,278,l),
(522,278,l),
(514,263,l),
(514,331,o),
(456,439,o),
(357,501,o),
(293,501,qs),
(230,501,o),
(130,439,o),
(73,331,o),
(73,263,qs),
(73,259,ls),
(73,188,o),
(135,78,o),
(243,16,o),
(312,16,qs),
(364,16,o),
(457,56,o),
(488,96,q),
(502,82,l),
(495,73,o),
(477,57,o),
(466,47,qs),
(414,-1,o),
(364,-64,o),
(348,-108,o),
(348,-129,qs),
(348,-162,o),
(389,-194,o),
(420,-194,qs),
(437,-194,o),
(470,-182,o),
(482,-171,q),
(493,-186,l),
(477,-200,o),
(440,-213,o),
(419,-213,qs)
);
}
);
width = 587;
}
);
leftKerningGroup = c2;
rightKerningGroup = e;
unicode = 281;
},
{
glyphname = uni0259;
layers = (
{
anchors = (
{
name = t.uni0308;
position = "{326, 547}";
},
{
name = b.uni0324_3;
position = "{326, 0}";
},
{
name = m.uni0328_4;
position = "{100, 547}";
}
);
layerId = "B8EF125A-8090-42B9-BB2C-F5A019E05E81";
shapes = (
{
closed = 1;
nodes = (
(402,557,o),
(550,483,o),
(632,355,o),
(632,273,qs),
(632,190,o),
(551,62,o),
(411,-10,o),
(322,-10,qs),
(241,-10,o),
(104,54,o),
(21,181,o),
(21,273,qs),
(21,285,o),
(23,314,o),
(24,326,q),
(445,326,l),
(445,217,l),
(144,217,l),
(229,246,l),
(229,215,o),
(252,169,o),
(293,144,o),
(320,144,qs),
(348,144,o),
(389,169,o),
(411,215,o),
(411,246,qs),
(411,280,ls),
(411,316,o),
(383,365,o),
(331,390,o),
(294,390,qs),
(257,390,o),
(207,370,o),
(180,350,q),
(62,469,l),
(102,513,o),
(219,557,o),
(301,557,qs)
);
}
);
width = 653;
},
{
anchors = (
{
name = t.uni0308;
position = "{341, 562}";
},
{
name = b.uni0324_3;
position = "{341, 0}";
},
{
name = m.uni0328_4;
position = "{99, 562}";
}
);
layerId = "FE17A44E-3763-4243-92C2-150F6AC96B85";
shapes = (
{
closed = 1;
nodes = (
(375,538,o),
(505,468,o),
(577,346,o),
(577,266,qs),
(577,187,o),
(507,64,o),
(384,-6,o),
(306,-6,qs),
(228,-6,o),
(108,63,o),
(40,188,o),
(40,270,qs),
(40,277,o),
(41,296,o),
(42,304,q),
(490,304,l),
(490,225,l),
(100,225,l),
(144,251,l),
(144,203,o),
(185,129,o),
(258,87,o),
(306,87,qs),
(354,87,o),
(428,129,o),
(469,205,o),
(469,254,qs),
(469,272,ls),
(469,323,o),
(423,399,o),
(340,442,o),
(284,442,qs),
(238,442,o),
(164,412,o),
(135,381,q),
(75,452,l),
(111,494,o),
(220,538,o),
(287,538,qs)
);
}
);
width = 617;
},
{
anchors = (
{
name = t.uni0308;
position = "{341, 562}";
},
{
name = b.uni0324_3;
position = "{341, 0}";
},
{
name = m.uni0328_4;
position = "{99, 562}";
}
);
layerId = "321F1C87-2BE4-472A-920D-C7836CF29DEE";
shapes = (
{
closed = 1;
nodes = (
(350,520,o),
(466,453,o),
(533,335,o),
(533,258,qs),
(533,182,o),
(471,64,o),
(363,-3,o),
(294,-3,qs),
(226,-3,o),
(117,63,o),
(54,178,o),
(54,253,qs),
(54,255,o),
(54,257,o),
(54,258,q),
(522,258,l),
(522,239,l),
(65,239,l),
(73,254,l),
(73,186,o),
(131,78,o),
(231,16,o),
(294,16,qs),
(358,16,o),
(457,78,o),
(514,186,o),
(514,254,qs),
(514,258,ls),
(514,330,o),
(452,439,o),
(344,501,o),
(275,501,qs),
(223,501,o),
(130,462,o),
(99,421,q),
(85,435,l),
(120,477,o),
(220,520,o),
(275,520,qs)
);
}
);
width = 587;
}
);
leftKerningGroup = c2;
rightKerningGroup = b;
unicode = 601;
},
{
glyphname = f;
layers = (
{
layerId = "B8EF125A-8090-42B9-BB2C-F5A019E05E81";
shapes = (
{
closed = 1;
nodes = (
(75,0,l),
(75,520,ls),
(75,626,o),
(202,752,o),
(319,752,qs),
(355,752,o),
(428,739,o),
(453,725,q),
(399,568,l),
(388,573,o),
(362,581,o),
(348,581,qs),
(324,581,o),
(294,551,o),
(294,518,qs),
(294,492,l),
(301,399,l),
(301,0,l)
);
},
{
closed = 1;
nodes = (
(0,352,l),
(0,517,l),
(413,517,l),
(413,352,l)
);
}
);
width = 426;
},
{
layerId = "FE17A44E-3763-4243-92C2-150F6AC96B85";
shapes = (
{
closed = 1;
nodes = (
(102,0,l),
(102,570,ls),
(102,651,o),
(197,748,o),
(286,748,qs),
(318,748,o),
(375,734,o),
(395,719,q),
(363,635,l),
(349,646,o),
(312,658,o),
(292,658,qs),
(251,658,o),
(209,613,o),
(209,569,qs),
(209,503,l),
(212,453,l),
(212,0,l)
);
},
{
closed = 1;
nodes = (
(13,442,l),
(13,532,l),
(360,532,l),
(360,442,l)
);
}
);
width = 361;
},
{
layerId = "321F1C87-2BE4-472A-920D-C7836CF29DEE";
shapes = (
{
closed = 1;
nodes = (
(123,0,l),
(123,618,ls),
(123,675,o),
(188,745,o),
(248,745,qs),
(276,745,o),
(331,727,o),
(349,708,q),
(335,694,l),
(319,710,o),
(274,726,o),
(249,726,qs),
(197,726,o),
(143,668,o),
(143,613,qs),
(143,514,l),
(143,503,l),
(143,0,l)
);
},
{
closed = 1;
nodes = (
(23,498,l),
(23,517,l),
(318,517,l),
(318,498,l)
);
}
);
width = 311;
}
);
leftKerningGroup = f;
rightKerningGroup = f2;
unicode = 102;
},
{
glyphname = g;
layers = (
{
anchors = (
{
name = t.uni0308;
position = "{372, 562}";
}
);
layerId = "C681131B-267B-4044-941F-52A3FCCEC815";
name = "#instance";
shapes = (
{
closed = 1;
nodes = (
(250,-200,o),
(110,-161,o),
(65,-123,q),
(118,-38,l),
(154,-68,o),
(262,-104,o),
(319,-104,qs),
(410,-104,o),
(495,-20,o),
(495,65,qs),
(495,168,l),
(505,281,l),
(500,395,l),
(500,532,l),
(605,532,l),
(605,77,ls),
(605,-66,o),
(461,-200,o),
(323,-200,qs)
);
},
{
closed = 1;
nodes = (
(234,23,o),
(111,88,o),
(40,204,o),
(40,281,qs),
(40,358,o),
(111,474,o),
(234,538,o),
(312,538,qs),
(379,538,o),
(490,484,o),
(558,370,o),
(558,281,qs),
(558,192,o),
(490,78,o),
(379,23,o),
(312,23,qs)
);
},
{
closed = 1;
nodes = (
(375,119,o),
(453,160,o),
(497,233,o),
(497,281,qs),
(497,329,o),
(453,402,o),
(375,442,o),
(324,442,qs),
(274,442,o),
(195,402,o),
(151,329,o),
(151,281,qs),
(151,233,o),
(195,160,o),
(274,119,o),
(324,119,qs)
);
}
);
width = 692;
},
{
anchors = (
{
name = t.uni0308;
position = "{355, 547}";
}
);
layerId = "B8EF125A-8090-42B9-BB2C-F5A019E05E81";
shapes = (
{
closed = 1;
nodes = (
(247,-204,o),
(105,-170,o),
(54,-136,q),
(130,18,l),
(162,-7,o),
(261,-36,o),
(305,-36,qs),
(375,-36,o),
(435,23,o),
(435,78,qs),
(435,124,l),
(445,294,l),
(446,464,l),
(446,547,l),
(661,547,l),
(661,109,ls),
(661,-50,o),
(485,-204,o),
(328,-204,qs)
);
},
{
closed = 1;
nodes = (
(215,30,o),
(95,95,o),
(21,213,o),
(21,294,qs),
(21,375,o),
(95,493,o),
(215,557,o),
(284,557,qs),
(355,557,o),
(446,501,o),
(490,384,o),
(490,294,qs),
(490,204,o),
(446,87,o),
(355,30,o),
(284,30,qs)
);
},
{
closed = 1;
nodes = (
(371,206,o),
(413,228,o),
(437,268,o),
(437,294,qs),
(437,321,o),
(413,360,o),
(371,381,o),
(344,381,qs),
(318,381,o),
(275,360,o),
(250,321,o),
(250,294,qs),
(250,268,o),
(275,228,o),
(318,206,o),
(344,206,qs)
);
}
);
width = 711;
},
{
anchors = (
{
name = t.uni0308;
position = "{372, 562}";
}
);
layerId = "FE17A44E-3763-4243-92C2-150F6AC96B85";
shapes = (
{
closed = 1;
nodes = (
(250,-200,o),
(110,-161,o),
(65,-123,q),
(118,-38,l),
(154,-68,o),
(262,-104,o),
(319,-104,qs),
(410,-104,o),
(495,-20,o),
(495,65,qs),
(495,168,l),
(505,281,l),
(500,395,l),
(500,532,l),
(605,532,l),
(605,77,ls),
(605,-66,o),
(461,-200,o),
(323,-200,qs)
);
},
{
closed = 1;
nodes = (
(234,23,o),
(111,88,o),
(40,204,o),
(40,281,qs),
(40,358,o),
(111,474,o),
(234,538,o),
(312,538,qs),
(379,538,o),
(490,484,o),
(558,370,o),
(558,281,qs),
(558,192,o),
(490,78,o),
(379,23,o),
(312,23,qs)
);
},
{
closed = 1;
nodes = (
(375,119,o),
(453,160,o),
(497,233,o),
(497,281,qs),
(497,329,o),
(453,402,o),
(375,442,o),
(324,442,qs),
(274,442,o),
(195,402,o),
(151,329,o),
(151,281,qs),
(151,233,o),
(195,160,o),
(274,119,o),
(324,119,qs)
);
}
);
width = 692;
},
{
anchors = (
{
name = t.uni0308;
position = "{372, 562}";
}
);
layerId = "321F1C87-2BE4-472A-920D-C7836CF29DEE";
shapes = (
{
closed = 1;
nodes = (
(253,-197,o),
(131,-151,o),
(94,-111,q),
(108,-97,l),
(148,-136,o),
(258,-178,o),
(323,-178,qs),
(435,-178,o),
(542,-72,o),
(542,43,qs),
(542,209,l),
(552,269,l),
(542,329,l),
(542,517,l),
(562,517,l),
(562,46,ls),
(562,-79,o),
(443,-197,o),
(323,-197,qs)
);
},
{
closed = 1;
nodes = (
(236,17,o),
(121,82,o),
(54,196,o),
(54,269,qs),
(54,343,o),
(121,456,o),
(236,520,o),
(308,520,qs),
(381,520,o),
(494,456,o),
(559,343,o),
(559,269,qs),
(559,196,o),
(494,82,o),
(381,17,o),
(308,17,qs)
);
},
{
closed = 1;
nodes = (
(376,36,o),
(481,95,o),
(542,201,o),
(542,269,qs),
(542,338,o),
(481,442,o),
(376,501,o),
(308,501,qs),
(241,501,o),
(135,442,o),
(74,338,o),
(74,269,qs),
(74,201,o),
(135,95,o),
(241,36,o),
(308,36,qs)
);
}
);
width = 677;
}
);
leftKerningGroup = c2;
rightKerningGroup = g;
unicode = 103;
},
{
glyphname = uni01E5;
layers = (
{
layerId = "B8EF125A-8090-42B9-BB2C-F5A019E05E81";
shapes = (
{
closed = 1;
nodes = (
(245,-204,o),
(103,-168,o),
(54,-136,q),
(130,8,l),
(160,-16,o),
(258,-46,o),
(307,-46,qs),
(372,-46,o),
(435,11,o),
(435,68,qs),
(435,114,l),
(445,294,l),
(446,464,l),
(446,547,l),
(661,547,l),
(661,109,ls),
(661,-45,o),
(490,-204,o),
(324,-204,qs)
);
},
{
closed = 1;
nodes = (
(262,-11,l),
(262,69,l),
(724,70,l),
(724,-10,l)
);
},
{
closed = 1;
nodes = (
(197,92,o),
(83,152,o),
(21,257,o),
(21,324,qs),
(21,391,o),
(83,496,o),
(196,556,o),
(273,556,qs),
(341,556,o),
(438,504,o),
(490,401,o),
(490,322,qs),
(490,244,o),
(439,142,o),
(342,92,o),
(274,92,qs)
);
},
{
closed = 1;
nodes = (
(373,243,o),
(415,262,o),
(437,299,o),
(437,324,qs),
(437,350,o),
(415,386,o),
(373,405,o),
(344,405,qs),
(315,405,o),
(272,386,o),
(250,350,o),
(250,324,qs),
(250,299,o),
(272,262,o),
(315,243,o),
(344,243,qs)
);
}
);
width = 725;
},
{
layerId = "FE17A44E-3763-4243-92C2-150F6AC96B85";
shapes = (
{
closed = 1;
nodes = (
(250,-200,o),
(110,-161,o),
(65,-123,q),
(118,-38,l),
(154,-68,o),
(262,-104,o),
(319,-104,qs),
(410,-104,o),
(495,-20,o),
(495,65,qs),
(495,168,l),
(505,281,l),
(500,395,l),
(500,532,l),
(605,532,l),
(605,77,ls),
(605,-66,o),
(461,-200,o),
(323,-200,qs)
);
},
{
closed = 1;
nodes = (
(281,-56,l),
(281,18,l),
(669,19,l),
(669,-56,l)
);
},
{
closed = 1;
nodes = (
(234,48,o),
(111,110,o),
(40,221,o),
(40,294,qs),
(40,367,o),
(111,477,o),
(234,538,o),
(312,538,qs),
(379,538,o),
(490,486,o),
(558,379,o),
(558,294,qs),
(558,209,o),
(490,100,o),
(379,48,o),
(312,48,qs)
);
},
{
closed = 1;
nodes = (
(375,140,o),
(453,179,o),
(497,248,o),
(497,294,qs),
(497,340,o),
(453,408,o),
(375,447,o),
(324,447,qs),
(274,447,o),
(195,408,o),
(151,340,o),
(151,294,qs),
(151,248,o),
(195,179,o),
(274,140,o),
(324,140,qs)
);
}
);
width = 701;
},
{
layerId = "321F1C87-2BE4-472A-920D-C7836CF29DEE";
shapes = (
{
closed = 1;
nodes = (
(253,-197,o),
(131,-151,o),
(94,-111,q),
(108,-97,l),
(148,-136,o),
(258,-178,o),
(323,-178,qs),
(435,-178,o),
(542,-72,o),
(542,43,qs),
(542,209,l),
(552,269,l),
(542,329,l),
(542,517,l),
(562,517,l),
(562,46,ls),
(562,-79,o),
(443,-197,o),
(323,-197,qs)
);
},
{
closed = 1;
nodes = (
(298,-69,l),
(298,-50,l),
(626,-50,l),
(626,-69,l)
);
},
{
closed = 1;
nodes = (
(236,17,o),
(121,82,o),
(54,196,o),
(54,269,qs),
(54,343,o),
(121,456,o),
(236,520,o),
(308,520,qs),
(381,520,o),
(494,456,o),
(559,343,o),
(559,269,qs),
(559,196,o),
(494,82,o),
(381,17,o),
(308,17,qs)
);
},
{
closed = 1;
nodes = (
(376,36,o),
(481,95,o),
(542,201,o),
(542,269,qs),
(542,338,o),
(481,442,o),
(376,501,o),
(308,501,qs),
(241,501,o),
(135,442,o),
(74,338,o),
(74,269,qs),
(74,201,o),
(135,95,o),
(241,36,o),
(308,36,qs)
);
}
);
width = 679;
}
);
leftKerningGroup = c2;
unicode = 485;
},
{
glyphname = h;
layers = (
{
anchors = (
{
name = t.uni0308;
position = "{163, 742}";
},
{
name = t.uni0307_1;
position = "{214, 640}";
},
{
name = t.uni031B_2;
position = "{310, 547}";
},
{
name = b.uni0324_3;
position = "{355, 0}";
}
);
layerId = "B8EF125A-8090-42B9-BB2C-F5A019E05E81";
shapes = (
{
closed = 1;
nodes = (
(493,557,o),
(595,506,o),
(654,398,o),
(654,312,qs),
(654,0,l),
(428,0,l),
(428,273,ls),
(428,324,o),
(392,367,o),
(361,367,qs),
(338,367,o),
(299,346,o),
(276,298,o),
(276,257,qs),
(276,0,l),
(50,0,l),
(50,742,l),
(276,742,l),
(276,387,l),
(222,433,l),
(254,495,o),
(363,557,o),
(430,557,qs)
);
}
);
width = 702;
},
{
anchors = (
{
name = t.uni0308;
position = "{180, 742}";
},
{
name = t.uni0307_1;
position = "{225, 645}";
},
{
name = t.uni031B_2;
position = "{346, 562}";
},
{
name = b.uni0324_3;
position = "{364, 0}";
}
);
layerId = "FE17A44E-3763-4243-92C2-150F6AC96B85";
shapes = (
{
closed = 1;
nodes = (
(443,538,o),
(543,488,o),
(601,385,o),
(601,305,qs),
(601,0,l),
(491,0,l),
(491,292,ls),
(491,366,o),
(420,440,o),
(355,440,qs),
(308,440,o),
(236,402,o),
(197,328,o),
(197,272,qs),
(197,0,l),
(87,0,l),
(87,742,l),
(197,742,l),
(197,390,l),
(174,434,l),
(201,484,o),
(308,538,o),
(378,538,qs)
);
}
);
width = 683;
},
{
anchors = (
{
name = t.uni0308;
position = "{180, 742}";
},
{
name = t.uni0307_1;
position = "{225, 645}";
},
{
name = t.uni031B_2;
position = "{346, 562}";
},
{
name = b.uni0324_3;
position = "{364, 0}";
}
);
layerId = "321F1C87-2BE4-472A-920D-C7836CF29DEE";
shapes = (
{
closed = 1;
nodes = (
(416,520,o),
(508,471,o),
(559,375,o),
(559,305,qs),
(559,0,l),
(539,0,l),
(539,305,ls),
(539,401,o),
(441,501,o),
(353,501,qs),
(285,501,o),
(187,446,o),
(135,347,o),
(135,281,qs),
(135,0,l),
(115,0,l),
(115,742,l),
(135,742,l),
(135,370,l),
(133,373,l),
(156,441,o),
(268,520,o),
(352,520,qs)
);
}
);
width = 668;
}
);
leftKerningGroup = b2;
rightKerningGroup = a;
unicode = 104;
},
{
glyphname = dotlessi;
layers = (
{
anchors = (
{
name = t.uni0308;
position = "{163, 547}";
},
{
name = b.uni0324_3;
position = "{163, 0}";
},
{
name = m.uni0328_4;
position = "{276, 0}";
}
);
layerId = "B8EF125A-8090-42B9-BB2C-F5A019E05E81";
shapes = (
{
closed = 1;
nodes = (
(50,0,l),
(50,547,l),
(276,547,l),
(276,0,l)
);
}
);
width = 326;
},
{
anchors = (
{
name = t.uni0308;
position = "{180, 562}";
},
{
name = b.uni0324_3;
position = "{180, 0}";
},
{
name = m.uni0328_4;
position = "{338, 0}";
}
);
layerId = "FE17A44E-3763-4243-92C2-150F6AC96B85";
shapes = (
{
closed = 1;
nodes = (
(87,0,l),
(87,532,l),
(197,532,l),
(197,0,l)
);
}
);
width = 284;
},
{
anchors = (
{
name = t.uni0308;
position = "{180, 562}";
},
{
name = b.uni0324_3;
position = "{180, 0}";
},
{
name = m.uni0328_4;
position = "{338, 0}";
}
);
layerId = "321F1C87-2BE4-472A-920D-C7836CF29DEE";
shapes = (
{
closed = 1;
nodes = (
(115,0,l),
(115,517,l),
(135,517,l),
(135,0,l)
);
}
);
width = 250;
}
);
leftKerningGroup = m;
rightKerningGroup = g;
unicode = 305;
},
{
glyphname = uni0237;
layers = (
{
anchors = (
{
name = t.uni0308;
position = "{171, 547}";
}
);
layerId = "B8EF125A-8090-42B9-BB2C-F5A019E05E81";
shapes = (
{
closed = 1;
nodes = (
(5,-204,o),
(-68,-190,o),
(-94,-177,q),
(-40,-20,l),
(-16,-33,o),
(11,-33,qs),
(31,-33,o),
(58,-3,o),
(58,30,qs),
(58,547,l),
(284,547,l),
(284,28,ls),
(284,-78,o),
(158,-204,o),
(45,-204,qs)
);
}
);
width = 334;
},
{
anchors = (
{
name = t.uni0308;
position = "{188, 562}";
}
);
layerId = "FE17A44E-3763-4243-92C2-150F6AC96B85";
shapes = (
{
closed = 1;
nodes = (
(-10,-200,o),
(-72,-185,o),
(-93,-169,q),
(-59,-85,l),
(-30,-108,o),
(17,-108,qs),
(53,-108,o),
(92,-63,o),
(92,-19,qs),
(92,532,l),
(202,532,l),
(202,-16,ls),
(202,-101,o),
(110,-200,o),
(24,-200,qs)
);
}
);
width = 289;
},
{
anchors = (
{
name = t.uni0308;
position = "{188, 562}";
}
);
layerId = "321F1C87-2BE4-472A-920D-C7836CF29DEE";
shapes = (
{
closed = 1;
nodes = (
(-12,-197,o),
(-68,-179,o),
(-86,-160,q),
(-72,-146,l),
(-38,-178,o),
(17,-178,qs),
(67,-178,o),
(120,-120,o),
(120,-65,qs),
(120,517,l),
(140,517,l),
(140,-70,ls),
(140,-127,o),
(77,-197,o),
(18,-197,qs)
);
}
);
width = 255;
}
);
leftKerningGroup = j;
rightKerningGroup = g;
unicode = 567;
},
{
glyphname = k;
layers = (
{
anchors = (
{
name = t.uni0308;
position = "{163, 742}";
},
{
name = t.uni031B_2;
position = "{305, 547}";
},
{
name = b.uni0324_3;
position = "{323, 0}";
}
);
layerId = "B8EF125A-8090-42B9-BB2C-F5A019E05E81";
shapes = (
{
closed = 1;
nodes = (
(239,90,l),
(244,356,l),
(433,547,l),
(700,547,l),
(450,285,l),
(337,194,l)
);
},
{
closed = 1;
nodes = (
(50,0,l),
(50,742,l),
(276,742,l),
(276,0,l)
);
},
{
closed = 1;
nodes = (
(445,0,l),
(295,190,l),
(434,361,l),
(718,0,l)
);
}
);
width = 713;
},
{
anchors = (
{
name = t.uni0308;
position = "{180, 742}";
},
{
name = t.uni031B_2;
position = "{341, 562}";
},
{
name = b.uni0324_3;
position = "{330, 0}";
}
);
layerId = "FE17A44E-3763-4243-92C2-150F6AC96B85";
shapes = (
{
closed = 1;
nodes = (
(176,123,l),
(179,264,l),
(471,532,l),
(604,532,l),
(368,298,l),
(309,248,l)
);
},
{
closed = 1;
nodes = (
(87,0,l),
(87,742,l),
(197,742,l),
(197,0,l)
);
},
{
closed = 1;
nodes = (
(491,0,l),
(289,249,l),
(359,338,l),
(625,0,l)
);
}
);
width = 625;
},
{
anchors = (
{
name = t.uni0308;
position = "{180, 742}";
},
{
name = t.uni031B_2;
position = "{341, 562}";
},
{
name = b.uni0324_3;
position = "{330, 0}";
}
);
layerId = "321F1C87-2BE4-472A-920D-C7836CF29DEE";
shapes = (
{
closed = 1;
nodes = (
(128,154,l),
(128,178,l),
(500,517,l),
(529,517,l),
(304,311,l),
(288,299,l)
);
},
{
closed = 1;
nodes = (
(115,0,l),
(115,742,l),
(135,742,l),
(135,0,l)
);
},
{
closed = 1;
nodes = (
(526,0,l),
(284,304,l),
(300,316,l),
(552,0,l)
);
}
);
width = 570;
}
);
leftKerningGroup = b2;
rightKerningGroup = k;
unicode = 107;
},
{
glyphname = kgreenlandic;
layers = (
{
anchors = (
{
name = t.uni0308;
position = "{323, 547}";
},
{
name = b.uni0324_3;
position = "{323, 0}";
}
);
layerId = "B8EF125A-8090-42B9-BB2C-F5A019E05E81";
shapes = (
{
closed = 1;
nodes = (
(239,90,l),
(244,356,l),
(433,547,l),
(700,547,l),
(450,285,l),
(337,194,l)
);
},
{
closed = 1;
nodes = (
(50,0,l),
(50,547,l),
(276,547,l),
(276,0,l)
);
},
{
closed = 1;
nodes = (
(445,0,l),
(295,190,l),
(434,361,l),
(718,0,l)
);
}
);
width = 690;
},
{
anchors = (
{
name = t.uni0308;
position = "{347, 562}";
},
{
name = b.uni0324_3;
position = "{347, 0}";
}
);
layerId = "FE17A44E-3763-4243-92C2-150F6AC96B85";
shapes = (
{
closed = 1;
nodes = (
(176,123,l),
(179,264,l),
(471,532,l),
(604,532,l),
(368,298,l),
(309,248,l)
);
},
{
closed = 1;
nodes = (
(87,0,l),
(87,532,l),
(197,532,l),
(197,0,l)
);
},
{
closed = 1;
nodes = (
(491,0,l),
(289,249,l),
(359,338,l),
(625,0,l)
);
}
);
width = 615;
},
{
anchors = (
{
name = t.uni0308;
position = "{347, 562}";
},
{
name = b.uni0324_3;
position = "{347, 0}";
}
);
layerId = "321F1C87-2BE4-472A-920D-C7836CF29DEE";
shapes = (
{
closed = 1;
nodes = (
(128,154,l),
(128,178,l),
(500,517,l),
(529,517,l),
(304,311,l),
(288,299,l)
);
},
{
closed = 1;
nodes = (
(115,0,l),
(115,517,l),
(135,517,l),
(135,0,l)
);
},
{
closed = 1;
nodes = (
(526,0,l),
(284,304,l),
(300,316,l),
(552,0,l)
);
}
);
width = 557;
}
);
leftKerningGroup = m;
rightKerningGroup = k;
unicode = 312;
},
{
glyphname = l;
layers = (
{
anchors = (
{
name = t.uni0308;
position = "{163, 742}";
},
{
name = t.periodcentered.loclCAT;
position = "{416, 370}";
},
{
name = t.uni0307_1;
position = "{163, 370}";
},
{
name = t.uni031B_2;
position = "{346, 742}";
},
{
name = b.uni0324_3;
position = "{163, 0}";
}
);
layerId = "B8EF125A-8090-42B9-BB2C-F5A019E05E81";
shapes = (
{
closed = 1;
nodes = (
(50,0,l),
(50,742,l),
(276,742,l),
(276,0,l)
);
}
);
width = 326;
},
{
anchors = (
{
name = t.uni0308;
position = "{180, 742}";
},
{
name = t.periodcentered.loclCAT;
position = "{488, 380}";
},
{
name = t.uni0307_1;
position = "{180, 380}";
},
{
name = t.uni031B_2;
position = "{394, 742}";
},
{
name = b.uni0324_3;
position = "{180, 0}";
}
);
layerId = "FE17A44E-3763-4243-92C2-150F6AC96B85";
shapes = (
{
closed = 1;
nodes = (
(87,0,l),
(87,742,l),
(197,742,l),
(197,0,l)
);
}
);
width = 284;
},
{
anchors = (
{
name = t.uni0308;
position = "{180, 742}";
},
{
name = t.periodcentered.loclCAT;
position = "{488, 380}";
},
{
name = t.uni0307_1;
position = "{180, 380}";
},
{
name = t.uni031B_2;
position = "{394, 742}";
},
{
name = b.uni0324_3;
position = "{180, 0}";
}
);
layerId = "321F1C87-2BE4-472A-920D-C7836CF29DEE";
shapes = (
{
closed = 1;
nodes = (
(115,0,l),
(115,742,l),
(135,742,l),
(135,0,l)
);
}
);
width = 250;
}
);
leftKerningGroup = b2;
rightKerningGroup = d;
unicode = 108;
},
{
glyphname = m;
layers = (
{
anchors = (
{
name = b.uni0324_3;
position = "{511, 0}";
}
);
layerId = "C681131B-267B-4044-941F-52A3FCCEC815";
name = "#instance";
shapes = (
{
closed = 1;
nodes = (
(818,538,o),
(917,488,o),
(973,385,o),
(973,305,qs),
(973,0,l),
(863,0,l),
(863,292,ls),
(863,366,o),
(796,440,o),
(734,440,qs),
(690,440,o),
(622,402,o),
(585,328,o),
(585,272,qs),
(585,0,l),
(475,0,l),
(475,292,ls),
(475,366,o),
(408,440,o),
(346,440,qs),
(302,440,o),
(234,402,o),
(197,328,o),
(197,272,qs),
(197,0,l),
(87,0,l),
(87,532,l),
(192,532,l),
(192,392,l),
(174,434,l),
(200,484,o),
(303,538,o),
(370,538,qs),
(445,538,o),
(556,464,o),
(574,389,q),
(528,407,l),
(553,466,o),
(674,538,o),
(753,538,qs)
);
}
);
width = 1055;
},
{
anchors = (
{
name = b.uni0324_3;
position = "{519, 0}";
}
);
layerId = "B8EF125A-8090-42B9-BB2C-F5A019E05E81";
shapes = (
{
closed = 1;
nodes = (
(836,557,o),
(935,506,o),
(992,398,o),
(992,312,qs),
(992,0,l),
(766,0,l),
(766,273,ls),
(766,324,o),
(732,367,o),
(705,367,qs),
(685,367,o),
(653,347,o),
(634,304,o),
(634,267,qs),
(634,0,l),
(408,0,l),
(408,273,ls),
(408,324,o),
(376,367,o),
(347,367,qs),
(327,367,o),
(295,347,o),
(276,304,o),
(276,267,qs),
(276,0,l),
(50,0,l),
(50,547,l),
(265,547,l),
(265,390,l),
(221,434,l),
(252,496,o),
(356,557,o),
(420,557,qs),
(492,557,o),
(603,482,o),
(622,401,q),
(553,412,l),
(583,480,o),
(698,557,o),
(774,557,qs)
);
}
);
width = 1040;
},
{
anchors = (
{
name = b.uni0324_3;
position = "{511, 0}";
}
);
layerId = "FE17A44E-3763-4243-92C2-150F6AC96B85";
shapes = (
{
closed = 1;
nodes = (
(818,538,o),
(917,488,o),
(973,385,o),
(973,305,qs),
(973,0,l),
(863,0,l),
(863,292,ls),
(863,366,o),
(796,440,o),
(734,440,qs),
(690,440,o),
(622,402,o),
(585,328,o),
(585,272,qs),
(585,0,l),
(475,0,l),
(475,292,ls),
(475,366,o),
(408,440,o),
(346,440,qs),
(302,440,o),
(234,402,o),
(197,328,o),
(197,272,qs),
(197,0,l),
(87,0,l),
(87,532,l),
(192,532,l),
(192,392,l),
(174,434,l),
(200,484,o),
(303,538,o),
(370,538,qs),
(445,538,o),
(556,464,o),
(574,389,q),
(528,407,l),
(553,466,o),
(674,538,o),
(753,538,qs)
);
}
);
width = 1055;
},
{
anchors = (
{
name = b.uni0324_3;
position = "{511, 0}";
}
);
layerId = "321F1C87-2BE4-472A-920D-C7836CF29DEE";
shapes = (
{
closed = 1;
nodes = (
(820,520,o),
(910,471,o),
(959,375,o),
(959,305,qs),
(959,0,l),
(939,0,l),
(939,305,ls),
(939,401,o),
(844,501,o),
(759,501,qs),
(693,501,o),
(598,446,o),
(547,347,o),
(547,281,qs),
(547,0,l),
(527,0,l),
(527,305,ls),
(527,401,o),
(432,501,o),
(347,501,qs),
(281,501,o),
(186,446,o),
(135,347,o),
(135,281,qs),
(135,0,l),
(115,0,l),
(115,517,l),
(135,517,l),
(135,371,l),
(133,374,l),
(155,441,o),
(265,520,o),
(346,520,qs),
(426,520,o),
(530,439,o),
(543,359,q),
(540,360,l),
(559,431,o),
(672,520,o),
(758,520,qs)
);
}
);
width = 1068;
}
);
leftKerningGroup = m;
rightKerningGroup = a;
unicode = 109;
},
{
glyphname = n;
layers = (
{
anchors = (
{
name = t.uni0308;
position = "{355, 547}";
},
{
name = b.uni0324_3;
position = "{355, 0}";
}
);
layerId = "B8EF125A-8090-42B9-BB2C-F5A019E05E81";
shapes = (
{
closed = 1;
nodes = (
(493,557,o),
(595,506,o),
(654,398,o),
(654,312,qs),
(654,0,l),
(428,0,l),
(428,273,ls),
(428,324,o),
(392,367,o),
(361,367,qs),
(338,367,o),
(299,346,o),
(276,298,o),
(276,257,qs),
(276,0,l),
(50,0,l),
(50,547,l),
(265,547,l),
(265,387,l),
(222,433,l),
(254,495,o),
(363,557,o),
(430,557,qs)
);
}
);
width = 702;
},
{
anchors = (
{
name = t.uni0308;
position = "{364, 562}";
},
{
name = b.uni0324_3;
position = "{364, 0}";
}
);
layerId = "FE17A44E-3763-4243-92C2-150F6AC96B85";
shapes = (
{
closed = 1;
nodes = (
(443,538,o),
(543,488,o),
(601,385,o),
(601,305,qs),
(601,0,l),
(491,0,l),
(491,292,ls),
(491,366,o),
(420,440,o),
(355,440,qs),
(308,440,o),
(236,402,o),
(197,328,o),
(197,272,qs),
(197,0,l),
(87,0,l),
(87,532,l),
(192,532,l),
(192,390,l),
(174,434,l),
(201,484,o),
(308,538,o),
(378,538,qs)
);
}
);
width = 683;
},
{
anchors = (
{
name = t.uni0308;
position = "{364, 562}";
},
{
name = b.uni0324_3;
position = "{364, 0}";
}
);
layerId = "321F1C87-2BE4-472A-920D-C7836CF29DEE";
shapes = (
{
closed = 1;
nodes = (
(416,520,o),
(508,471,o),
(559,375,o),
(559,305,qs),
(559,0,l),
(539,0,l),
(539,305,ls),
(539,401,o),
(441,501,o),
(353,501,qs),
(285,501,o),
(187,446,o),
(135,347,o),
(135,281,qs),
(135,0,l),
(115,0,l),
(115,517,l),
(135,517,l),
(135,370,l),
(133,373,l),
(156,441,o),
(268,520,o),
(352,520,qs)
);
}
);
width = 668;
}
);
leftKerningGroup = m;
rightKerningGroup = a;
unicode = 110;
},
{
glyphname = eng;
layers = (
{
layerId = "B8EF125A-8090-42B9-BB2C-F5A019E05E81";
shapes = (
{
closed = 1;
nodes = (
(493,557,o),
(595,506,o),
(654,398,o),
(654,312,qs),
(654,28,ls),
(654,-78,o),
(528,-204,o),
(415,-204,qs),
(375,-204,o),
(302,-190,o),
(276,-177,q),
(330,-20,l),
(354,-33,o),
(381,-33,qs),
(401,-33,o),
(428,-3,o),
(428,30,qs),
(428,273,ls),
(428,324,o),
(392,367,o),
(361,367,qs),
(338,367,o),
(299,346,o),
(276,298,o),
(276,257,qs),
(276,0,l),
(50,0,l),
(50,547,l),
(265,547,l),
(265,387,l),
(222,433,l),
(254,495,o),
(363,557,o),
(430,557,qs)
);
}
);
width = 702;
},
{
layerId = "FE17A44E-3763-4243-92C2-150F6AC96B85";
shapes = (
{
closed = 1;
nodes = (
(443,538,o),
(543,488,o),
(601,385,o),
(601,305,qs),
(601,-16,ls),
(601,-101,o),
(509,-200,o),
(423,-200,qs),
(389,-200,o),
(327,-185,o),
(306,-169,q),
(340,-85,l),
(369,-108,o),
(416,-108,qs),
(452,-108,o),
(491,-63,o),
(491,-19,qs),
(491,292,ls),
(491,366,o),
(420,440,o),
(355,440,qs),
(308,440,o),
(236,402,o),
(197,328,o),
(197,272,qs),
(197,0,l),
(87,0,l),
(87,532,l),
(192,532,l),
(192,390,l),
(174,434,l),
(201,484,o),
(308,538,o),
(378,538,qs)
);
}
);
width = 683;
},
{
layerId = "321F1C87-2BE4-472A-920D-C7836CF29DEE";
shapes = (
{
closed = 1;
nodes = (
(416,520,o),
(508,471,o),
(559,375,o),
(559,305,qs),
(559,-70,ls),
(559,-127,o),
(496,-197,o),
(437,-197,qs),
(407,-197,o),
(351,-179,o),
(333,-160,q),
(347,-146,l),
(381,-178,o),
(436,-178,qs),
(486,-178,o),
(539,-120,o),
(539,-65,qs),
(539,305,ls),
(539,401,o),
(441,501,o),
(353,501,qs),
(285,501,o),
(187,446,o),
(135,347,o),
(135,281,qs),
(135,0,l),
(115,0,l),
(115,517,l),
(135,517,l),
(135,370,l),
(133,373,l),
(156,441,o),
(268,520,o),
(352,520,qs)
);
}
);
width = 668;
}
);
leftKerningGroup = m;
rightKerningGroup = a;
unicode = 331;
},
{
glyphname = o;
layers = (
{
anchors = (
{
name = t.uni0308;
position = "{336, 547}";
},
{
name = t.uni0307_1;
position = "{336, 274}";
},
{
name = t.uni031B_2;
position = "{432, 547}";
},
{
name = b.uni0324_3;
position = "{336, 0}";
},
{
name = m.uni0328_4;
position = "{459, 0}";
}
);
layerId = "B8EF125A-8090-42B9-BB2C-F5A019E05E81";
shapes = (
{
closed = 1;
nodes = (
(246,-10,o),
(103,63,o),
(21,191,o),
(21,274,qs),
(21,357,o),
(103,485,o),
(246,557,o),
(339,557,qs),
(432,557,o),
(576,485,o),
(657,357,o),
(657,274,qs),
(657,191,o),
(576,63,o),
(432,-10,o),
(339,-10,qs)
);
},
{
closed = 1;
nodes = (
(364,166,o),
(404,190,o),
(428,239,o),
(428,274,qs),
(428,310,o),
(404,357,o),
(364,381,o),
(339,381,qs),
(314,381,o),
(274,357,o),
(250,310,o),
(250,274,qs),
(250,239,o),
(274,190,o),
(314,166,o),
(339,166,qs)
);
}
);
width = 678;
},
{
anchors = (
{
name = t.uni0308;
position = "{350, 562}";
},
{
name = t.uni0307_1;
position = "{350, 281}";
},
{
name = t.uni031B_2;
position = "{418, 561}";
},
{
name = b.uni0324_3;
position = "{350, 0}";
},
{
name = m.uni0328_4;
position = "{490, 0}";
}
);
layerId = "FE17A44E-3763-4243-92C2-150F6AC96B85";
shapes = (
{
closed = 1;
nodes = (
(239,-6,o),
(113,64,o),
(40,187,o),
(40,266,qs),
(40,346,o),
(113,468,o),
(239,538,o),
(320,538,qs),
(401,538,o),
(528,468,o),
(600,346,o),
(600,266,qs),
(600,187,o),
(528,64,o),
(401,-6,o),
(320,-6,qs)
);
},
{
closed = 1;
nodes = (
(369,90,o),
(445,133,o),
(489,213,o),
(489,266,qs),
(489,320,o),
(445,399,o),
(369,442,o),
(321,442,qs),
(272,442,o),
(196,399,o),
(151,320,o),
(151,266,qs),
(151,213,o),
(196,133,o),
(272,90,o),
(320,90,qs)
);
}
);
width = 640;
},
{
anchors = (
{
name = t.uni0308;
position = "{350, 562}";
},
{
name = t.uni0307_1;
position = "{350, 281}";
},
{
name = t.uni031B_2;
position = "{418, 561}";
},
{
name = b.uni0324_3;
position = "{350, 0}";
},
{
name = m.uni0328_4;
position = "{490, 0}";
}
);
layerId = "321F1C87-2BE4-472A-920D-C7836CF29DEE";
shapes = (
{
closed = 1;
nodes = (
(233,-3,o),
(120,64,o),
(54,183,o),
(54,259,qs),
(54,336,o),
(120,453,o),
(233,520,o),
(305,520,qs),
(377,520,o),
(491,453,o),
(556,336,o),
(556,259,qs),
(556,183,o),
(491,64,o),
(377,-3,o),
(305,-3,qs)
);
},
{
closed = 1;
nodes = (
(371,16,o),
(476,78,o),
(536,188,o),
(536,259,qs),
(536,331,o),
(476,440,o),
(371,501,o),
(305,501,qs),
(239,501,o),
(135,440,o),
(74,331,o),
(74,259,qs),
(74,188,o),
(135,78,o),
(239,16,o),
(305,16,qs)
);
}
);
width = 610;
}
);
leftKerningGroup = c2;
rightKerningGroup = b;
unicode = 111;
},
{
glyphname = ohorn;
layers = (
{
anchors = (
{
name = t.uni0308;
position = "{339, 547}";
},
{
name = b.uni0324_3;
position = "{339, 0}";
}
);
layerId = "B8EF125A-8090-42B9-BB2C-F5A019E05E81";
shapes = (
{
closed = 1;
nodes = (
(246,-10,o),
(103,63,o),
(21,191,o),
(21,274,qs),
(21,357,o),
(103,485,o),
(248,557,o),
(342,557,qs),
(367,557,o),
(410,552,o),
(445,547,o),
(459,547,qs),
(484,547,o),
(509,580,o),
(509,608,qs),
(509,625,o),
(496,655,o),
(487,665,q),
(615,710,l),
(632,688,o),
(654,633,o),
(654,599,qs),
(654,545,o),
(599,463,o),
(503,418,o),
(442,418,qs),
(411,418,o),
(353,425,o),
(329,430,q),
(480,530,l),
(563,497,o),
(657,363,o),
(657,274,qs),
(657,191,o),
(575,63,o),
(432,-10,o),
(339,-10,qs)
);
},
{
closed = 1;
nodes = (
(364,166,o),
(404,190,o),
(428,239,o),
(428,274,qs),
(428,310,o),
(404,357,o),
(364,381,o),
(339,381,qs),
(314,381,o),
(274,357,o),
(250,310,o),
(250,274,qs),
(250,239,o),
(274,190,o),
(314,166,o),
(339,166,qs)
);
}
);
width = 678;
},
{
anchors = (
{
name = t.uni0308;
position = "{354, 562}";
},
{
name = b.uni0324_3;
position = "{354, 0}";
}
);
layerId = "FE17A44E-3763-4243-92C2-150F6AC96B85";
shapes = (
{
closed = 1;
nodes = (
(239,-6,o),
(113,64,o),
(40,187,o),
(40,266,qs),
(40,346,o),
(113,468,o),
(240,538,o),
(321,538,qs),
(348,538,o),
(385,535,o),
(420,531,o),
(441,531,qs),
(479,531,o),
(514,570,o),
(514,598,qs),
(514,616,o),
(502,647,o),
(493,660,q),
(561,686,l),
(574,667,o),
(591,620,o),
(591,594,qs),
(591,553,o),
(553,492,o),
(482,459,o),
(432,459,qs),
(415,459,o),
(380,463,o),
(361,466,q),
(428,518,l),
(506,489,o),
(600,356,o),
(600,266,qs),
(600,187,o),
(528,64,o),
(401,-6,o),
(320,-6,qs)
);
},
{
closed = 1;
nodes = (
(368,90,o),
(444,133,o),
(489,213,o),
(489,266,qs),
(489,320,o),
(445,399,o),
(369,442,o),
(320,442,qs),
(272,442,o),
(196,399,o),
(151,320,o),
(151,266,qs),
(151,213,o),
(196,133,o),
(272,90,o),
(320,90,qs)
);
}
);
width = 640;
},
{
anchors = (
{
name = t.uni0308;
position = "{354, 562}";
},
{
name = b.uni0324_3;
position = "{354, 0}";
}
);
layerId = "321F1C87-2BE4-472A-920D-C7836CF29DEE";
shapes = (
{
closed = 1;
nodes = (
(233,-3,o),
(120,64,o),
(54,183,o),
(54,259,qs),
(54,336,o),
(120,453,o),
(233,520,o),
(305,520,qs),
(333,520,o),
(370,518,o),
(408,515,o),
(435,515,qs),
(482,515,o),
(526,560,o),
(526,588,qs),
(526,608,o),
(514,641,o),
(506,655,q),
(524,663,l),
(534,648,o),
(546,609,o),
(546,589,qs),
(546,565,o),
(522,522,o),
(474,496,o),
(436,496,qs),
(429,496,o),
(413,497,o),
(399,498,q),
(390,506,l),
(464,481,o),
(556,350,o),
(556,259,qs),
(556,183,o),
(491,64,o),
(377,-3,o),
(305,-3,qs)
);
},
{
closed = 1;
nodes = (
(371,16,o),
(476,78,o),
(536,188,o),
(536,259,qs),
(536,331,o),
(476,440,o),
(371,501,o),
(305,501,qs),
(239,501,o),
(135,440,o),
(74,331,o),
(74,259,qs),
(74,188,o),
(135,78,o),
(239,16,o),
(305,16,qs)
);
}
);
width = 610;
}
);
leftKerningGroup = c2;
rightKerningGroup = ohorn;
unicode = 417;
},
{
glyphname = uni1EE1;
layers = (
{
anchors = (
{
name = t.uni0308;
position = "{339, 547}";
},
{
name = b.uni0324_3;
position = "{339, 0}";
}
);
layerId = "B8EF125A-8090-42B9-BB2C-F5A019E05E81";
shapes = (
{
closed = 1;
nodes = (
(362,597,o),
(327,615,o),
(299,638,o),
(276,656,o),
(265,656,qs),
(250,656,o),
(231,630,o),
(229,607,q),
(144,607,l),
(145,686,o),
(203,780,o),
(254,780,qs),
(276,780,o),
(311,762,o),
(339,739,o),
(362,721,o),
(373,721,qs),
(388,721,o),
(407,746,o),
(409,767,q),
(494,767,l),
(493,691,o),
(435,597,o),
(384,597,qs)
);
},
{
closed = 1;
nodes = (
(246,-10,o),
(103,63,o),
(21,191,o),
(21,274,qs),
(21,357,o),
(103,485,o),
(248,557,o),
(342,557,qs),
(367,557,o),
(410,552,o),
(445,547,o),
(459,547,qs),
(484,547,o),
(509,580,o),
(509,608,qs),
(509,625,o),
(496,655,o),
(487,665,q),
(615,710,l),
(632,688,o),
(654,633,o),
(654,599,qs),
(654,545,o),
(599,463,o),
(503,418,o),
(442,418,qs),
(411,418,o),
(353,425,o),
(329,430,q),
(480,530,l),
(563,497,o),
(657,363,o),
(657,274,qs),
(657,191,o),
(575,63,o),
(432,-10,o),
(339,-10,qs)
);
},
{
closed = 1;
nodes = (
(364,166,o),
(404,190,o),
(428,239,o),
(428,274,qs),
(428,310,o),
(404,357,o),
(364,381,o),
(339,381,qs),
(314,381,o),
(274,357,o),
(250,310,o),
(250,274,qs),
(250,239,o),
(274,190,o),
(314,166,o),
(339,166,qs)
);
}
);
width = 672;
},
{
anchors = (
{
name = t.uni0308;
position = "{354, 562}";
},
{
name = b.uni0324_3;
position = "{354, 0}";
}
);
layerId = "FE17A44E-3763-4243-92C2-150F6AC96B85";
shapes = (
{
closed = 1;
nodes = (
(361,608,o),
(327,628,o),
(298,655,o),
(274,675,o),
(261,675,qs),
(241,675,o),
(217,643,o),
(216,614,q),
(160,614,l),
(161,673,o),
(212,742,o),
(254,742,qs),
(276,742,o),
(311,722,o),
(340,695,o),
(364,675,o),
(376,675,qs),
(396,675,o),
(421,706,o),
(422,734,q),
(478,734,l),
(476,678,o),
(425,608,o),
(384,608,qs)
);
},
{
closed = 1;
nodes = (
(239,-6,o),
(113,64,o),
(40,187,o),
(40,266,qs),
(40,346,o),
(113,468,o),
(240,538,o),
(321,538,qs),
(348,538,o),
(385,535,o),
(420,531,o),
(441,531,qs),
(479,531,o),
(514,570,o),
(514,598,qs),
(514,616,o),
(502,647,o),
(493,660,q),
(561,686,l),
(574,667,o),
(591,620,o),
(591,594,qs),
(591,553,o),
(553,492,o),
(482,459,o),
(432,459,qs),
(415,459,o),
(380,463,o),
(361,466,q),
(428,518,l),
(506,489,o),
(600,356,o),
(600,266,qs),
(600,187,o),
(528,64,o),
(401,-6,o),
(320,-6,qs)
);
},
{
closed = 1;
nodes = (
(368,90,o),
(444,133,o),
(489,213,o),
(489,266,qs),
(489,320,o),
(445,399,o),
(369,442,o),
(320,442,qs),
(272,442,o),
(196,399,o),
(151,320,o),
(151,266,qs),
(151,213,o),
(196,133,o),
(272,90,o),
(320,90,qs)
);
}
);
width = 644;
},
{
anchors = (
{
name = t.uni0308;
position = "{354, 562}";
},
{
name = b.uni0324_3;
position = "{354, 0}";
}
);
layerId = "321F1C87-2BE4-472A-920D-C7836CF29DEE";
shapes = (
{
closed = 1;
nodes = (
(351,619,o),
(318,640,o),
(291,667,o),
(263,688,o),
(246,688,qs),
(222,688,o),
(194,652,o),
(192,621,q),
(173,621,l),
(175,660,o),
(214,707,o),
(246,707,qs),
(267,707,o),
(300,686,o),
(327,659,o),
(355,638,o),
(372,638,qs),
(396,638,o),
(425,674,o),
(426,703,q),
(445,703,l),
(444,666,o),
(404,619,o),
(372,619,qs)
);
},
{
closed = 1;
nodes = (
(233,-3,o),
(120,64,o),
(54,183,o),
(54,259,qs),
(54,336,o),
(120,453,o),
(233,520,o),
(305,520,qs),
(333,520,o),
(370,518,o),
(408,515,o),
(435,515,qs),
(482,515,o),
(526,560,o),
(526,588,qs),
(526,608,o),
(514,641,o),
(506,655,q),
(524,663,l),
(534,648,o),
(546,609,o),
(546,589,qs),
(546,565,o),
(522,522,o),
(474,496,o),
(436,496,qs),
(429,496,o),
(413,497,o),
(399,498,q),
(390,506,l),
(464,481,o),
(556,350,o),
(556,259,qs),
(556,183,o),
(491,64,o),
(377,-3,o),
(305,-3,qs)
);
},
{
closed = 1;
nodes = (
(371,16,o),
(476,78,o),
(536,188,o),
(536,259,qs),
(536,331,o),
(476,440,o),
(371,501,o),
(305,501,qs),
(239,501,o),
(135,440,o),
(74,331,o),
(74,259,qs),
(74,188,o),
(135,78,o),
(239,16,o),
(305,16,qs)
);
}
);
width = 614;
}
);
leftKerningGroup = c2;
rightKerningGroup = ohorn;
unicode = 7905;
},
{
glyphname = uni01EB;
layers = (
{
anchors = (
{
name = t.uni0308;
position = "{336, 547}";
},
{
name = t.uni0307_1;
position = "{336, 274}";
},
{
name = t.uni031B_2;
position = "{432, 547}";
},
{
name = b.uni0324_3;
position = "{336, 0}";
}
);
layerId = "B8EF125A-8090-42B9-BB2C-F5A019E05E81";
shapes = (
{
closed = 1;
nodes = (
(296,-240,o),
(213,-173,o),
(213,-117,qs),
(213,-80,o),
(252,-18,o),
(327,28,o),
(380,39,q),
(386,-6,l),
(374,-7,o),
(351,-10,o),
(339,-10,qs),
(246,-10,o),
(103,63,o),
(21,191,o),
(21,274,qs),
(21,357,o),
(103,485,o),
(246,557,o),
(339,557,qs),
(432,557,o),
(576,485,o),
(657,357,o),
(657,274,qs),
(657,182,o),
(553,44,o),
(466,11,qs),
(417,-7,o),
(364,-44,o),
(345,-79,o),
(345,-96,qs),
(345,-112,o),
(370,-138,o),
(398,-138,qs),
(415,-138,o),
(446,-129,o),
(457,-124,q),
(484,-217,l),
(466,-227,o),
(403,-240,o),
(371,-240,qs)
);
},
{
closed = 1;
nodes = (
(364,166,o),
(404,190,o),
(428,239,o),
(428,274,qs),
(428,310,o),
(404,357,o),
(364,381,o),
(339,381,qs),
(314,381,o),
(274,357,o),
(250,310,o),
(250,274,qs),
(250,239,o),
(274,190,o),
(314,166,o),
(339,166,qs)
);
}
);
width = 678;
},
{
anchors = (
{
name = t.uni0308;
position = "{350, 562}";
},
{
name = t.uni0307_1;
position = "{350, 281}";
},
{
name = t.uni031B_2;
position = "{417, 561}";
},
{
name = b.uni0324_3;
position = "{350, 0}";
}
);
layerId = "FE17A44E-3763-4243-92C2-150F6AC96B85";
shapes = (
{
closed = 1;
nodes = (
(290,-226,o),
(224,-168,o),
(224,-124,qs),
(224,-95,o),
(251,-37,o),
(313,15,o),
(364,35,q),
(373,-2,l),
(357,-4,o),
(332,-6,o),
(320,-6,qs),
(239,-6,o),
(113,64,o),
(40,187,o),
(40,266,qs),
(40,346,o),
(113,468,o),
(239,538,o),
(320,538,qs),
(401,538,o),
(528,468,o),
(600,346,o),
(600,266,qs),
(600,178,o),
(511,47,o),
(436,15,qs),
(382,-8,o),
(324,-52,o),
(301,-93,o),
(301,-112,qs),
(301,-137,o),
(335,-163,o),
(361,-163,qs),
(377,-163,o),
(410,-154,o),
(422,-147,q),
(442,-203,l),
(423,-213,o),
(375,-226,o),
(349,-226,qs)
);
},
{
closed = 1;
nodes = (
(369,90,o),
(445,133,o),
(489,213,o),
(489,266,qs),
(489,320,o),
(445,399,o),
(369,442,o),
(320,442,qs),
(272,442,o),
(196,399,o),
(151,320,o),
(151,266,qs),
(151,213,o),
(196,133,o),
(272,90,o),
(320,90,qs)
);
}
);
width = 640;
},
{
anchors = (
{
name = t.uni0308;
position = "{350, 562}";
},
{
name = t.uni0307_1;
position = "{350, 281}";
},
{
name = t.uni031B_2;
position = "{417, 561}";
},
{
name = b.uni0324_3;
position = "{350, 0}";
}
);
layerId = "321F1C87-2BE4-472A-920D-C7836CF29DEE";
shapes = (
{
closed = 1;
nodes = (
(295,-213,o),
(243,-169,o),
(243,-130,qs),
(243,-109,o),
(263,-61,o),
(319,-9,o),
(374,16,q),
(363,2,l),
(344,-1,o),
(318,-3,o),
(305,-3,qs),
(233,-3,o),
(120,64,o),
(54,183,o),
(54,259,qs),
(54,336,o),
(120,453,o),
(233,520,o),
(305,520,qs),
(377,520,o),
(491,453,o),
(556,336,o),
(556,259,qs),
(556,175,o),
(479,51,o),
(412,19,qs),
(346,-12,o),
(282,-65,o),
(263,-110,o),
(263,-130,qs),
(263,-162,o),
(304,-194,o),
(335,-194,qs),
(352,-194,o),
(385,-182,o),
(397,-171,q),
(408,-186,l),
(392,-200,o),
(355,-213,o),
(334,-213,qs)
);
},
{
closed = 1;
nodes = (
(371,16,o),
(476,78,o),
(536,188,o),
(536,259,qs),
(536,331,o),
(476,440,o),
(371,501,o),
(305,501,qs),
(239,501,o),
(135,440,o),
(74,331,o),
(74,259,qs),
(74,188,o),
(135,78,o),
(239,16,o),
(305,16,qs)
);
}
);
width = 610;
}
);
leftKerningGroup = c2;
rightKerningGroup = b;
unicode = 491;
},
{
glyphname = oe;
layers = (
{
anchors = (
{
name = t.uni0308;
position = "{540, 547}";
},
{
name = b.uni0324_3;
position = "{540, 0}";
}
);
layerId = "B8EF125A-8090-42B9-BB2C-F5A019E05E81";
shapes = (
{
closed = 1;
nodes = (
(245,-10,o),
(103,63,o),
(21,191,o),
(21,274,qs),
(21,357,o),
(103,485,o),
(245,557,o),
(335,557,qs),
(425,557,o),
(555,485,o),
(625,357,o),
(625,274,qs),
(625,191,o),
(555,63,o),
(425,-10,o),
(335,-10,qs)
);
},
{
closed = 1;
nodes = (
(364,166,o),
(404,190,o),
(428,239,o),
(428,274,qs),
(428,310,o),
(404,357,o),
(364,381,o),
(339,381,qs),
(314,381,o),
(274,357,o),
(250,310,o),
(250,274,qs),
(250,239,o),
(274,190,o),
(314,166,o),
(339,166,qs)
);
},
{
closed = 1;
nodes = (
(662,-10,o),
(522,64,o),
(448,193,o),
(448,274,qs),
(448,357,o),
(521,485,o),
(653,557,o),
(739,557,qs),
(819,557,o),
(956,493,o),
(1041,368,o),
(1041,277,qs),
(1041,261,o),
(1039,233,o),
(1037,221,q),
(636,221,l),
(636,330,l),
(869,330,l),
(829,301,l),
(829,333,o),
(808,378,o),
(768,403,o),
(739,403,qs),
(711,403,o),
(669,378,o),
(647,333,o),
(647,301,qs),
(647,267,ls),
(647,232,o),
(674,182,o),
(728,157,o),
(766,157,qs),
(799,157,o),
(850,177,o),
(878,197,q),
(999,78,l),
(958,35,o),
(834,-10,o),
(760,-10,qs)
);
}
);
width = 1062;
},
{
anchors = (
{
name = t.uni0308;
position = "{537, 562}";
},
{
name = b.uni0324_3;
position = "{537, 0}";
}
);
layerId = "FE17A44E-3763-4243-92C2-150F6AC96B85";
shapes = (
{
closed = 1;
nodes = (
(239,-6,o),
(113,64,o),
(40,187,o),
(40,266,qs),
(40,346,o),
(113,468,o),
(239,538,o),
(320,538,qs),
(401,538,o),
(522,468,o),
(589,346,o),
(589,266,qs),
(589,187,o),
(522,64,o),
(401,-6,o),
(320,-6,qs)
);
},
{
closed = 1;
nodes = (
(369,90,o),
(445,133,o),
(489,213,o),
(489,266,qs),
(489,320,o),
(445,399,o),
(369,442,o),
(320,442,qs),
(272,442,o),
(196,399,o),
(151,320,o),
(151,266,qs),
(151,213,o),
(196,133,o),
(272,90,o),
(320,90,qs)
);
},
{
closed = 1;
nodes = (
(692,-6,o),
(565,64,o),
(496,187,o),
(496,266,qs),
(496,345,o),
(563,468,o),
(682,538,o),
(760,538,qs),
(838,538,o),
(958,469,o),
(1026,345,o),
(1026,262,qs),
(1026,255,o),
(1025,236,o),
(1024,228,q),
(576,228,l),
(576,307,l),
(966,307,l),
(922,281,l),
(923,329,o),
(881,403,o),
(808,445,o),
(760,445,qs),
(712,445,o),
(639,403,o),
(597,328,o),
(597,278,qs),
(597,260,ls),
(597,210,o),
(643,133,o),
(727,90,o),
(782,90,qs),
(828,90,o),
(903,120,o),
(931,151,q),
(991,80,l),
(955,38,o),
(847,-6,o),
(779,-6,qs)
);
}
);
width = 1066;
},
{
anchors = (
{
name = t.uni0308;
position = "{537, 562}";
},
{
name = b.uni0324_3;
position = "{537, 0}";
}
);
layerId = "321F1C87-2BE4-472A-920D-C7836CF29DEE";
shapes = (
{
closed = 1;
nodes = (
(233,-3,o),
(120,64,o),
(54,183,o),
(54,259,qs),
(54,336,o),
(120,453,o),
(233,520,o),
(305,520,qs),
(377,520,o),
(489,453,o),
(554,336,o),
(554,259,qs),
(554,183,o),
(489,64,o),
(377,-3,o),
(305,-3,qs)
);
},
{
closed = 1;
nodes = (
(371,16,o),
(476,78,o),
(536,188,o),
(536,259,qs),
(536,331,o),
(476,440,o),
(371,501,o),
(305,501,qs),
(239,501,o),
(135,440,o),
(74,331,o),
(74,259,qs),
(74,188,o),
(135,78,o),
(239,16,o),
(305,16,qs)
);
},
{
closed = 1;
nodes = (
(721,-3,o),
(604,64,o),
(538,183,o),
(538,259,qs),
(538,336,o),
(600,453,o),
(708,520,o),
(776,520,qs),
(844,520,o),
(953,455,o),
(1016,339,o),
(1016,264,q),
(1016,263,o),
(1016,261,o),
(1016,259,q),
(548,259,l),
(548,278,l),
(1005,278,l),
(997,263,l),
(997,331,o),
(939,439,o),
(840,501,o),
(776,501,qs),
(713,501,o),
(613,439,o),
(556,331,o),
(556,263,qs),
(556,259,ls),
(556,188,o),
(618,78,o),
(727,16,o),
(795,16,qs),
(847,16,o),
(940,56,o),
(971,96,q),
(985,82,l),
(951,40,o),
(851,-3,o),
(795,-3,qs)
);
}
);
width = 1070;
}
);
leftKerningGroup = c2;
rightKerningGroup = e;
unicode = 339;
},
{
glyphname = p;
layers = (
{
anchors = (
{
name = t.uni0308;
position = "{362, 547}";
},
{
name = b.uni0324_3;
position = "{414, 0}";
}
);
layerId = "B8EF125A-8090-42B9-BB2C-F5A019E05E81";
shapes = (
{
closed = 1;
nodes = (
(344,-10,o),
(251,51,o),
(207,176,o),
(207,273,qs),
(207,372,o),
(248,497,o),
(340,557,o),
(415,557,qs),
(487,557,o),
(607,488,o),
(679,361,o),
(679,273,qs),
(679,185,o),
(607,58,o),
(487,-10,o),
(415,-10,qs)
);
},
{
closed = 1;
nodes = (
(50,-194,l),
(50,547,l),
(265,547,l),
(265,473,l),
(266,273,l),
(276,73,l),
(276,-194,l)
);
},
{
closed = 1;
nodes = (
(386,166,o),
(426,190,o),
(450,238,o),
(450,273,qs),
(450,309,o),
(426,357,o),
(386,381,o),
(361,381,qs),
(336,381,o),
(296,357,o),
(272,309,o),
(272,273,qs),
(272,238,o),
(296,190,o),
(336,166,o),
(361,166,qs)
);
}
);
width = 700;
},
{
anchors = (
{
name = t.uni0308;
position = "{360, 562}";
},
{
name = b.uni0324_3;
position = "{435, 0}";
}
);
layerId = "FE17A44E-3763-4243-92C2-150F6AC96B85";
shapes = (
{
closed = 1;
nodes = (
(308,-6,o),
(199,53,o),
(134,174,o),
(134,266,qs),
(134,359,o),
(197,479,o),
(306,538,o),
(373,538,qs),
(452,538,o),
(574,470,o),
(644,348,o),
(644,266,qs),
(644,184,o),
(574,62,o),
(452,-6,o),
(373,-6,qs)
);
},
{
closed = 1;
nodes = (
(87,-194,l),
(87,532,l),
(192,532,l),
(192,398,l),
(187,265,l),
(197,132,l),
(197,-194,l)
);
},
{
closed = 1;
nodes = (
(412,90,o),
(488,133,o),
(533,213,o),
(533,266,qs),
(533,320,o),
(488,399,o),
(412,442,o),
(364,442,qs),
(316,442,o),
(240,399,o),
(195,320,o),
(195,266,qs),
(195,213,o),
(240,133,o),
(316,90,o),
(364,90,qs)
);
}
);
width = 684;
},
{
anchors = (
{
name = t.uni0308;
position = "{360, 562}";
},
{
name = b.uni0324_3;
position = "{435, 0}";
}
);
layerId = "321F1C87-2BE4-472A-920D-C7836CF29DEE";
shapes = (
{
closed = 1;
nodes = (
(295,-3,o),
(183,64,o),
(118,182,o),
(118,258,qs),
(118,335,o),
(183,453,o),
(295,520,o),
(366,520,qs),
(437,520,o),
(551,453,o),
(617,335,o),
(617,258,qs),
(617,182,o),
(551,64,o),
(437,-3,o),
(366,-3,qs)
);
},
{
closed = 1;
nodes = (
(115,-194,l),
(115,517,l),
(135,517,l),
(135,327,l),
(125,257,l),
(135,187,l),
(135,-194,l)
);
},
{
closed = 1;
nodes = (
(432,16,o),
(537,77,o),
(597,187,o),
(597,258,qs),
(597,330,o),
(537,439,o),
(432,501,o),
(366,501,qs),
(300,501,o),
(195,439,o),
(135,330,o),
(135,258,qs),
(135,187,o),
(195,77,o),
(300,16,o),
(366,16,qs)
);
}
);
width = 671;
}
);
leftKerningGroup = m;
rightKerningGroup = b;
unicode = 112;
},
{
glyphname = thorn;
layers = (
{
anchors = (
{
name = t.uni0308;
position = "{412, 547}";
},
{
name = b.uni0324_3;
position = "{412, 0}";
}
);
layerId = "B8EF125A-8090-42B9-BB2C-F5A019E05E81";
shapes = (
{
closed = 1;
nodes = (
(344,-10,o),
(251,51,o),
(207,176,o),
(207,273,qs),
(207,372,o),
(248,497,o),
(340,557,o),
(415,557,qs),
(487,557,o),
(607,488,o),
(679,361,o),
(679,273,qs),
(679,185,o),
(607,58,o),
(487,-10,o),
(416,-10,qs)
);
},
{
closed = 1;
nodes = (
(50,-194,l),
(50,742,l),
(276,742,l),
(276,473,l),
(266,273,l),
(276,73,l),
(276,-194,l)
);
},
{
closed = 1;
nodes = (
(386,166,o),
(426,190,o),
(450,238,o),
(450,273,qs),
(450,309,o),
(426,357,o),
(386,381,o),
(361,381,qs),
(336,381,o),
(296,357,o),
(272,309,o),
(272,273,qs),
(272,238,o),
(296,190,o),
(336,166,o),
(361,166,qs)
);
}
);
width = 700;
},
{
anchors = (
{
name = t.uni0308;
position = "{432, 562}";
},
{
name = b.uni0324_3;
position = "{432, 0}";
}
);
layerId = "FE17A44E-3763-4243-92C2-150F6AC96B85";
shapes = (
{
closed = 1;
nodes = (
(308,-6,o),
(199,53,o),
(134,174,o),
(134,266,qs),
(134,359,o),
(197,479,o),
(306,538,o),
(373,538,qs),
(452,538,o),
(574,470,o),
(644,348,o),
(644,266,qs),
(644,184,o),
(574,62,o),
(452,-6,o),
(373,-6,qs)
);
},
{
closed = 1;
nodes = (
(87,-194,l),
(87,742,l),
(197,742,l),
(197,398,l),
(187,265,l),
(197,132,l),
(197,-194,l)
);
},
{
closed = 1;
nodes = (
(412,90,o),
(488,133,o),
(533,213,o),
(533,266,qs),
(533,320,o),
(488,399,o),
(412,442,o),
(364,442,qs),
(316,442,o),
(240,399,o),
(195,320,o),
(195,266,qs),
(195,213,o),
(240,133,o),
(316,90,o),
(364,90,qs)
);
}
);
width = 684;
},
{
anchors = (
{
name = t.uni0308;
position = "{432, 562}";
},
{
name = b.uni0324_3;
position = "{432, 0}";
}
);
layerId = "321F1C87-2BE4-472A-920D-C7836CF29DEE";
shapes = (
{
closed = 1;
nodes = (
(295,-3,o),
(183,64,o),
(118,182,o),
(118,258,qs),
(118,335,o),
(183,453,o),
(295,520,o),
(366,520,qs),
(437,520,o),
(551,453,o),
(617,335,o),
(617,258,qs),
(617,182,o),
(551,64,o),
(437,-3,o),
(366,-3,qs)
);
},
{
closed = 1;
nodes = (
(115,-194,l),
(115,742,l),
(135,742,l),
(135,327,l),
(125,257,l),
(135,187,l),
(135,-194,l)
);
},
{
closed = 1;
nodes = (
(432,16,o),
(537,77,o),
(597,187,o),
(597,258,qs),
(597,330,o),
(537,439,o),
(432,501,o),
(366,501,qs),
(300,501,o),
(195,439,o),
(135,330,o),
(135,258,qs),
(135,187,o),
(195,77,o),
(300,16,o),
(366,16,qs)
);
}
);
width = 671;
}
);
leftKerningGroup = b2;
rightKerningGroup = b;
unicode = 254;
},
{
glyphname = q;
layers = (
{
anchors = (
{
name = t.uni0308;
position = "{339, 547}";
},
{
name = b.uni0324_3;
position = "{288, 0}";
}
);
layerId = "B8EF125A-8090-42B9-BB2C-F5A019E05E81";
shapes = (
{
closed = 1;
nodes = (
(214,-10,o),
(93,58,o),
(21,185,o),
(21,273,qs),
(21,361,o),
(93,488,o),
(214,557,o),
(285,557,qs),
(361,557,o),
(452,497,o),
(493,372,o),
(493,273,qs),
(493,176,o),
(449,51,o),
(357,-10,o),
(285,-10,qs)
);
},
{
closed = 1;
nodes = (
(364,166,o),
(404,190,o),
(428,238,o),
(428,273,qs),
(428,309,o),
(404,357,o),
(364,381,o),
(339,381,qs),
(314,381,o),
(274,357,o),
(250,309,o),
(250,273,qs),
(250,238,o),
(274,190,o),
(314,166,o),
(339,166,qs)
);
},
{
closed = 1;
nodes = (
(424,-194,l),
(424,73,l),
(434,273,l),
(435,473,l),
(435,547,l),
(650,547,l),
(650,-194,l)
);
}
);
width = 700;
},
{
anchors = (
{
name = t.uni0308;
position = "{354, 562}";
},
{
name = b.uni0324_3;
position = "{281, 0}";
}
);
layerId = "FE17A44E-3763-4243-92C2-150F6AC96B85";
shapes = (
{
closed = 1;
nodes = (
(233,-6,o),
(110,62,o),
(40,184,o),
(40,266,qs),
(40,348,o),
(110,470,o),
(233,538,o),
(311,538,qs),
(379,538,o),
(487,479,o),
(550,359,o),
(550,266,qs),
(550,174,o),
(485,53,o),
(377,-6,o),
(311,-6,qs)
);
},
{
closed = 1;
nodes = (
(368,90,o),
(444,133,o),
(489,213,o),
(489,266,qs),
(489,320,o),
(444,399,o),
(368,442,o),
(320,442,qs),
(272,442,o),
(196,399,o),
(151,320,o),
(151,266,qs),
(151,213,o),
(196,133,o),
(272,90,o),
(320,90,qs)
);
},
{
closed = 1;
nodes = (
(487,-194,l),
(487,132,l),
(497,265,l),
(492,398,l),
(492,532,l),
(597,532,l),
(597,-194,l)
);
}
);
width = 684;
},
{
anchors = (
{
name = t.uni0308;
position = "{354, 562}";
},
{
name = b.uni0324_3;
position = "{281, 0}";
}
);
layerId = "321F1C87-2BE4-472A-920D-C7836CF29DEE";
shapes = (
{
closed = 1;
nodes = (
(234,-3,o),
(120,64,o),
(54,182,o),
(54,258,qs),
(54,335,o),
(120,453,o),
(234,520,o),
(305,520,qs),
(376,520,o),
(488,453,o),
(553,335,o),
(553,258,qs),
(553,182,o),
(488,64,o),
(376,-3,o),
(305,-3,qs)
);
},
{
closed = 1;
nodes = (
(371,16,o),
(476,77,o),
(536,187,o),
(536,258,qs),
(536,330,o),
(476,439,o),
(371,501,o),
(305,501,qs),
(239,501,o),
(135,439,o),
(74,330,o),
(74,258,qs),
(74,187,o),
(135,77,o),
(239,16,o),
(305,16,qs)
);
},
{
closed = 1;
nodes = (
(536,-194,l),
(536,187,l),
(546,257,l),
(536,327,l),
(536,517,l),
(556,517,l),
(556,-194,l)
);
}
);
width = 671;
}
);
leftKerningGroup = c2;
rightKerningGroup = g;
unicode = 113;
},
{
glyphname = r;
layers = (
{
anchors = (
{
name = t.uni0308;
position = "{245, 547}";
},
{
name = b.uni0324_3;
position = "{163, 0}";
}
);
layerId = "B8EF125A-8090-42B9-BB2C-F5A019E05E81";
shapes = (
{
closed = 1;
nodes = (
(50,0,l),
(50,547,l),
(265,547,l),
(265,382,l),
(230,429,l),
(255,493,o),
(365,557,o),
(442,557,q),
(442,357,l),
(427,359,o),
(404,361,o),
(392,361,qs),
(341,361,o),
(276,308,o),
(276,243,qs),
(276,0,l)
);
}
);
width = 456;
},
{
anchors = (
{
name = t.uni0308;
position = "{253, 562}";
},
{
name = b.uni0324_3;
position = "{180, 0}";
}
);
layerId = "FE17A44E-3763-4243-92C2-150F6AC96B85";
shapes = (
{
closed = 1;
nodes = (
(87,0,l),
(87,532,l),
(192,532,l),
(192,388,l),
(181,430,l),
(204,483,o),
(307,538,o),
(383,538,q),
(383,431,l),
(376,432,o),
(364,433,o),
(358,433,qs),
(284,433,o),
(197,346,o),
(197,261,qs),
(197,0,l)
);
}
);
width = 415;
},
{
anchors = (
{
name = t.uni0308;
position = "{253, 562}";
},
{
name = b.uni0324_3;
position = "{180, 0}";
}
);
layerId = "321F1C87-2BE4-472A-920D-C7836CF29DEE";
shapes = (
{
closed = 1;
nodes = (
(115,0,l),
(115,517,l),
(135,517,l),
(135,374,l),
(133,377,l),
(154,445,o),
(259,520,o),
(338,520,q),
(338,500,l),
(337,500,o),
(334,500,o),
(332,500,qs),
(239,500,o),
(135,381,o),
(135,278,qs),
(135,0,l)
);
}
);
width = 383;
}
);
leftKerningGroup = m;
rightKerningGroup = r;
unicode = 114;
},
{
glyphname = s;
layers = (
{
anchors = (
{
name = t.uni0308;
position = "{276, 547}";
},
{
name = b.uni0324_3;
position = "{276, 0}";
}
);
layerId = "B8EF125A-8090-42B9-BB2C-F5A019E05E81";
shapes = (
{
closed = 1;
nodes = (
(194,-10,o),
(58,20,o),
(16,44,q),
(78,193,l),
(117,170,o),
(220,144,o),
(269,144,qs),
(310,144,o),
(339,158,o),
(339,170,qs),
(339,182,o),
(305,193,o),
(249,199,o),
(182,208,o),
(114,226,o),
(58,262,o),
(24,323,o),
(24,370,qs),
(24,422,o),
(87,506,o),
(212,557,o),
(304,557,qs),
(364,557,o),
(484,535,o),
(527,512,q),
(465,363,l),
(423,386,o),
(342,403,o),
(307,403,qs),
(264,403,o),
(233,387,o),
(233,377,qs),
(233,365,o),
(267,353,o),
(323,347,o),
(390,338,o),
(457,319,o),
(513,283,o),
(547,222,o),
(547,175,qs),
(547,126,o),
(485,41,o),
(359,-10,o),
(264,-10,qs)
);
}
);
width = 565;
},
{
anchors = (
{
name = t.uni0308;
position = "{295, 562}";
},
{
name = b.uni0324_3;
position = "{295, 0}";
}
);
layerId = "FE17A44E-3763-4243-92C2-150F6AC96B85";
shapes = (
{
closed = 1;
nodes = (
(178,-6,o),
(57,29,o),
(22,54,q),
(68,141,l),
(103,118,o),
(203,88,o),
(253,88,qs),
(315,88,o),
(371,122,o),
(371,152,qs),
(371,175,o),
(335,200,o),
(276,213,o),
(205,223,o),
(134,240,o),
(75,272,o),
(39,328,o),
(39,374,qs),
(39,424,o),
(96,498,o),
(198,538,o),
(267,538,qs),
(320,538,o),
(429,513,o),
(464,491,q),
(418,404,l),
(381,427,o),
(304,444,o),
(266,444,qs),
(207,444,o),
(148,408,o),
(148,379,qs),
(148,354,o),
(184,328,o),
(243,313,o),
(314,303,o),
(385,286,o),
(444,255,o),
(480,200,o),
(480,155,qs),
(480,105,o),
(422,33,o),
(317,-6,o),
(245,-6,qs)
);
}
);
width = 508;
},
{
anchors = (
{
name = t.uni0308;
position = "{295, 562}";
},
{
name = b.uni0324_3;
position = "{295, 0}";
}
);
layerId = "321F1C87-2BE4-472A-920D-C7836CF29DEE";
shapes = (
{
closed = 1;
nodes = (
(171,-3,o),
(61,37,o),
(32,68,q),
(44,84,l),
(72,57,o),
(172,16,o),
(234,16,qs),
(326,16,o),
(406,80,o),
(406,131,qs),
(406,168,o),
(368,211,o),
(305,234,o),
(229,248,o),
(153,264,o),
(90,293,o),
(52,344,o),
(52,387,qs),
(52,422,o),
(90,482,o),
(171,520,o),
(235,520,qs),
(283,520,o),
(377,491,o),
(406,467,q),
(394,451,l),
(363,476,o),
(279,501,o),
(235,501,qs),
(150,501,o),
(73,435,o),
(73,387,qs),
(73,349,o),
(111,304,o),
(174,280,o),
(250,266,o),
(325,250,o),
(388,222,o),
(426,173,o),
(426,131,qs),
(426,92,o),
(384,31,o),
(299,-3,o),
(234,-3,qs)
);
}
);
width = 463;
}
);
leftKerningGroup = s2;
rightKerningGroup = s;
unicode = 115;
},
{
glyphname = uniA78C;
layers = (
{
layerId = "B8EF125A-8090-42B9-BB2C-F5A019E05E81";
shapes = (
{
closed = 1;
nodes = (
(55,296,l),
(55,701,l),
(279,701,l),
(249,296,l)
);
}
);
width = 334;
},
{
layerId = "FE17A44E-3763-4243-92C2-150F6AC96B85";
shapes = (
{
closed = 1;
nodes = (
(77,297,l),
(78,666,l),
(187,666,l),
(173,297,l)
);
}
);
width = 264;
},
{
layerId = "321F1C87-2BE4-472A-920D-C7836CF29DEE";
shapes = (
{
closed = 1;
nodes = (
(94,298,l),
(95,633,l),
(115,633,l),
(114,298,l)
);
}
);
width = 209;
}
);
leftKerningGroup = pi;
unicode = 42892;
},
{
glyphname = germandbls;
layers = (
{
layerId = "B8EF125A-8090-42B9-BB2C-F5A019E05E81";
shapes = (
{
closed = 1;
nodes = (
(399,-10,o),
(328,-1,o),
(308,6,q),
(330,178,l),
(346,172,o),
(378,166,o),
(396,166,qs),
(416,166,o),
(446,178,o),
(464,202,o),
(464,219,qs),
(464,245,o),
(426,271,o),
(388,271,qs),
(336,271,l),
(336,441,l),
(371,443,o),
(413,480,o),
(413,511,qs),
(413,541,o),
(377,578,o),
(348,578,qs),
(315,578,o),
(276,539,o),
(276,503,qs),
(276,0,l),
(50,0,l),
(50,472,ls),
(50,564,o),
(131,689,o),
(267,752,o),
(347,752,qs),
(438,752,o),
(564,693,o),
(630,594,o),
(630,533,qs),
(630,485,o),
(585,408,o),
(508,354,o),
(412,325,o),
(362,325,q),
(412,421,l),
(501,421,o),
(626,373,o),
(693,280,o),
(693,213,qs),
(693,143,o),
(628,43,o),
(510,-10,o),
(430,-10,qs)
);
}
);
width = 714;
},
{
layerId = "FE17A44E-3763-4243-92C2-150F6AC96B85";
shapes = (
{
closed = 1;
nodes = (
(366,-6,o),
(303,2,o),
(279,10,q),
(296,102,l),
(316,95,o),
(360,89,o),
(391,89,qs),
(434,89,o),
(495,116,o),
(529,169,o),
(529,206,qs),
(529,262,o),
(446,322,o),
(378,322,qs),
(322,322,l),
(322,415,l),
(393,416,o),
(474,485,o),
(474,542,qs),
(474,592,o),
(406,653,o),
(343,653,qs),
(275,653,o),
(197,576,o),
(197,501,qs),
(197,0,l),
(87,0,l),
(87,491,ls),
(87,577,o),
(154,691,o),
(270,748,o),
(343,748,qs),
(417,748,o),
(523,695,o),
(580,604,o),
(580,547,qs),
(580,501,o),
(545,430,o),
(489,381,o),
(423,355,o),
(391,355,q),
(421,399,l),
(482,399,o),
(581,353,o),
(640,266,o),
(640,203,qs),
(640,137,o),
(577,43,o),
(467,-6,o),
(396,-6,qs)
);
}
);
width = 680;
},
{
layerId = "321F1C87-2BE4-472A-920D-C7836CF29DEE";
shapes = (
{
closed = 1;
nodes = (
(342,-3,o),
(287,5,o),
(264,12,q),
(270,31,l),
(293,24,o),
(342,16,o),
(370,16,qs),
(429,16,o),
(523,58,o),
(578,138,o),
(578,194,qs),
(578,279,o),
(462,371,o),
(371,371,qs),
(311,371,l),
(311,390,l),
(410,390,o),
(521,486,o),
(521,568,qs),
(521,637,o),
(423,726,o),
(336,726,qs),
(246,726,o),
(135,617,o),
(135,507,qs),
(135,0,l),
(115,0,l),
(115,508,ls),
(115,586,o),
(171,691,o),
(270,745,o),
(335,745,qs),
(399,745,o),
(491,699,o),
(541,619,o),
(541,568,qs),
(541,523,o),
(508,453,o),
(451,404,o),
(380,378,o),
(342,378,q),
(367,389,l),
(436,389,o),
(540,343,o),
(598,256,o),
(598,194,qs),
(598,133,o),
(537,45,o),
(434,-3,o),
(370,-3,qs)
);
}
);
width = 652;
}
);
leftKerningGroup = b2;
rightKerningGroup = b;
unicode = 223;
},
{
glyphname = longs;
layers = (
{
layerId = "B8EF125A-8090-42B9-BB2C-F5A019E05E81";
shapes = (
{
closed = 1;
nodes = (
(88,0,l),
(88,520,ls),
(88,626,o),
(215,752,o),
(332,752,qs),
(368,752,o),
(441,739,o),
(466,725,q),
(412,568,l),
(401,573,o),
(375,581,o),
(361,581,qs),
(337,581,o),
(314,551,o),
(314,518,qs),
(314,0,l)
);
},
{
closed = 1;
nodes = (
(13,352,l),
(13,517,l),
(208,517,l),
(208,352,l)
);
}
);
width = 366;
},
{
layerId = "FE17A44E-3763-4243-92C2-150F6AC96B85";
shapes = (
{
closed = 1;
nodes = (
(112,0,l),
(112,570,ls),
(112,651,o),
(207,748,o),
(296,748,qs),
(328,748,o),
(385,734,o),
(405,719,q),
(373,635,l),
(359,646,o),
(322,658,o),
(302,658,qs),
(263,658,o),
(222,613,o),
(222,569,qs),
(222,0,l)
);
},
{
closed = 1;
nodes = (
(23,442,l),
(23,532,l),
(167,532,l),
(167,442,l)
);
}
);
width = 312;
},
{
layerId = "321F1C87-2BE4-472A-920D-C7836CF29DEE";
shapes = (
{
closed = 1;
nodes = (
(134,0,l),
(134,618,ls),
(134,675,o),
(199,745,o),
(259,745,qs),
(287,745,o),
(342,727,o),
(360,708,q),
(346,694,l),
(330,710,o),
(285,726,o),
(260,726,qs),
(208,726,o),
(154,668,o),
(154,613,qs),
(154,0,l)
);
},
{
closed = 1;
nodes = (
(34,498,l),
(34,517,l),
(149,517,l),
(149,498,l)
);
}
);
width = 273;
}
);
leftKerningGroup = pi;
unicode = 383;
},
{
glyphname = t;
layers = (
{
anchors = (
{
name = t.uni0308;
position = "{188, 670}";
},
{
name = t.uni0307_1;
position = "{207, 261}";
},
{
name = t.uni031B_2;
position = "{349, 742}";
},
{
name = b.uni0324_3;
position = "{274, 0}";
}
);
layerId = "B8EF125A-8090-42B9-BB2C-F5A019E05E81";
shapes = (
{
closed = 1;
nodes = (
(201,-10,o),
(75,99,o),
(75,212,qs),
(75,670,l),
(301,670,l),
(301,214,ls),
(301,189,o),
(328,161,o),
(348,161,qs),
(377,161,o),
(399,176,q),
(453,19,l),
(427,4,o),
(354,-10,o),
(314,-10,qs)
);
},
{
closed = 1;
nodes = (
(0,352,l),
(0,517,l),
(413,517,l),
(413,352,l)
);
}
);
width = 460;
},
{
anchors = (
{
name = t.uni0308;
position = "{212, 689}";
},
{
name = t.uni0307_1;
position = "{223, 239}";
},
{
name = t.uni031B_2;
position = "{393, 742}";
},
{
name = b.uni0324_3;
position = "{288, 0}";
}
);
layerId = "FE17A44E-3763-4243-92C2-150F6AC96B85";
shapes = (
{
closed = 1;
nodes = (
(194,-6,o),
(102,82,o),
(102,167,qs),
(102,649,l),
(212,649,l),
(212,170,ls),
(212,130,o),
(253,86,o),
(291,86,qs),
(334,86,o),
(363,109,q),
(396,30,l),
(374,12,o),
(311,-6,o),
(278,-6,qs)
);
},
{
closed = 1;
nodes = (
(13,442,l),
(13,532,l),
(360,532,l),
(360,442,l)
);
}
);
width = 419;
},
{
anchors = (
{
name = t.uni0308;
position = "{212, 689}";
},
{
name = t.uni0307_1;
position = "{223, 239}";
},
{
name = t.uni031B_2;
position = "{393, 742}";
},
{
name = b.uni0324_3;
position = "{288, 0}";
}
);
layerId = "321F1C87-2BE4-472A-920D-C7836CF29DEE";
shapes = (
{
closed = 1;
nodes = (
(187,-3,o),
(123,67,o),
(123,124,qs),
(123,630,l),
(143,630,l),
(143,129,ls),
(143,74,o),
(197,16,o),
(249,16,qs),
(301,16,o),
(335,48,q),
(349,34,l),
(331,15,o),
(276,-3,o),
(248,-3,qs)
);
},
{
closed = 1;
nodes = (
(23,498,l),
(23,517,l),
(318,517,l),
(318,498,l)
);
}
);
width = 388;
}
);
leftKerningGroup = t2;
rightKerningGroup = t;
unicode = 116;
},
{
glyphname = u;
layers = (
{
anchors = (
{
name = t.uni0308;
position = "{348, 547}";
},
{
name = t.uni031B_2;
position = "{535, 547}";
},
{
name = b.uni0324_3;
position = "{348, 0}";
},
{
name = m.uni0328_4;
position = "{648, 0}";
}
);
layerId = "B8EF125A-8090-42B9-BB2C-F5A019E05E81";
shapes = (
{
closed = 1;
nodes = (
(213,-10,o),
(108,43,o),
(48,156,o),
(48,245,qs),
(48,547,l),
(274,547,l),
(274,284,ls),
(274,226,o),
(312,180,o),
(345,180,qs),
(365,180,o),
(400,201,o),
(422,250,o),
(422,290,qs),
(422,547,l),
(648,547,l),
(648,0,l),
(433,0,l),
(433,158,l),
(476,115,l),
(447,51,o),
(340,-10,o),
(278,-10,qs)
);
}
);
width = 698;
},
{
anchors = (
{
name = t.uni0308;
position = "{356, 562}";
},
{
name = t.uni031B_2;
position = "{533, 562}";
},
{
name = b.uni0324_3;
position = "{356, 0}";
},
{
name = m.uni0328_4;
position = "{691, 0}";
}
);
layerId = "FE17A44E-3763-4243-92C2-150F6AC96B85";
shapes = (
{
closed = 1;
nodes = (
(244,-6,o),
(140,44,o),
(82,148,o),
(82,227,qs),
(82,532,l),
(192,532,l),
(192,240,ls),
(192,166,o),
(262,92,o),
(326,92,qs),
(373,92,o),
(443,130,o),
(482,205,o),
(482,260,qs),
(482,532,l),
(592,532,l),
(592,0,l),
(487,0,l),
(487,142,l),
(505,98,l),
(478,48,o),
(375,-6,o),
(313,-6,qs)
);
}
);
width = 679;
},
{
anchors = (
{
name = t.uni0308;
position = "{356, 562}";
},
{
name = t.uni031B_2;
position = "{533, 562}";
},
{
name = b.uni0324_3;
position = "{356, 0}";
},
{
name = m.uni0328_4;
position = "{691, 0}";
}
);
layerId = "321F1C87-2BE4-472A-920D-C7836CF29DEE";
shapes = (
{
closed = 1;
nodes = (
(255,-3,o),
(160,46,o),
(109,142,o),
(109,212,qs),
(109,517,l),
(129,517,l),
(129,212,ls),
(129,116,o),
(229,16,o),
(320,16,qs),
(385,16,o),
(479,71,o),
(529,171,o),
(529,236,qs),
(529,517,l),
(549,517,l),
(549,0,l),
(529,0,l),
(529,146,l),
(531,143,l),
(509,76,o),
(401,-3,o),
(321,-3,qs)
);
}
);
width = 664;
}
);
leftKerningGroup = u;
rightKerningGroup = g;
unicode = 117;
},
{
glyphname = v;
layers = (
{
anchors = (
{
name = t.uni0308;
position = "{322, 547}";
},
{
name = b.uni0324_3;
position = "{322, 0}";
}
);
layerId = "B8EF125A-8090-42B9-BB2C-F5A019E05E81";
shapes = (
{
closed = 1;
nodes = (
(205,0,l),
(-15,547,l),
(217,547,l),
(384,103,l),
(267,103,l),
(445,547,l),
(659,547,l),
(439,0,l)
);
}
);
width = 644;
},
{
anchors = (
{
name = t.uni0308;
position = "{352, 562}";
},
{
name = b.uni0324_3;
position = "{352, 0}";
}
);
layerId = "FE17A44E-3763-4243-92C2-150F6AC96B85";
shapes = (
{
closed = 1;
nodes = (
(227,0,l),
(-3,532,l),
(111,532,l),
(313,57,l),
(257,57,l),
(464,532,l),
(571,532,l),
(340,0,l)
);
}
);
width = 568;
},
{
anchors = (
{
name = t.uni0308;
position = "{352, 562}";
},
{
name = b.uni0324_3;
position = "{352, 0}";
}
);
layerId = "321F1C87-2BE4-472A-920D-C7836CF29DEE";
shapes = (
{
closed = 1;
nodes = (
(244,0,l),
(6,517,l),
(29,517,l),
(258,14,l),
(250,14,l),
(479,517,l),
(502,517,l),
(264,0,l)
);
}
);
width = 508;
}
);
leftKerningGroup = v2;
rightKerningGroup = v;
unicode = 118;
},
{
glyphname = w;
layers = (
{
anchors = (
{
name = t.uni0308;
position = "{489, 547}";
},
{
name = b.uni0324_3;
position = "{489, 0}";
}
);
layerId = "B8EF125A-8090-42B9-BB2C-F5A019E05E81";
shapes = (
{
closed = 1;
nodes = (
(184,0,l),
(-6,547,l),
(208,547,l),
(352,103,l),
(249,103,l),
(400,547,l),
(592,547,l),
(736,103,l),
(636,103,l),
(785,547,l),
(983,547,l),
(793,0,l),
(573,0,l),
(458,352,l),
(524,352,l),
(404,0,l)
);
}
);
width = 977;
},
{
anchors = (
{
name = t.uni0308;
position = "{522, 560}";
},
{
name = b.uni0324_3;
position = "{522, 0}";
}
);
layerId = "FE17A44E-3763-4243-92C2-150F6AC96B85";
shapes = (
{
closed = 1;
nodes = (
(202,0,l),
(5,532,l),
(109,532,l),
(281,57,l),
(232,57,l),
(411,532,l),
(504,532,l),
(679,57,l),
(630,57,l),
(807,532,l),
(905,532,l),
(707,0,l),
(602,0,l),
(440,427,l),
(472,427,l),
(307,0,l)
);
}
);
width = 910;
},
{
anchors = (
{
name = t.uni0308;
position = "{522, 560}";
},
{
name = b.uni0324_3;
position = "{522, 0}";
}
);
layerId = "321F1C87-2BE4-472A-920D-C7836CF29DEE";
shapes = (
{
closed = 1;
nodes = (
(211,0,l),
(12,517,l),
(32,517,l),
(223,14,l),
(215,14,l),
(409,517,l),
(428,517,l),
(622,14,l),
(614,14,l),
(805,517,l),
(826,517,l),
(627,0,l),
(609,0,l),
(415,498,l),
(422,498,l),
(228,0,l)
);
}
);
width = 838;
}
);
leftKerningGroup = v2;
rightKerningGroup = v;
unicode = 119;
},
{
glyphname = x;
layers = (
{
layerId = "B8EF125A-8090-42B9-BB2C-F5A019E05E81";
shapes = (
{
closed = 1;
nodes = (
(-9,0,l),
(249,338,l),
(243,208,l),
(-3,547,l),
(252,547,l),
(373,366,l),
(279,359,l),
(412,547,l),
(649,547,l),
(402,219,l),
(402,344,l),
(654,0,l),
(395,0,l),
(270,193,l),
(365,180,l),
(236,0,l)
);
}
);
width = 645;
},
{
layerId = "FE17A44E-3763-4243-92C2-150F6AC96B85";
shapes = (
{
closed = 1;
nodes = (
(12,0,l),
(243,301,l),
(242,244,l),
(21,532,l),
(143,532,l),
(305,318,l),
(258,319,l),
(420,532,l),
(540,532,l),
(317,242,l),
(318,300,l),
(550,0,l),
(426,0,l),
(255,227,l),
(301,221,l),
(134,0,l)
);
}
);
width = 562;
},
{
layerId = "321F1C87-2BE4-472A-920D-C7836CF29DEE";
shapes = (
{
closed = 1;
nodes = (
(28,0,l),
(239,272,l),
(238,265,l),
(40,517,l),
(65,517,l),
(252,277,l),
(244,277,l),
(431,517,l),
(455,517,l),
(255,261,l),
(256,273,l),
(470,0,l),
(444,0,l),
(246,256,l),
(251,256,l),
(53,0,l)
);
}
);
width = 498;
}
);
leftKerningGroup = x2;
rightKerningGroup = x;
unicode = 120;
},
{
glyphname = y;
layers = (
{
anchors = (
{
name = t.uni0308;
position = "{313, 547}";
},
{
name = b.uni0324_3;
position = "{527, 0}";
}
);
layerId = "B8EF125A-8090-42B9-BB2C-F5A019E05E81";
shapes = (
{
closed = 1;
nodes = (
(125,-204,o),
(32,-177,o),
(4,-155,q),
(79,0,l),
(96,-13,o),
(139,-29,o),
(159,-29,qs),
(189,-29,o),
(221,-4,o),
(231,21,qs),
(254,79,l),
(270,101,l),
(445,547,l),
(659,547,l),
(434,-11,ls),
(404,-86,o),
(325,-170,o),
(228,-204,o),
(170,-204,qs)
);
},
{
closed = 1;
nodes = (
(223,-25,l),
(-15,547,l),
(217,547,l),
(381,121,l)
);
}
);
width = 644;
},
{
anchors = (
{
name = t.uni0308;
position = "{345, 562}";
},
{
name = b.uni0324_3;
position = "{608, 0}";
}
);
layerId = "FE17A44E-3763-4243-92C2-150F6AC96B85";
shapes = (
{
closed = 1;
nodes = (
(81,-200,o),
(6,-175,o),
(-20,-151,q),
(26,-69,l),
(45,-87,o),
(94,-107,o),
(120,-107,qs),
(154,-107,o),
(198,-72,o),
(217,-29,qs),
(249,42,l),
(259,56,l),
(464,532,l),
(571,532,l),
(317,-48,l),
(293,-106,o),
(234,-173,o),
(163,-200,o),
(120,-200,qs)
);
},
{
closed = 1;
nodes = (
(238,-18,l),
(-3,532,l),
(111,532,l),
(312,66,l)
);
}
);
width = 568;
},
{
anchors = (
{
name = t.uni0308;
position = "{345, 562}";
},
{
name = b.uni0324_3;
position = "{608, 0}";
}
);
layerId = "321F1C87-2BE4-472A-920D-C7836CF29DEE";
shapes = (
{
closed = 1;
nodes = (
(47,-197,o),
(-10,-174,o),
(-31,-151,q),
(-16,-135,l),
(5,-157,o),
(51,-178,o),
(82,-178,qs),
(120,-178,o),
(180,-135,o),
(207,-77,qs),
(245,7,l),
(250,14,l),
(479,517,l),
(502,517,l),
(227,-83,ls),
(208,-125,o),
(163,-175,o),
(112,-197,o),
(81,-197,qs)
);
},
{
closed = 1;
nodes = (
(249,-11,l),
(6,517,l),
(29,517,l),
(258,14,l)
);
}
);
width = 508;
}
);
leftKerningGroup = v2;
rightKerningGroup = v;
unicode = 121;
},
{
glyphname = z;
layers = (
{
anchors = (
{
name = t.uni0308;
position = "{290, 547}";
},
{
name = b.uni0324_3;
position = "{290, 0}";
}
);
layerId = "B8EF125A-8090-42B9-BB2C-F5A019E05E81";
shapes = (
{
closed = 1;
nodes = (
(30,0,l),
(30,130,l),
(321,454,l),
(358,382,l),
(38,382,l),
(38,547,l),
(541,547,l),
(541,417,l),
(250,93,l),
(213,165,l),
(552,165,l),
(552,0,l)
);
}
);
width = 570;
},
{
anchors = (
{
name = t.uni0308;
position = "{310, 562}";
},
{
name = b.uni0324_3;
position = "{305, 0}";
}
);
layerId = "FE17A44E-3763-4243-92C2-150F6AC96B85";
shapes = (
{
closed = 1;
nodes = (
(39,0,l),
(39,71,l),
(374,480,l),
(395,442,l),
(45,442,l),
(45,532,l),
(483,532,l),
(483,461,l),
(148,52,l),
(125,90,l),
(491,90,l),
(491,0,l)
);
}
);
width = 526;
},
{
anchors = (
{
name = t.uni0308;
position = "{310, 562}";
},
{
name = b.uni0324_3;
position = "{305, 0}";
}
);
layerId = "321F1C87-2BE4-472A-920D-C7836CF29DEE";
shapes = (
{
closed = 1;
nodes = (
(46,0,l),
(46,15,l),
(415,504,l),
(423,498,l),
(51,498,l),
(51,517,l),
(438,517,l),
(438,502,l),
(69,13,l),
(57,19,l),
(443,19,l),
(443,0,l)
);
}
);
width = 491;
}
);
leftKerningGroup = z2;
rightKerningGroup = z;
unicode = 122;
},
{
glyphname = iacute_j.loclNLD;
layers = (
{
layerId = "B8EF125A-8090-42B9-BB2C-F5A019E05E81";
shapes = (
{
closed = 1;
nodes = (
(50,0,l),
(50,547,l),
(275,547,l),
(275,0,l)
);
},
{
closed = 1;
nodes = (
(58,607,l),
(190,767,l),
(405,767,l),
(208,607,l)
);
},
{
closed = 1;
nodes = (
(329,-204,o),
(256,-190,o),
(230,-177,q),
(284,-20,l),
(308,-33,o),
(335,-33,qs),
(355,-33,o),
(382,-3,o),
(382,30,qs),
(382,547,l),
(608,547,l),
(608,28,ls),
(608,-78,o),
(482,-204,o),
(369,-204,qs)
);
},
{
closed = 1;
nodes = (
(390,607,l),
(522,767,l),
(737,767,l),
(540,607,l)
);
}
);
width = 658;
},
{
layerId = "FE17A44E-3763-4243-92C2-150F6AC96B85";
shapes = (
{
closed = 1;
nodes = (
(87,0,l),
(87,532,l),
(196,532,l),
(196,0,l)
);
},
{
closed = 1;
nodes = (
(70,607,l),
(207,741,l),
(323,741,l),
(153,607,l)
);
},
{
closed = 1;
nodes = (
(278,-200,o),
(215,-184,o),
(193,-168,q),
(224,-85,l),
(253,-108,o),
(297,-108,qs),
(334,-108,o),
(375,-63,o),
(375,-19,qs),
(375,532,l),
(485,532,l),
(485,-22,ls),
(485,-103,o),
(395,-200,o),
(312,-200,qs)
);
},
{
closed = 1;
nodes = (
(359,607,l),
(496,741,l),
(612,741,l),
(441,607,l)
);
}
);
width = 572;
},
{
layerId = "321F1C87-2BE4-472A-920D-C7836CF29DEE";
shapes = (
{
closed = 1;
nodes = (
(115,0,l),
(115,517,l),
(135,517,l),
(135,0,l)
);
},
{
closed = 1;
nodes = (
(80,607,l),
(220,717,l),
(260,717,l),
(110,607,l)
);
},
{
closed = 1;
nodes = (
(238,-197,o),
(182,-179,o),
(164,-160,q),
(178,-146,l),
(212,-178,o),
(267,-178,qs),
(317,-178,o),
(370,-120,o),
(370,-65,qs),
(370,517,l),
(390,517,l),
(390,-70,ls),
(390,-127,o),
(327,-197,o),
(268,-197,qs)
);
},
{
closed = 1;
nodes = (
(335,607,l),
(475,717,l),
(515,717,l),
(365,607,l)
);
}
);
width = 505;
}
);
leftKerningGroup = pi;
rightKerningGroup = g;
},
